<?xml version="1.0" encoding="UTF-8" standalone="no"?>
<!DOCTYPE svg PUBLIC "-//W3C//DTD SVG 1.1//EN"
 "http://www.w3.org/Graphics/SVG/1.1/DTD/svg11.dtd">
<!-- Generated by graphviz version 2.40.1 (0)
 -->
<!-- Title: snakemake_dag Pages: 1 -->
<svg width="2583pt" height="1001pt"
 viewBox="0.00 0.00 2583.00 1001.00" xmlns="http://www.w3.org/2000/svg" xmlns:xlink="http://www.w3.org/1999/xlink">
<g id="graph0" class="graph" transform="scale(1 1) rotate(0) translate(4 997)">
<title>snakemake_dag</title>
<polygon fill="#ffffff" stroke="transparent" points="-4,4 -4,-997 2579,-997 2579,4 -4,4"/>
<!-- 0 -->
<g id="node1" class="node">
<title>0</title>
<path fill="none" stroke="#d86e56" stroke-width="2" d="M1275,-36C1275,-36 1245,-36 1245,-36 1239,-36 1233,-30 1233,-24 1233,-24 1233,-12 1233,-12 1233,-6 1239,0 1245,0 1245,0 1275,0 1275,0 1281,0 1287,-6 1287,-12 1287,-12 1287,-24 1287,-24 1287,-30 1281,-36 1275,-36"/>
<text text-anchor="middle" x="1260" y="-15.5" font-family="sans" font-size="10.00" fill="#000000">all</text>
</g>
<!-- 1 -->
<g id="node2" class="node">
<title>1</title>
<path fill="none" stroke="#568ad8" stroke-width="2" stroke-dasharray="5,2" d="M98,-116C98,-116 12,-116 12,-116 6,-116 0,-110 0,-104 0,-104 0,-92 0,-92 0,-86 6,-80 12,-80 12,-80 98,-80 98,-80 104,-80 110,-86 110,-92 110,-92 110,-104 110,-104 110,-110 104,-116 98,-116"/>
<text text-anchor="middle" x="55" y="-101" font-family="sans" font-size="10.00" fill="#000000">sample_qa_plot</text>
<text text-anchor="middle" x="55" y="-90" font-family="sans" font-size="10.00" fill="#000000">sample: barcode10</text>
</g>
<!-- 1&#45;&gt;0 -->
<g id="edge1" class="edge">
<title>1&#45;&gt;0</title>
<path fill="none" stroke="#c0c0c0" stroke-width="2" d="M93.5903,-79.8889C101.8148,-76.7241 110.5668,-73.8556 119,-72 228.7243,-47.8564 1038.2538,-24.1434 1222.678,-19.0171"/>
<polygon fill="#c0c0c0" stroke="#c0c0c0" stroke-width="2" points="1223.0454,-22.5083 1232.9447,-18.733 1222.8517,-15.511 1223.0454,-22.5083"/>
</g>
<!-- 2 -->
<g id="node3" class="node">
<title>2</title>
<path fill="none" stroke="#568ad8" stroke-width="2" stroke-dasharray="5,2" d="M226,-116C226,-116 140,-116 140,-116 134,-116 128,-110 128,-104 128,-104 128,-92 128,-92 128,-86 134,-80 140,-80 140,-80 226,-80 226,-80 232,-80 238,-86 238,-92 238,-92 238,-104 238,-104 238,-110 232,-116 226,-116"/>
<text text-anchor="middle" x="183" y="-101" font-family="sans" font-size="10.00" fill="#000000">sample_qa_plot</text>
<text text-anchor="middle" x="183" y="-90" font-family="sans" font-size="10.00" fill="#000000">sample: barcode11</text>
</g>
<!-- 2&#45;&gt;0 -->
<g id="edge2" class="edge">
<title>2&#45;&gt;0</title>
<path fill="none" stroke="#c0c0c0" stroke-width="2" d="M221.599,-79.9279C229.8228,-76.7603 238.5724,-73.8808 247,-72 438.3426,-29.2985 1063.0281,-20.0279 1222.6132,-18.3367"/>
<polygon fill="#c0c0c0" stroke="#c0c0c0" stroke-width="2" points="1222.9024,-21.834 1232.866,-18.2318 1222.8307,-14.8344 1222.9024,-21.834"/>
</g>
<!-- 3 -->
<g id="node4" class="node">
<title>3</title>
<path fill="none" stroke="#568ad8" stroke-width="2" stroke-dasharray="5,2" d="M354,-116C354,-116 268,-116 268,-116 262,-116 256,-110 256,-104 256,-104 256,-92 256,-92 256,-86 262,-80 268,-80 268,-80 354,-80 354,-80 360,-80 366,-86 366,-92 366,-92 366,-104 366,-104 366,-110 360,-116 354,-116"/>
<text text-anchor="middle" x="311" y="-101" font-family="sans" font-size="10.00" fill="#000000">sample_qa_plot</text>
<text text-anchor="middle" x="311" y="-90" font-family="sans" font-size="10.00" fill="#000000">sample: barcode12</text>
</g>
<!-- 3&#45;&gt;0 -->
<g id="edge3" class="edge">
<title>3&#45;&gt;0</title>
<path fill="none" stroke="#c0c0c0" stroke-width="2" d="M349.6103,-79.9781C357.8332,-76.8068 366.5796,-73.9131 375,-72 540.2956,-34.4441 1076.1944,-21.5405 1222.6916,-18.6683"/>
<polygon fill="#c0c0c0" stroke="#c0c0c0" stroke-width="2" points="1223.0155,-22.1628 1232.9464,-18.4713 1222.881,-15.1641 1223.0155,-22.1628"/>
</g>
<!-- 4 -->
<g id="node5" class="node">
<title>4</title>
<path fill="none" stroke="#568ad8" stroke-width="2" stroke-dasharray="5,2" d="M482,-116C482,-116 396,-116 396,-116 390,-116 384,-110 384,-104 384,-104 384,-92 384,-92 384,-86 390,-80 396,-80 396,-80 482,-80 482,-80 488,-80 494,-86 494,-92 494,-92 494,-104 494,-104 494,-110 488,-116 482,-116"/>
<text text-anchor="middle" x="439" y="-101" font-family="sans" font-size="10.00" fill="#000000">sample_qa_plot</text>
<text text-anchor="middle" x="439" y="-90" font-family="sans" font-size="10.00" fill="#000000">sample: barcode13</text>
</g>
<!-- 4&#45;&gt;0 -->
<g id="edge4" class="edge">
<title>4&#45;&gt;0</title>
<path fill="none" stroke="#c0c0c0" stroke-width="2" d="M477.9685,-79.9129C486.0903,-76.7882 494.7064,-73.9292 503,-72 642.3166,-39.5932 1089.8401,-23.3134 1222.5615,-19.1159"/>
<polygon fill="#c0c0c0" stroke="#c0c0c0" stroke-width="2" points="1222.7534,-22.6117 1232.6393,-18.8013 1222.5349,-15.6151 1222.7534,-22.6117"/>
</g>
<!-- 5 -->
<g id="node6" class="node">
<title>5</title>
<path fill="none" stroke="#568ad8" stroke-width="2" stroke-dasharray="5,2" d="M610,-116C610,-116 524,-116 524,-116 518,-116 512,-110 512,-104 512,-104 512,-92 512,-92 512,-86 518,-80 524,-80 524,-80 610,-80 610,-80 616,-80 622,-86 622,-92 622,-92 622,-104 622,-104 622,-110 616,-116 610,-116"/>
<text text-anchor="middle" x="567" y="-101" font-family="sans" font-size="10.00" fill="#000000">sample_qa_plot</text>
<text text-anchor="middle" x="567" y="-90" font-family="sans" font-size="10.00" fill="#000000">sample: barcode15</text>
</g>
<!-- 5&#45;&gt;0 -->
<g id="edge5" class="edge">
<title>5&#45;&gt;0</title>
<path fill="none" stroke="#c0c0c0" stroke-width="2" d="M606.3341,-79.8743C614.3532,-76.7935 622.8371,-73.961 631,-72 744.5501,-44.722 1104.8993,-25.4399 1222.4907,-19.7432"/>
<polygon fill="#c0c0c0" stroke="#c0c0c0" stroke-width="2" points="1222.9584,-23.2249 1232.7792,-19.2495 1222.6229,-16.2329 1222.9584,-23.2249"/>
</g>
<!-- 6 -->
<g id="node7" class="node">
<title>6</title>
<path fill="none" stroke="#568ad8" stroke-width="2" stroke-dasharray="5,2" d="M738,-116C738,-116 652,-116 652,-116 646,-116 640,-110 640,-104 640,-104 640,-92 640,-92 640,-86 646,-80 652,-80 652,-80 738,-80 738,-80 744,-80 750,-86 750,-92 750,-92 750,-104 750,-104 750,-110 744,-116 738,-116"/>
<text text-anchor="middle" x="695" y="-101" font-family="sans" font-size="10.00" fill="#000000">sample_qa_plot</text>
<text text-anchor="middle" x="695" y="-90" font-family="sans" font-size="10.00" fill="#000000">sample: barcode16</text>
</g>
<!-- 6&#45;&gt;0 -->
<g id="edge6" class="edge">
<title>6&#45;&gt;0</title>
<path fill="none" stroke="#c0c0c0" stroke-width="2" d="M734.7124,-79.8822C742.6269,-76.8403 750.9752,-74.0202 759,-72 847.1838,-49.7996 1122.5403,-28.0446 1222.9155,-20.6522"/>
<polygon fill="#c0c0c0" stroke="#c0c0c0" stroke-width="2" points="1223.1806,-24.1422 1232.8986,-19.9219 1222.6699,-17.1609 1223.1806,-24.1422"/>
</g>
<!-- 7 -->
<g id="node8" class="node">
<title>7</title>
<path fill="none" stroke="#566bd8" stroke-width="2" stroke-dasharray="5,2" d="M878,-116C878,-116 780,-116 780,-116 774,-116 768,-110 768,-104 768,-104 768,-92 768,-92 768,-86 774,-80 780,-80 780,-80 878,-80 878,-80 884,-80 890,-86 890,-92 890,-92 890,-104 890,-104 890,-110 884,-116 878,-116"/>
<text text-anchor="middle" x="829" y="-95.5" font-family="sans" font-size="10.00" fill="#000000">total_sample_qa_plot</text>
</g>
<!-- 7&#45;&gt;0 -->
<g id="edge7" class="edge">
<title>7&#45;&gt;0</title>
<path fill="none" stroke="#c0c0c0" stroke-width="2" d="M877.0231,-79.8971C885.9076,-76.9652 895.1698,-74.1807 904,-72 1018.4026,-43.7466 1157.352,-27.8225 1222.6676,-21.3897"/>
<polygon fill="#c0c0c0" stroke="#c0c0c0" stroke-width="2" points="1223.2575,-24.8491 1232.8744,-20.4031 1222.584,-17.8816 1223.2575,-24.8491"/>
</g>
<!-- 8 -->
<g id="node9" class="node">
<title>8</title>
<path fill="none" stroke="#d89556" stroke-width="2" d="M1496,-196C1496,-196 1452,-196 1452,-196 1446,-196 1440,-190 1440,-184 1440,-184 1440,-172 1440,-172 1440,-166 1446,-160 1452,-160 1452,-160 1496,-160 1496,-160 1502,-160 1508,-166 1508,-172 1508,-172 1508,-184 1508,-184 1508,-190 1502,-196 1496,-196"/>
<text text-anchor="middle" x="1474" y="-175.5" font-family="sans" font-size="10.00" fill="#000000">bam_stats</text>
</g>
<!-- 8&#45;&gt;0 -->
<g id="edge8" class="edge">
<title>8&#45;&gt;0</title>
<path fill="none" stroke="#c0c0c0" stroke-width="2" d="M1470.5365,-159.9606C1465.1006,-136.4537 1452.3429,-95.577 1426,-72 1389.9288,-39.7162 1334.2442,-26.6964 1297.4651,-21.4696"/>
<polygon fill="#c0c0c0" stroke="#c0c0c0" stroke-width="2" points="1297.5292,-17.9489 1287.1631,-20.1385 1296.6322,-24.8911 1297.5292,-17.9489"/>
</g>
<!-- 9 -->
<g id="node10" class="node">
<title>9</title>
<path fill="none" stroke="#5692d8" stroke-width="2" d="M1695,-489C1695,-489 1639,-489 1639,-489 1633,-489 1627,-483 1627,-477 1627,-477 1627,-465 1627,-465 1627,-459 1633,-453 1639,-453 1639,-453 1695,-453 1695,-453 1701,-453 1707,-459 1707,-465 1707,-465 1707,-477 1707,-477 1707,-483 1701,-489 1695,-489"/>
<text text-anchor="middle" x="1667" y="-468.5" font-family="sans" font-size="10.00" fill="#000000">sam_to_bam</text>
</g>
<!-- 9&#45;&gt;8 -->
<g id="edge30" class="edge">
<title>9&#45;&gt;8</title>
<path fill="none" stroke="#c0c0c0" stroke-width="2" d="M1665.5369,-452.9158C1663.7982,-421.8022 1663.6293,-356.8768 1687,-309 1696.9259,-288.6659 1714.3409,-293.905 1723,-273 1729.9733,-256.1649 1734.7236,-245.9501 1723,-232 1665.247,-163.279 1610.101,-218.0742 1517.943,-195.7206"/>
<polygon fill="#c0c0c0" stroke="#c0c0c0" stroke-width="2" points="1518.5841,-192.2687 1508.018,-193.0487 1516.7643,-199.028 1518.5841,-192.2687"/>
</g>
<!-- 42 -->
<g id="node43" class="node">
<title>42</title>
<path fill="none" stroke="#d88556" stroke-width="2" d="M1751,-417C1751,-417 1713,-417 1713,-417 1707,-417 1701,-411 1701,-405 1701,-405 1701,-393 1701,-393 1701,-387 1707,-381 1713,-381 1713,-381 1751,-381 1751,-381 1757,-381 1763,-387 1763,-393 1763,-393 1763,-405 1763,-405 1763,-411 1757,-417 1751,-417"/>
<text text-anchor="middle" x="1732" y="-396.5" font-family="sans" font-size="10.00" fill="#000000">bam_sort</text>
</g>
<!-- 9&#45;&gt;42 -->
<g id="edge63" class="edge">
<title>9&#45;&gt;42</title>
<path fill="none" stroke="#c0c0c0" stroke-width="2" d="M1683.4022,-452.8314C1691.0415,-444.3694 1700.2683,-434.1489 1708.6207,-424.8971"/>
<polygon fill="#c0c0c0" stroke="#c0c0c0" stroke-width="2" points="1711.2738,-427.1813 1715.3769,-417.4133 1706.0779,-422.4906 1711.2738,-427.1813"/>
</g>
<!-- 58 -->
<g id="node59" class="node">
<title>58</title>
<path fill="none" stroke="#d6d856" stroke-width="2" d="M921,-417C921,-417 869,-417 869,-417 863,-417 857,-411 857,-405 857,-405 857,-393 857,-393 857,-387 863,-381 869,-381 869,-381 921,-381 921,-381 927,-381 933,-387 933,-393 933,-393 933,-405 933,-405 933,-411 927,-417 921,-417"/>
<text text-anchor="middle" x="895" y="-396.5" font-family="sans" font-size="10.00" fill="#000000">count_reads</text>
</g>
<!-- 9&#45;&gt;58 -->
<g id="edge79" class="edge">
<title>9&#45;&gt;58</title>
<path fill="none" stroke="#c0c0c0" stroke-width="2" d="M1626.9016,-455.1903C1623.918,-454.3476 1620.9295,-453.6019 1618,-453 1326.5949,-393.1327 1238.2733,-477.6271 943.3086,-416.8652"/>
<polygon fill="#c0c0c0" stroke="#c0c0c0" stroke-width="2" points="943.6832,-413.3676 933.1773,-414.7381 942.2448,-420.2182 943.6832,-413.3676"/>
</g>
<!-- 10 -->
<g id="node11" class="node">
<title>10</title>
<path fill="none" stroke="#56c1d8" stroke-width="2" d="M1690.5,-561C1690.5,-561 1643.5,-561 1643.5,-561 1637.5,-561 1631.5,-555 1631.5,-549 1631.5,-549 1631.5,-537 1631.5,-537 1631.5,-531 1637.5,-525 1643.5,-525 1643.5,-525 1690.5,-525 1690.5,-525 1696.5,-525 1702.5,-531 1702.5,-537 1702.5,-537 1702.5,-549 1702.5,-549 1702.5,-555 1696.5,-561 1690.5,-561"/>
<text text-anchor="middle" x="1667" y="-540.5" font-family="sans" font-size="10.00" fill="#000000">map_reads</text>
</g>
<!-- 10&#45;&gt;9 -->
<g id="edge31" class="edge">
<title>10&#45;&gt;9</title>
<path fill="none" stroke="#c0c0c0" stroke-width="2" d="M1667,-524.8314C1667,-517.131 1667,-507.9743 1667,-499.4166"/>
<polygon fill="#c0c0c0" stroke="#c0c0c0" stroke-width="2" points="1670.5001,-499.4132 1667,-489.4133 1663.5001,-499.4133 1670.5001,-499.4132"/>
</g>
<!-- 11 -->
<g id="node12" class="node">
<title>11</title>
<path fill="none" stroke="#d8b456" stroke-width="2" d="M1615,-633C1615,-633 1517,-633 1517,-633 1511,-633 1505,-627 1505,-621 1505,-621 1505,-609 1505,-609 1505,-603 1511,-597 1517,-597 1517,-597 1615,-597 1615,-597 1621,-597 1627,-603 1627,-609 1627,-609 1627,-621 1627,-621 1627,-627 1621,-633 1615,-633"/>
<text text-anchor="middle" x="1566" y="-612.5" font-family="sans" font-size="10.00" fill="#000000">build_minimap_index</text>
</g>
<!-- 11&#45;&gt;10 -->
<g id="edge32" class="edge">
<title>11&#45;&gt;10</title>
<path fill="none" stroke="#c0c0c0" stroke-width="2" d="M1591.4866,-596.8314C1604.1659,-587.7927 1619.6596,-576.7476 1633.3055,-567.0198"/>
<polygon fill="#c0c0c0" stroke="#c0c0c0" stroke-width="2" points="1635.4105,-569.8176 1641.5216,-561.1628 1631.3471,-564.1176 1635.4105,-569.8176"/>
</g>
<!-- 22 -->
<g id="node23" class="node">
<title>22</title>
<path fill="none" stroke="#56c1d8" stroke-width="2" d="M1788.5,-561C1788.5,-561 1741.5,-561 1741.5,-561 1735.5,-561 1729.5,-555 1729.5,-549 1729.5,-549 1729.5,-537 1729.5,-537 1729.5,-531 1735.5,-525 1741.5,-525 1741.5,-525 1788.5,-525 1788.5,-525 1794.5,-525 1800.5,-531 1800.5,-537 1800.5,-537 1800.5,-549 1800.5,-549 1800.5,-555 1794.5,-561 1788.5,-561"/>
<text text-anchor="middle" x="1765" y="-540.5" font-family="sans" font-size="10.00" fill="#000000">map_reads</text>
</g>
<!-- 11&#45;&gt;22 -->
<g id="edge43" class="edge">
<title>11&#45;&gt;22</title>
<path fill="none" stroke="#c0c0c0" stroke-width="2" d="M1615.9592,-596.9243C1647.8531,-585.3848 1688.8644,-570.5465 1719.7906,-559.3572"/>
<polygon fill="#c0c0c0" stroke="#c0c0c0" stroke-width="2" points="1721.2402,-562.5548 1729.4528,-555.8613 1718.8586,-555.9724 1721.2402,-562.5548"/>
</g>
<!-- 26 -->
<g id="node27" class="node">
<title>26</title>
<path fill="none" stroke="#56c1d8" stroke-width="2" d="M1886.5,-561C1886.5,-561 1839.5,-561 1839.5,-561 1833.5,-561 1827.5,-555 1827.5,-549 1827.5,-549 1827.5,-537 1827.5,-537 1827.5,-531 1833.5,-525 1839.5,-525 1839.5,-525 1886.5,-525 1886.5,-525 1892.5,-525 1898.5,-531 1898.5,-537 1898.5,-537 1898.5,-549 1898.5,-549 1898.5,-555 1892.5,-561 1886.5,-561"/>
<text text-anchor="middle" x="1863" y="-540.5" font-family="sans" font-size="10.00" fill="#000000">map_reads</text>
</g>
<!-- 11&#45;&gt;26 -->
<g id="edge47" class="edge">
<title>11&#45;&gt;26</title>
<path fill="none" stroke="#c0c0c0" stroke-width="2" d="M1627.0414,-599.121C1630.0674,-598.3912 1633.0663,-597.6803 1636,-597 1712.93,-579.1614 1733.8002,-581.7373 1810,-561 1812.4613,-560.3302 1814.9752,-559.6084 1817.5049,-558.8525"/>
<polygon fill="#c0c0c0" stroke="#c0c0c0" stroke-width="2" points="1818.7611,-562.127 1827.2629,-555.8047 1816.6741,-555.4453 1818.7611,-562.127"/>
</g>
<!-- 30 -->
<g id="node31" class="node">
<title>30</title>
<path fill="none" stroke="#56c1d8" stroke-width="2" d="M1507.5,-561C1507.5,-561 1460.5,-561 1460.5,-561 1454.5,-561 1448.5,-555 1448.5,-549 1448.5,-549 1448.5,-537 1448.5,-537 1448.5,-531 1454.5,-525 1460.5,-525 1460.5,-525 1507.5,-525 1507.5,-525 1513.5,-525 1519.5,-531 1519.5,-537 1519.5,-537 1519.5,-549 1519.5,-549 1519.5,-555 1513.5,-561 1507.5,-561"/>
<text text-anchor="middle" x="1484" y="-540.5" font-family="sans" font-size="10.00" fill="#000000">map_reads</text>
</g>
<!-- 11&#45;&gt;30 -->
<g id="edge51" class="edge">
<title>11&#45;&gt;30</title>
<path fill="none" stroke="#c0c0c0" stroke-width="2" d="M1545.3079,-596.8314C1535.3052,-588.0485 1523.145,-577.3712 1512.3001,-567.8489"/>
<polygon fill="#c0c0c0" stroke="#c0c0c0" stroke-width="2" points="1514.5092,-565.1308 1504.6854,-561.1628 1509.8906,-570.3909 1514.5092,-565.1308"/>
</g>
<!-- 34 -->
<g id="node35" class="node">
<title>34</title>
<path fill="none" stroke="#56c1d8" stroke-width="2" d="M1984.5,-561C1984.5,-561 1937.5,-561 1937.5,-561 1931.5,-561 1925.5,-555 1925.5,-549 1925.5,-549 1925.5,-537 1925.5,-537 1925.5,-531 1931.5,-525 1937.5,-525 1937.5,-525 1984.5,-525 1984.5,-525 1990.5,-525 1996.5,-531 1996.5,-537 1996.5,-537 1996.5,-549 1996.5,-549 1996.5,-555 1990.5,-561 1984.5,-561"/>
<text text-anchor="middle" x="1961" y="-540.5" font-family="sans" font-size="10.00" fill="#000000">map_reads</text>
</g>
<!-- 11&#45;&gt;34 -->
<g id="edge55" class="edge">
<title>11&#45;&gt;34</title>
<path fill="none" stroke="#c0c0c0" stroke-width="2" d="M1627.3654,-598.7759C1630.2776,-598.1459 1633.1668,-597.5497 1636,-597 1755.7107,-573.7737 1789.254,-588.7402 1908,-561 1910.484,-560.4197 1913.0158,-559.7692 1915.5596,-559.0689"/>
<polygon fill="#c0c0c0" stroke="#c0c0c0" stroke-width="2" points="1916.7615,-562.3632 1925.3539,-556.1647 1914.7714,-555.652 1916.7615,-562.3632"/>
</g>
<!-- 38 -->
<g id="node39" class="node">
<title>38</title>
<path fill="none" stroke="#56c1d8" stroke-width="2" d="M1596.5,-561C1596.5,-561 1549.5,-561 1549.5,-561 1543.5,-561 1537.5,-555 1537.5,-549 1537.5,-549 1537.5,-537 1537.5,-537 1537.5,-531 1543.5,-525 1549.5,-525 1549.5,-525 1596.5,-525 1596.5,-525 1602.5,-525 1608.5,-531 1608.5,-537 1608.5,-537 1608.5,-549 1608.5,-549 1608.5,-555 1602.5,-561 1596.5,-561"/>
<text text-anchor="middle" x="1573" y="-540.5" font-family="sans" font-size="10.00" fill="#000000">map_reads</text>
</g>
<!-- 11&#45;&gt;38 -->
<g id="edge59" class="edge">
<title>11&#45;&gt;38</title>
<path fill="none" stroke="#c0c0c0" stroke-width="2" d="M1567.7664,-596.8314C1568.515,-589.131 1569.4053,-579.9743 1570.2373,-571.4166"/>
<polygon fill="#c0c0c0" stroke="#c0c0c0" stroke-width="2" points="1573.7256,-571.7051 1571.2098,-561.4133 1566.7585,-571.0276 1573.7256,-571.7051"/>
</g>
<!-- 12 -->
<g id="node13" class="node">
<title>12</title>
<path fill="none" stroke="#d8d356" stroke-width="2" d="M1274,-705C1274,-705 1174,-705 1174,-705 1168,-705 1162,-699 1162,-693 1162,-693 1162,-681 1162,-681 1162,-675 1168,-669 1174,-669 1174,-669 1274,-669 1274,-669 1280,-669 1286,-675 1286,-681 1286,-681 1286,-693 1286,-693 1286,-699 1280,-705 1274,-705"/>
<text text-anchor="middle" x="1224" y="-684.5" font-family="sans" font-size="10.00" fill="#000000">correct_transcriptome</text>
</g>
<!-- 12&#45;&gt;11 -->
<g id="edge34" class="edge">
<title>12&#45;&gt;11</title>
<path fill="none" stroke="#c0c0c0" stroke-width="2" d="M1286.3304,-673.8778C1345.1883,-661.4867 1433.3745,-642.9212 1494.9366,-629.9607"/>
<polygon fill="#c0c0c0" stroke="#c0c0c0" stroke-width="2" points="1495.8964,-633.3355 1504.9609,-627.8503 1494.4543,-626.4856 1495.8964,-633.3355"/>
</g>
<!-- 12&#45;&gt;58 -->
<g id="edge80" class="edge">
<title>12&#45;&gt;58</title>
<path fill="none" stroke="#c0c0c0" stroke-width="2" d="M1195.8597,-668.9516C1180.704,-658.8791 1161.9067,-645.8093 1146,-633 1058.492,-562.5315 963.6979,-468.8975 919.843,-424.472"/>
<polygon fill="#c0c0c0" stroke="#c0c0c0" stroke-width="2" points="922.2637,-421.9419 912.7545,-417.2699 917.2747,-426.8521 922.2637,-421.9419"/>
</g>
<!-- 59 -->
<g id="node60" class="node">
<title>59</title>
<path fill="none" stroke="#d6d856" stroke-width="2" d="M1015,-417C1015,-417 963,-417 963,-417 957,-417 951,-411 951,-405 951,-405 951,-393 951,-393 951,-387 957,-381 963,-381 963,-381 1015,-381 1015,-381 1021,-381 1027,-387 1027,-393 1027,-393 1027,-405 1027,-405 1027,-411 1021,-417 1015,-417"/>
<text text-anchor="middle" x="989" y="-396.5" font-family="sans" font-size="10.00" fill="#000000">count_reads</text>
</g>
<!-- 12&#45;&gt;59 -->
<g id="edge82" class="edge">
<title>12&#45;&gt;59</title>
<path fill="none" stroke="#c0c0c0" stroke-width="2" d="M1208.1254,-668.6066C1199.2054,-658.2111 1187.9072,-644.9431 1178,-633 1115.9546,-558.2044 1044.242,-468.4994 1009.7033,-425.085"/>
<polygon fill="#c0c0c0" stroke="#c0c0c0" stroke-width="2" points="1012.268,-422.6869 1003.305,-417.0375 1006.7887,-427.0432 1012.268,-422.6869"/>
</g>
<!-- 60 -->
<g id="node61" class="node">
<title>60</title>
<path fill="none" stroke="#d6d856" stroke-width="2" d="M1297,-417C1297,-417 1245,-417 1245,-417 1239,-417 1233,-411 1233,-405 1233,-405 1233,-393 1233,-393 1233,-387 1239,-381 1245,-381 1245,-381 1297,-381 1297,-381 1303,-381 1309,-387 1309,-393 1309,-393 1309,-405 1309,-405 1309,-411 1303,-417 1297,-417"/>
<text text-anchor="middle" x="1271" y="-396.5" font-family="sans" font-size="10.00" fill="#000000">count_reads</text>
</g>
<!-- 12&#45;&gt;60 -->
<g id="edge84" class="edge">
<title>12&#45;&gt;60</title>
<path fill="none" stroke="#c0c0c0" stroke-width="2" d="M1226.9401,-668.9843C1234.8861,-620.2939 1256.8354,-485.7961 1266.4212,-427.0573"/>
<polygon fill="#c0c0c0" stroke="#c0c0c0" stroke-width="2" points="1269.9046,-427.4421 1268.0611,-417.0089 1262.996,-426.3146 1269.9046,-427.4421"/>
</g>
<!-- 61 -->
<g id="node62" class="node">
<title>61</title>
<path fill="none" stroke="#d6d856" stroke-width="2" d="M1109,-417C1109,-417 1057,-417 1057,-417 1051,-417 1045,-411 1045,-405 1045,-405 1045,-393 1045,-393 1045,-387 1051,-381 1057,-381 1057,-381 1109,-381 1109,-381 1115,-381 1121,-387 1121,-393 1121,-393 1121,-405 1121,-405 1121,-411 1115,-417 1109,-417"/>
<text text-anchor="middle" x="1083" y="-396.5" font-family="sans" font-size="10.00" fill="#000000">count_reads</text>
</g>
<!-- 12&#45;&gt;61 -->
<g id="edge86" class="edge">
<title>12&#45;&gt;61</title>
<path fill="none" stroke="#c0c0c0" stroke-width="2" d="M1215.1798,-668.9843C1191.2429,-620.0919 1124.9468,-484.6785 1096.3803,-426.33"/>
<polygon fill="#c0c0c0" stroke="#c0c0c0" stroke-width="2" points="1099.3575,-424.4513 1091.8168,-417.0089 1093.0705,-427.5293 1099.3575,-424.4513"/>
</g>
<!-- 62 -->
<g id="node63" class="node">
<title>62</title>
<path fill="none" stroke="#d6d856" stroke-width="2" d="M1391,-417C1391,-417 1339,-417 1339,-417 1333,-417 1327,-411 1327,-405 1327,-405 1327,-393 1327,-393 1327,-387 1333,-381 1339,-381 1339,-381 1391,-381 1391,-381 1397,-381 1403,-387 1403,-393 1403,-393 1403,-405 1403,-405 1403,-411 1397,-417 1391,-417"/>
<text text-anchor="middle" x="1365" y="-396.5" font-family="sans" font-size="10.00" fill="#000000">count_reads</text>
</g>
<!-- 12&#45;&gt;62 -->
<g id="edge88" class="edge">
<title>12&#45;&gt;62</title>
<path fill="none" stroke="#c0c0c0" stroke-width="2" d="M1232.8202,-668.9843C1256.7571,-620.0919 1323.0532,-484.6785 1351.6197,-426.33"/>
<polygon fill="#c0c0c0" stroke="#c0c0c0" stroke-width="2" points="1354.9295,-427.5293 1356.1832,-417.0089 1348.6425,-424.4513 1354.9295,-427.5293"/>
</g>
<!-- 63 -->
<g id="node64" class="node">
<title>63</title>
<path fill="none" stroke="#d6d856" stroke-width="2" d="M1203,-417C1203,-417 1151,-417 1151,-417 1145,-417 1139,-411 1139,-405 1139,-405 1139,-393 1139,-393 1139,-387 1145,-381 1151,-381 1151,-381 1203,-381 1203,-381 1209,-381 1215,-387 1215,-393 1215,-393 1215,-405 1215,-405 1215,-411 1209,-417 1203,-417"/>
<text text-anchor="middle" x="1177" y="-396.5" font-family="sans" font-size="10.00" fill="#000000">count_reads</text>
</g>
<!-- 12&#45;&gt;63 -->
<g id="edge90" class="edge">
<title>12&#45;&gt;63</title>
<path fill="none" stroke="#c0c0c0" stroke-width="2" d="M1221.0599,-668.9843C1213.1139,-620.2939 1191.1646,-485.7961 1181.5788,-427.0573"/>
<polygon fill="#c0c0c0" stroke="#c0c0c0" stroke-width="2" points="1185.004,-426.3146 1179.9389,-417.0089 1178.0954,-427.4421 1185.004,-426.3146"/>
</g>
<!-- 13 -->
<g id="node14" class="node">
<title>13</title>
<path fill="none" stroke="#56d88a" stroke-width="2" d="M1588.5,-777C1588.5,-777 1467.5,-777 1467.5,-777 1461.5,-777 1455.5,-771 1455.5,-765 1455.5,-765 1455.5,-753 1455.5,-753 1455.5,-747 1461.5,-741 1467.5,-741 1467.5,-741 1588.5,-741 1588.5,-741 1594.5,-741 1600.5,-747 1600.5,-753 1600.5,-753 1600.5,-765 1600.5,-765 1600.5,-771 1594.5,-777 1588.5,-777"/>
<text text-anchor="middle" x="1528" y="-756.5" font-family="sans" font-size="10.00" fill="#000000">genome_to_transcriptome</text>
</g>
<!-- 13&#45;&gt;12 -->
<g id="edge35" class="edge">
<title>13&#45;&gt;12</title>
<path fill="none" stroke="#c0c0c0" stroke-width="2" d="M1455.1844,-741.7542C1407.0531,-730.3547 1344.225,-715.4743 1296.2163,-704.1039"/>
<polygon fill="#c0c0c0" stroke="#c0c0c0" stroke-width="2" points="1296.7448,-700.6323 1286.2073,-701.7333 1295.1314,-707.4438 1296.7448,-700.6323"/>
</g>
<!-- 14 -->
<g id="node15" class="node">
<title>14</title>
<path fill="none" stroke="#56d8a2" stroke-width="2" d="M2397.5,-849C2397.5,-849 2344.5,-849 2344.5,-849 2338.5,-849 2332.5,-843 2332.5,-837 2332.5,-837 2332.5,-825 2332.5,-825 2332.5,-819 2338.5,-813 2344.5,-813 2344.5,-813 2397.5,-813 2397.5,-813 2403.5,-813 2409.5,-819 2409.5,-825 2409.5,-825 2409.5,-837 2409.5,-837 2409.5,-843 2403.5,-849 2397.5,-849"/>
<text text-anchor="middle" x="2371" y="-828.5" font-family="sans" font-size="10.00" fill="#000000">get_genome</text>
</g>
<!-- 14&#45;&gt;13 -->
<g id="edge36" class="edge">
<title>14&#45;&gt;13</title>
<path fill="none" stroke="#c0c0c0" stroke-width="2" d="M2332.3097,-827.6955C2203.7648,-816.7166 1789.007,-781.2924 1610.718,-766.0649"/>
<polygon fill="#c0c0c0" stroke="#c0c0c0" stroke-width="2" points="1610.8676,-762.565 1600.606,-765.2012 1610.2718,-769.5396 1610.8676,-762.565"/>
</g>
<!-- 71 -->
<g id="node72" class="node">
<title>71</title>
<path fill="none" stroke="#68d856" stroke-width="2" d="M2253.5,-417C2253.5,-417 2196.5,-417 2196.5,-417 2190.5,-417 2184.5,-411 2184.5,-405 2184.5,-405 2184.5,-393 2184.5,-393 2184.5,-387 2190.5,-381 2196.5,-381 2196.5,-381 2253.5,-381 2253.5,-381 2259.5,-381 2265.5,-387 2265.5,-393 2265.5,-393 2265.5,-405 2265.5,-405 2265.5,-411 2259.5,-417 2253.5,-417"/>
<text text-anchor="middle" x="2225" y="-396.5" font-family="sans" font-size="10.00" fill="#000000">flair_collapse</text>
</g>
<!-- 14&#45;&gt;71 -->
<g id="edge105" class="edge">
<title>14&#45;&gt;71</title>
<path fill="none" stroke="#c0c0c0" stroke-width="2" d="M2409.851,-822.2935C2469.0397,-806.4736 2575,-766.9833 2575,-687 2575,-687 2575,-687 2575,-543 2575,-401.6322 2419.0796,-460.9726 2275.4966,-416.9481"/>
<polygon fill="#c0c0c0" stroke="#c0c0c0" stroke-width="2" points="2276.2129,-413.501 2265.6209,-413.746 2274.0539,-420.1597 2276.2129,-413.501"/>
</g>
<!-- 72 -->
<g id="node73" class="node">
<title>72</title>
<path fill="none" stroke="#59d856" stroke-width="2" d="M2315,-489C2315,-489 2265,-489 2265,-489 2259,-489 2253,-483 2253,-477 2253,-477 2253,-465 2253,-465 2253,-459 2259,-453 2265,-453 2265,-453 2315,-453 2315,-453 2321,-453 2327,-459 2327,-465 2327,-465 2327,-477 2327,-477 2327,-483 2321,-489 2315,-489"/>
<text text-anchor="middle" x="2290" y="-468.5" font-family="sans" font-size="10.00" fill="#000000">flair_correct</text>
</g>
<!-- 14&#45;&gt;72 -->
<g id="edge113" class="edge">
<title>14&#45;&gt;72</title>
<path fill="none" stroke="#c0c0c0" stroke-width="2" d="M2398.0625,-812.7116C2452.5102,-773.5727 2566.1431,-678.6108 2518,-597 2479.0618,-530.993 2391.7747,-497.1631 2337.2061,-481.8333"/>
<polygon fill="#c0c0c0" stroke="#c0c0c0" stroke-width="2" points="2337.9839,-478.4179 2327.4167,-479.1826 2336.1543,-485.1746 2337.9839,-478.4179"/>
</g>
<!-- 73 -->
<g id="node74" class="node">
<title>73</title>
<path fill="none" stroke="#78d856" stroke-width="2" d="M2306.5,-561C2306.5,-561 2265.5,-561 2265.5,-561 2259.5,-561 2253.5,-555 2253.5,-549 2253.5,-549 2253.5,-537 2253.5,-537 2253.5,-531 2259.5,-525 2265.5,-525 2265.5,-525 2306.5,-525 2306.5,-525 2312.5,-525 2318.5,-531 2318.5,-537 2318.5,-537 2318.5,-549 2318.5,-549 2318.5,-555 2312.5,-561 2306.5,-561"/>
<text text-anchor="middle" x="2286" y="-540.5" font-family="sans" font-size="10.00" fill="#000000">flair_align</text>
</g>
<!-- 14&#45;&gt;73 -->
<g id="edge116" class="edge">
<title>14&#45;&gt;73</title>
<path fill="none" stroke="#c0c0c0" stroke-width="2" d="M2374.0603,-812.9787C2380.1129,-771.9169 2389.9575,-669.3711 2352,-597 2345.9229,-585.4132 2336.1762,-575.3909 2326.0177,-567.2338"/>
<polygon fill="#c0c0c0" stroke="#c0c0c0" stroke-width="2" points="2327.9431,-564.3027 2317.8447,-561.0975 2323.7402,-569.9006 2327.9431,-564.3027"/>
</g>
<!-- 74 -->
<g id="node75" class="node">
<title>74</title>
<path fill="none" stroke="#d8ac56" stroke-width="2" d="M2297,-705C2297,-705 2179,-705 2179,-705 2173,-705 2167,-699 2167,-693 2167,-693 2167,-681 2167,-681 2167,-675 2173,-669 2179,-669 2179,-669 2297,-669 2297,-669 2303,-669 2309,-675 2309,-681 2309,-681 2309,-693 2309,-693 2309,-699 2303,-705 2297,-705"/>
<text text-anchor="middle" x="2238" y="-684.5" font-family="sans" font-size="10.00" fill="#000000">build_flair_genome_index</text>
</g>
<!-- 14&#45;&gt;74 -->
<g id="edge124" class="edge">
<title>14&#45;&gt;74</title>
<path fill="none" stroke="#c0c0c0" stroke-width="2" d="M2354.1555,-812.7623C2330.7709,-787.4436 2288.3536,-741.5182 2261.76,-712.7251"/>
<polygon fill="#c0c0c0" stroke="#c0c0c0" stroke-width="2" points="2264.0639,-710.061 2254.7078,-705.0896 2258.9216,-714.8105 2264.0639,-710.061"/>
</g>
<!-- 15 -->
<g id="node16" class="node">
<title>15</title>
<path fill="none" stroke="#8fd856" stroke-width="2" d="M2426,-921C2426,-921 2316,-921 2316,-921 2310,-921 2304,-915 2304,-909 2304,-909 2304,-897 2304,-897 2304,-891 2310,-885 2316,-885 2316,-885 2426,-885 2426,-885 2432,-885 2438,-891 2438,-897 2438,-897 2438,-909 2438,-909 2438,-915 2432,-921 2426,-921"/>
<text text-anchor="middle" x="2371" y="-900.5" font-family="sans" font-size="10.00" fill="#000000">download_ncbi_genome</text>
</g>
<!-- 15&#45;&gt;14 -->
<g id="edge38" class="edge">
<title>15&#45;&gt;14</title>
<path fill="none" stroke="#c0c0c0" stroke-width="2" d="M2371,-884.8314C2371,-877.131 2371,-867.9743 2371,-859.4166"/>
<polygon fill="#c0c0c0" stroke="#c0c0c0" stroke-width="2" points="2374.5001,-859.4132 2371,-849.4133 2367.5001,-859.4133 2374.5001,-859.4132"/>
</g>
<!-- 16 -->
<g id="node17" class="node">
<title>16</title>
<path fill="none" stroke="#567bd8" stroke-width="2" d="M1562,-849C1562,-849 1494,-849 1494,-849 1488,-849 1482,-843 1482,-837 1482,-837 1482,-825 1482,-825 1482,-819 1488,-813 1494,-813 1494,-813 1562,-813 1562,-813 1568,-813 1574,-819 1574,-825 1574,-825 1574,-837 1574,-837 1574,-843 1568,-849 1562,-849"/>
<text text-anchor="middle" x="1528" y="-828.5" font-family="sans" font-size="10.00" fill="#000000">standardize_gff</text>
</g>
<!-- 16&#45;&gt;13 -->
<g id="edge37" class="edge">
<title>16&#45;&gt;13</title>
<path fill="none" stroke="#c0c0c0" stroke-width="2" d="M1528,-812.8314C1528,-805.131 1528,-795.9743 1528,-787.4166"/>
<polygon fill="#c0c0c0" stroke="#c0c0c0" stroke-width="2" points="1531.5001,-787.4132 1528,-777.4133 1524.5001,-787.4133 1531.5001,-787.4132"/>
</g>
<!-- 64 -->
<g id="node65" class="node">
<title>64</title>
<path fill="none" stroke="#5663d8" stroke-width="2" d="M1040,-270.5C1040,-270.5 948,-270.5 948,-270.5 942,-270.5 936,-264.5 936,-258.5 936,-258.5 936,-246.5 936,-246.5 936,-240.5 942,-234.5 948,-234.5 948,-234.5 1040,-234.5 1040,-234.5 1046,-234.5 1052,-240.5 1052,-246.5 1052,-246.5 1052,-258.5 1052,-258.5 1052,-264.5 1046,-270.5 1040,-270.5"/>
<text text-anchor="middle" x="994" y="-250" font-family="sans" font-size="10.00" fill="#000000">transcriptid_to_gene</text>
</g>
<!-- 16&#45;&gt;64 -->
<g id="edge92" class="edge">
<title>16&#45;&gt;64</title>
<path fill="none" stroke="#c0c0c0" stroke-width="2" d="M1481.8663,-826.4243C1326.0521,-810.3588 829,-753.8686 829,-687 829,-687 829,-687 829,-471 829,-430.1184 827.3838,-416.3027 848,-381 874.1042,-336.2998 921.2998,-299.0554 954.9655,-276.3667"/>
<polygon fill="#c0c0c0" stroke="#c0c0c0" stroke-width="2" points="957.2253,-279.0688 963.6419,-270.638 953.3683,-273.2272 957.2253,-279.0688"/>
</g>
<!-- 75 -->
<g id="node76" class="node">
<title>75</title>
<path fill="none" stroke="#56d8c9" stroke-width="2" d="M2146.5,-561C2146.5,-561 2107.5,-561 2107.5,-561 2101.5,-561 2095.5,-555 2095.5,-549 2095.5,-549 2095.5,-537 2095.5,-537 2095.5,-531 2101.5,-525 2107.5,-525 2107.5,-525 2146.5,-525 2146.5,-525 2152.5,-525 2158.5,-531 2158.5,-537 2158.5,-537 2158.5,-549 2158.5,-549 2158.5,-555 2152.5,-561 2146.5,-561"/>
<text text-anchor="middle" x="2127" y="-540.5" font-family="sans" font-size="10.00" fill="#000000">gff_to_gtf</text>
</g>
<!-- 16&#45;&gt;75 -->
<g id="edge125" class="edge">
<title>16&#45;&gt;75</title>
<path fill="none" stroke="#c0c0c0" stroke-width="2" d="M1569.0767,-812.9602C1638.7205,-781.4575 1783.0185,-712.174 1892,-633 1910.8218,-619.3261 1909.5667,-608.1228 1930,-597 1989.4574,-564.6345 2013.235,-580.703 2078,-561 2080.5537,-560.2231 2083.1684,-559.3867 2085.7963,-558.5148"/>
<polygon fill="#c0c0c0" stroke="#c0c0c0" stroke-width="2" points="2086.9704,-561.8122 2095.2842,-555.2448 2084.6895,-555.1942 2086.9704,-561.8122"/>
</g>
<!-- 17 -->
<g id="node18" class="node">
<title>17</title>
<path fill="none" stroke="#56d89a" stroke-width="2" d="M1561,-921C1561,-921 1495,-921 1495,-921 1489,-921 1483,-915 1483,-909 1483,-909 1483,-897 1483,-897 1483,-891 1489,-885 1495,-885 1495,-885 1561,-885 1561,-885 1567,-885 1573,-891 1573,-897 1573,-897 1573,-909 1573,-909 1573,-915 1567,-921 1561,-921"/>
<text text-anchor="middle" x="1528" y="-900.5" font-family="sans" font-size="10.00" fill="#000000">get_annotation</text>
</g>
<!-- 17&#45;&gt;16 -->
<g id="edge39" class="edge">
<title>17&#45;&gt;16</title>
<path fill="none" stroke="#c0c0c0" stroke-width="2" d="M1528,-884.8314C1528,-877.131 1528,-867.9743 1528,-859.4166"/>
<polygon fill="#c0c0c0" stroke="#c0c0c0" stroke-width="2" points="1531.5001,-859.4132 1528,-849.4133 1524.5001,-859.4133 1531.5001,-859.4132"/>
</g>
<!-- 18 -->
<g id="node19" class="node">
<title>18</title>
<path fill="none" stroke="#97d856" stroke-width="2" d="M1589.5,-993C1589.5,-993 1466.5,-993 1466.5,-993 1460.5,-993 1454.5,-987 1454.5,-981 1454.5,-981 1454.5,-969 1454.5,-969 1454.5,-963 1460.5,-957 1466.5,-957 1466.5,-957 1589.5,-957 1589.5,-957 1595.5,-957 1601.5,-963 1601.5,-969 1601.5,-969 1601.5,-981 1601.5,-981 1601.5,-987 1595.5,-993 1589.5,-993"/>
<text text-anchor="middle" x="1528" y="-972.5" font-family="sans" font-size="10.00" fill="#000000">download_ncbi_annotation</text>
</g>
<!-- 18&#45;&gt;17 -->
<g id="edge40" class="edge">
<title>18&#45;&gt;17</title>
<path fill="none" stroke="#c0c0c0" stroke-width="2" d="M1528,-956.8314C1528,-949.131 1528,-939.9743 1528,-931.4166"/>
<polygon fill="#c0c0c0" stroke="#c0c0c0" stroke-width="2" points="1531.5001,-931.4132 1528,-921.4133 1524.5001,-931.4133 1531.5001,-931.4132"/>
</g>
<!-- 19 -->
<g id="node20" class="node">
<title>19</title>
<path fill="none" stroke="#80d856" stroke-width="2" d="M2037,-633C2037,-633 1951,-633 1951,-633 1945,-633 1939,-627 1939,-621 1939,-621 1939,-609 1939,-609 1939,-603 1945,-597 1951,-597 1951,-597 2037,-597 2037,-597 2043,-597 2049,-603 2049,-609 2049,-609 2049,-621 2049,-621 2049,-627 2043,-633 2037,-633"/>
<text text-anchor="middle" x="1994" y="-618" font-family="sans" font-size="10.00" fill="#000000">filter_reads</text>
<text text-anchor="middle" x="1994" y="-607" font-family="sans" font-size="10.00" fill="#000000">sample: barcode10</text>
</g>
<!-- 19&#45;&gt;10 -->
<g id="edge33" class="edge">
<title>19&#45;&gt;10</title>
<path fill="none" stroke="#c0c0c0" stroke-width="2" d="M1938.9657,-604.9669C1871.5534,-592.5282 1761.3446,-571.6685 1721,-561 1718.0846,-560.2291 1715.097,-559.3862 1712.0957,-558.4994"/>
<polygon fill="#c0c0c0" stroke="#c0c0c0" stroke-width="2" points="1713.123,-555.1536 1702.5357,-555.5523 1711.0608,-561.843 1713.123,-555.1536"/>
</g>
<!-- 19&#45;&gt;71 -->
<g id="edge107" class="edge">
<title>19&#45;&gt;71</title>
<path fill="none" stroke="#c0c0c0" stroke-width="2" d="M2049.4645,-599.0874C2098.6875,-584.7642 2163.5152,-565.3201 2168,-561 2205.2658,-525.1026 2218.201,-463.4255 2222.6675,-427.4191"/>
<polygon fill="#c0c0c0" stroke="#c0c0c0" stroke-width="2" points="2226.1852,-427.4485 2223.7993,-417.1258 2219.2272,-426.6833 2226.1852,-427.4485"/>
</g>
<!-- 19&#45;&gt;73 -->
<g id="edge117" class="edge">
<title>19&#45;&gt;73</title>
<path fill="none" stroke="#c0c0c0" stroke-width="2" d="M2049.1186,-599.3409C2052.1196,-598.5373 2055.0948,-597.7522 2058,-597 2122.4351,-580.3161 2197.6454,-562.8991 2243.5333,-552.5021"/>
<polygon fill="#c0c0c0" stroke="#c0c0c0" stroke-width="2" points="2244.4418,-555.8851 2253.4243,-550.2669 2242.8988,-549.0573 2244.4418,-555.8851"/>
</g>
<!-- 20 -->
<g id="node21" class="node">
<title>20</title>
<path fill="none" stroke="#d89556" stroke-width="2" d="M1854,-196C1854,-196 1810,-196 1810,-196 1804,-196 1798,-190 1798,-184 1798,-184 1798,-172 1798,-172 1798,-166 1804,-160 1810,-160 1810,-160 1854,-160 1854,-160 1860,-160 1866,-166 1866,-172 1866,-172 1866,-184 1866,-184 1866,-190 1860,-196 1854,-196"/>
<text text-anchor="middle" x="1832" y="-175.5" font-family="sans" font-size="10.00" fill="#000000">bam_stats</text>
</g>
<!-- 20&#45;&gt;0 -->
<g id="edge9" class="edge">
<title>20&#45;&gt;0</title>
<path fill="none" stroke="#c0c0c0" stroke-width="2" d="M1797.7342,-163.6514C1794.7802,-162.4159 1791.8376,-161.1856 1789,-160 1695.2479,-120.8273 1675.6029,-100.2424 1578,-72 1478.7933,-43.2935 1357.4847,-27.9223 1297.4078,-21.5711"/>
<polygon fill="#c0c0c0" stroke="#c0c0c0" stroke-width="2" points="1297.5735,-18.0697 1287.2668,-20.5237 1296.8542,-25.0326 1297.5735,-18.0697"/>
</g>
<!-- 21 -->
<g id="node22" class="node">
<title>21</title>
<path fill="none" stroke="#5692d8" stroke-width="2" d="M1793,-489C1793,-489 1737,-489 1737,-489 1731,-489 1725,-483 1725,-477 1725,-477 1725,-465 1725,-465 1725,-459 1731,-453 1737,-453 1737,-453 1793,-453 1793,-453 1799,-453 1805,-459 1805,-465 1805,-465 1805,-477 1805,-477 1805,-483 1799,-489 1793,-489"/>
<text text-anchor="middle" x="1765" y="-468.5" font-family="sans" font-size="10.00" fill="#000000">sam_to_bam</text>
</g>
<!-- 21&#45;&gt;20 -->
<g id="edge41" class="edge">
<title>21&#45;&gt;20</title>
<path fill="none" stroke="#c0c0c0" stroke-width="2" d="M1805.2645,-456.3126C1824.6533,-447.4887 1846.9099,-434.5279 1862,-417 1884.2977,-391.1 1882.9022,-378.6276 1889,-345 1898.2932,-293.7509 1870.1023,-236.9162 1850.1166,-204.5189"/>
<polygon fill="#c0c0c0" stroke="#c0c0c0" stroke-width="2" points="1853.0539,-202.6154 1844.7352,-196.0542 1847.1466,-206.371 1853.0539,-202.6154"/>
</g>
<!-- 45 -->
<g id="node46" class="node">
<title>45</title>
<path fill="none" stroke="#d88556" stroke-width="2" d="M1841,-417C1841,-417 1803,-417 1803,-417 1797,-417 1791,-411 1791,-405 1791,-405 1791,-393 1791,-393 1791,-387 1797,-381 1803,-381 1803,-381 1841,-381 1841,-381 1847,-381 1853,-387 1853,-393 1853,-393 1853,-405 1853,-405 1853,-411 1847,-417 1841,-417"/>
<text text-anchor="middle" x="1822" y="-396.5" font-family="sans" font-size="10.00" fill="#000000">bam_sort</text>
</g>
<!-- 21&#45;&gt;45 -->
<g id="edge66" class="edge">
<title>21&#45;&gt;45</title>
<path fill="none" stroke="#c0c0c0" stroke-width="2" d="M1779.3835,-452.8314C1785.9486,-444.5386 1793.8507,-434.557 1801.0578,-425.4533"/>
<polygon fill="#c0c0c0" stroke="#c0c0c0" stroke-width="2" points="1803.9599,-427.4262 1807.4228,-417.4133 1798.4716,-423.0813 1803.9599,-427.4262"/>
</g>
<!-- 21&#45;&gt;59 -->
<g id="edge81" class="edge">
<title>21&#45;&gt;59</title>
<path fill="none" stroke="#c0c0c0" stroke-width="2" d="M1724.9018,-455.1892C1721.9182,-454.3468 1718.9296,-453.6014 1716,-453 1422.866,-392.8252 1334.0311,-477.9359 1037.3667,-416.8767"/>
<polygon fill="#c0c0c0" stroke="#c0c0c0" stroke-width="2" points="1037.6827,-413.3668 1027.1771,-414.7391 1036.2455,-420.2177 1037.6827,-413.3668"/>
</g>
<!-- 22&#45;&gt;21 -->
<g id="edge42" class="edge">
<title>22&#45;&gt;21</title>
<path fill="none" stroke="#c0c0c0" stroke-width="2" d="M1765,-524.8314C1765,-517.131 1765,-507.9743 1765,-499.4166"/>
<polygon fill="#c0c0c0" stroke="#c0c0c0" stroke-width="2" points="1768.5001,-499.4132 1765,-489.4133 1761.5001,-499.4133 1768.5001,-499.4132"/>
</g>
<!-- 23 -->
<g id="node24" class="node">
<title>23</title>
<path fill="none" stroke="#80d856" stroke-width="2" d="M2165,-633C2165,-633 2079,-633 2079,-633 2073,-633 2067,-627 2067,-621 2067,-621 2067,-609 2067,-609 2067,-603 2073,-597 2079,-597 2079,-597 2165,-597 2165,-597 2171,-597 2177,-603 2177,-609 2177,-609 2177,-621 2177,-621 2177,-627 2171,-633 2165,-633"/>
<text text-anchor="middle" x="2122" y="-618" font-family="sans" font-size="10.00" fill="#000000">filter_reads</text>
<text text-anchor="middle" x="2122" y="-607" font-family="sans" font-size="10.00" fill="#000000">sample: barcode11</text>
</g>
<!-- 23&#45;&gt;22 -->
<g id="edge44" class="edge">
<title>23&#45;&gt;22</title>
<path fill="none" stroke="#c0c0c0" stroke-width="2" d="M2066.951,-599.0472C2063.932,-598.3194 2060.9339,-597.631 2058,-597 1952.9807,-574.4143 1923.4523,-586.0776 1819,-561 1816.2074,-560.3295 1813.3529,-559.5793 1810.4865,-558.7761"/>
<polygon fill="#c0c0c0" stroke="#c0c0c0" stroke-width="2" points="1811.3512,-555.3817 1800.7681,-555.8798 1809.3519,-562.0901 1811.3512,-555.3817"/>
</g>
<!-- 23&#45;&gt;71 -->
<g id="edge108" class="edge">
<title>23&#45;&gt;71</title>
<path fill="none" stroke="#c0c0c0" stroke-width="2" d="M2161.1393,-596.9741C2175.935,-588.1973 2191.4824,-576.2099 2201,-561 2226.7212,-519.8955 2228.8235,-461.6616 2227.3609,-427.3632"/>
<polygon fill="#c0c0c0" stroke="#c0c0c0" stroke-width="2" points="2230.841,-426.9086 2226.7862,-417.1204 2223.852,-427.3008 2230.841,-426.9086"/>
</g>
<!-- 23&#45;&gt;73 -->
<g id="edge118" class="edge">
<title>23&#45;&gt;73</title>
<path fill="none" stroke="#c0c0c0" stroke-width="2" d="M2163.3841,-596.8314C2188.1215,-585.9711 2219.4565,-572.2142 2244.2573,-561.3261"/>
<polygon fill="#c0c0c0" stroke="#c0c0c0" stroke-width="2" points="2245.6656,-564.5303 2253.4151,-557.3056 2242.8516,-558.1208 2245.6656,-564.5303"/>
</g>
<!-- 24 -->
<g id="node25" class="node">
<title>24</title>
<path fill="none" stroke="#d89556" stroke-width="2" d="M1966,-270.5C1966,-270.5 1922,-270.5 1922,-270.5 1916,-270.5 1910,-264.5 1910,-258.5 1910,-258.5 1910,-246.5 1910,-246.5 1910,-240.5 1916,-234.5 1922,-234.5 1922,-234.5 1966,-234.5 1966,-234.5 1972,-234.5 1978,-240.5 1978,-246.5 1978,-246.5 1978,-258.5 1978,-258.5 1978,-264.5 1972,-270.5 1966,-270.5"/>
<text text-anchor="middle" x="1944" y="-250" font-family="sans" font-size="10.00" fill="#000000">bam_stats</text>
</g>
<!-- 24&#45;&gt;0 -->
<g id="edge10" class="edge">
<title>24&#45;&gt;0</title>
<path fill="none" stroke="#c0c0c0" stroke-width="2" d="M1934.3875,-234.1409C1922.7872,-213.5678 1901.4975,-180.4285 1875,-160 1792.2518,-96.2045 1757.9887,-98.8033 1657,-72 1527.8253,-37.7158 1368.92,-24.4763 1297.676,-20.0042"/>
<polygon fill="#c0c0c0" stroke="#c0c0c0" stroke-width="2" points="1297.6062,-16.4937 1287.413,-19.3832 1297.1833,-23.4809 1297.6062,-16.4937"/>
</g>
<!-- 25 -->
<g id="node26" class="node">
<title>25</title>
<path fill="none" stroke="#5692d8" stroke-width="2" d="M1891,-489C1891,-489 1835,-489 1835,-489 1829,-489 1823,-483 1823,-477 1823,-477 1823,-465 1823,-465 1823,-459 1829,-453 1835,-453 1835,-453 1891,-453 1891,-453 1897,-453 1903,-459 1903,-465 1903,-465 1903,-477 1903,-477 1903,-483 1897,-489 1891,-489"/>
<text text-anchor="middle" x="1863" y="-468.5" font-family="sans" font-size="10.00" fill="#000000">sam_to_bam</text>
</g>
<!-- 25&#45;&gt;24 -->
<g id="edge45" class="edge">
<title>25&#45;&gt;24</title>
<path fill="none" stroke="#c0c0c0" stroke-width="2" d="M1890.2513,-452.7826C1901.9511,-443.4891 1914.6079,-431.1545 1922,-417 1944.627,-373.6735 1946.9266,-315.5337 1945.9032,-281.2383"/>
<polygon fill="#c0c0c0" stroke="#c0c0c0" stroke-width="2" points="1949.3895,-280.8357 1945.4757,-270.9903 1942.3956,-281.1275 1949.3895,-280.8357"/>
</g>
<!-- 48 -->
<g id="node49" class="node">
<title>48</title>
<path fill="none" stroke="#d88556" stroke-width="2" d="M2029,-417C2029,-417 1991,-417 1991,-417 1985,-417 1979,-411 1979,-405 1979,-405 1979,-393 1979,-393 1979,-387 1985,-381 1991,-381 1991,-381 2029,-381 2029,-381 2035,-381 2041,-387 2041,-393 2041,-393 2041,-405 2041,-405 2041,-411 2035,-417 2029,-417"/>
<text text-anchor="middle" x="2010" y="-396.5" font-family="sans" font-size="10.00" fill="#000000">bam_sort</text>
</g>
<!-- 25&#45;&gt;48 -->
<g id="edge69" class="edge">
<title>25&#45;&gt;48</title>
<path fill="none" stroke="#c0c0c0" stroke-width="2" d="M1900.0943,-452.8314C1921.379,-442.4062 1948.1131,-429.312 1969.8847,-418.6483"/>
<polygon fill="#c0c0c0" stroke="#c0c0c0" stroke-width="2" points="1971.4402,-421.7838 1978.8812,-414.2418 1968.3611,-415.4973 1971.4402,-421.7838"/>
</g>
<!-- 25&#45;&gt;60 -->
<g id="edge83" class="edge">
<title>25&#45;&gt;60</title>
<path fill="none" stroke="#c0c0c0" stroke-width="2" d="M1822.8881,-455.2544C1819.9077,-454.3967 1816.9236,-453.63 1814,-453 1601.206,-407.144 1535.7186,-463.2901 1319.2787,-416.888"/>
<polygon fill="#c0c0c0" stroke="#c0c0c0" stroke-width="2" points="1319.7088,-413.3992 1309.1911,-414.6751 1318.2088,-420.2366 1319.7088,-413.3992"/>
</g>
<!-- 26&#45;&gt;25 -->
<g id="edge46" class="edge">
<title>26&#45;&gt;25</title>
<path fill="none" stroke="#c0c0c0" stroke-width="2" d="M1863,-524.8314C1863,-517.131 1863,-507.9743 1863,-499.4166"/>
<polygon fill="#c0c0c0" stroke="#c0c0c0" stroke-width="2" points="1866.5001,-499.4132 1863,-489.4133 1859.5001,-499.4133 1866.5001,-499.4132"/>
</g>
<!-- 27 -->
<g id="node28" class="node">
<title>27</title>
<path fill="none" stroke="#80d856" stroke-width="2" d="M2331,-633C2331,-633 2245,-633 2245,-633 2239,-633 2233,-627 2233,-621 2233,-621 2233,-609 2233,-609 2233,-603 2239,-597 2245,-597 2245,-597 2331,-597 2331,-597 2337,-597 2343,-603 2343,-609 2343,-609 2343,-621 2343,-621 2343,-627 2337,-633 2331,-633"/>
<text text-anchor="middle" x="2288" y="-618" font-family="sans" font-size="10.00" fill="#000000">filter_reads</text>
<text text-anchor="middle" x="2288" y="-607" font-family="sans" font-size="10.00" fill="#000000">sample: barcode12</text>
</g>
<!-- 27&#45;&gt;26 -->
<g id="edge48" class="edge">
<title>27&#45;&gt;26</title>
<path fill="none" stroke="#c0c0c0" stroke-width="2" d="M2232.7508,-604.8177C2217.6151,-602.1463 2201.193,-599.3561 2186,-597 2066.8034,-578.5149 2034.5163,-588.1929 1917,-561 1914.2019,-560.3525 1911.3432,-559.6201 1908.4737,-558.8303"/>
<polygon fill="#c0c0c0" stroke="#c0c0c0" stroke-width="2" points="1909.3297,-555.4338 1898.7482,-555.9644 1907.351,-562.1484 1909.3297,-555.4338"/>
</g>
<!-- 27&#45;&gt;71 -->
<g id="edge109" class="edge">
<title>27&#45;&gt;71</title>
<path fill="none" stroke="#c0c0c0" stroke-width="2" d="M2305.1298,-596.9932C2313.4702,-587.1342 2322.7985,-574.2491 2328,-561 2345.5891,-516.1975 2361.5264,-493.805 2336,-453 2328.7372,-441.3901 2301.0607,-427.9136 2275.1633,-417.3278"/>
<polygon fill="#c0c0c0" stroke="#c0c0c0" stroke-width="2" points="2276.3287,-414.0245 2265.7437,-413.5674 2273.7333,-420.5256 2276.3287,-414.0245"/>
</g>
<!-- 27&#45;&gt;73 -->
<g id="edge119" class="edge">
<title>27&#45;&gt;73</title>
<path fill="none" stroke="#c0c0c0" stroke-width="2" d="M2287.4953,-596.8314C2287.2814,-589.131 2287.0271,-579.9743 2286.7894,-571.4166"/>
<polygon fill="#c0c0c0" stroke="#c0c0c0" stroke-width="2" points="2290.2879,-571.3122 2286.5115,-561.4133 2283.2906,-571.5066 2290.2879,-571.3122"/>
</g>
<!-- 28 -->
<g id="node29" class="node">
<title>28</title>
<path fill="none" stroke="#d89556" stroke-width="2" d="M1480,-270.5C1480,-270.5 1436,-270.5 1436,-270.5 1430,-270.5 1424,-264.5 1424,-258.5 1424,-258.5 1424,-246.5 1424,-246.5 1424,-240.5 1430,-234.5 1436,-234.5 1436,-234.5 1480,-234.5 1480,-234.5 1486,-234.5 1492,-240.5 1492,-246.5 1492,-246.5 1492,-258.5 1492,-258.5 1492,-264.5 1486,-270.5 1480,-270.5"/>
<text text-anchor="middle" x="1458" y="-250" font-family="sans" font-size="10.00" fill="#000000">bam_stats</text>
</g>
<!-- 28&#45;&gt;0 -->
<g id="edge11" class="edge">
<title>28&#45;&gt;0</title>
<path fill="none" stroke="#c0c0c0" stroke-width="2" d="M1423.9025,-235.6128C1399.612,-223.079 1369.6299,-206.421 1360,-196 1318.5794,-151.1762 1332.7313,-124.1341 1301,-72 1295.3084,-62.6488 1288.3412,-52.9653 1281.7764,-44.425"/>
<polygon fill="#c0c0c0" stroke="#c0c0c0" stroke-width="2" points="1284.3385,-42.0208 1275.4078,-36.3205 1278.8345,-46.3459 1284.3385,-42.0208"/>
</g>
<!-- 29 -->
<g id="node30" class="node">
<title>29</title>
<path fill="none" stroke="#5692d8" stroke-width="2" d="M1490,-489C1490,-489 1434,-489 1434,-489 1428,-489 1422,-483 1422,-477 1422,-477 1422,-465 1422,-465 1422,-459 1428,-453 1434,-453 1434,-453 1490,-453 1490,-453 1496,-453 1502,-459 1502,-465 1502,-465 1502,-477 1502,-477 1502,-483 1496,-489 1490,-489"/>
<text text-anchor="middle" x="1462" y="-468.5" font-family="sans" font-size="10.00" fill="#000000">sam_to_bam</text>
</g>
<!-- 29&#45;&gt;28 -->
<g id="edge49" class="edge">
<title>29&#45;&gt;28</title>
<path fill="none" stroke="#c0c0c0" stroke-width="2" d="M1475.3562,-452.5137C1481.7508,-442.5235 1488.718,-429.6657 1492,-417 1504.3307,-369.4143 1485.6824,-313.1745 1471.5051,-280.3081"/>
<polygon fill="#c0c0c0" stroke="#c0c0c0" stroke-width="2" points="1474.5704,-278.5894 1467.2881,-270.894 1468.182,-281.4511 1474.5704,-278.5894"/>
</g>
<!-- 51 -->
<g id="node52" class="node">
<title>51</title>
<path fill="none" stroke="#d88556" stroke-width="2" d="M1471,-417C1471,-417 1433,-417 1433,-417 1427,-417 1421,-411 1421,-405 1421,-405 1421,-393 1421,-393 1421,-387 1427,-381 1433,-381 1433,-381 1471,-381 1471,-381 1477,-381 1483,-387 1483,-393 1483,-393 1483,-405 1483,-405 1483,-411 1477,-417 1471,-417"/>
<text text-anchor="middle" x="1452" y="-396.5" font-family="sans" font-size="10.00" fill="#000000">bam_sort</text>
</g>
<!-- 29&#45;&gt;51 -->
<g id="edge72" class="edge">
<title>29&#45;&gt;51</title>
<path fill="none" stroke="#c0c0c0" stroke-width="2" d="M1459.4766,-452.8314C1458.4071,-445.131 1457.1353,-435.9743 1455.9468,-427.4166"/>
<polygon fill="#c0c0c0" stroke="#c0c0c0" stroke-width="2" points="1459.3999,-426.8367 1454.5574,-417.4133 1452.4664,-427.7997 1459.3999,-426.8367"/>
</g>
<!-- 29&#45;&gt;61 -->
<g id="edge85" class="edge">
<title>29&#45;&gt;61</title>
<path fill="none" stroke="#c0c0c0" stroke-width="2" d="M1421.8349,-467.1483C1360.6837,-460.7051 1240.6189,-445.7802 1130.9068,-416.9503"/>
<polygon fill="#c0c0c0" stroke="#c0c0c0" stroke-width="2" points="1131.568,-413.5042 1121.0033,-414.3018 1129.7595,-420.2666 1131.568,-413.5042"/>
</g>
<!-- 30&#45;&gt;29 -->
<g id="edge50" class="edge">
<title>30&#45;&gt;29</title>
<path fill="none" stroke="#c0c0c0" stroke-width="2" d="M1478.4485,-524.8314C1476.0697,-517.0463 1473.2362,-507.7729 1470.5967,-499.1347"/>
<polygon fill="#c0c0c0" stroke="#c0c0c0" stroke-width="2" points="1473.8958,-497.954 1467.6263,-489.4133 1467.2013,-499.9996 1473.8958,-497.954"/>
</g>
<!-- 31 -->
<g id="node32" class="node">
<title>31</title>
<path fill="none" stroke="#80d856" stroke-width="2" d="M1743,-633C1743,-633 1657,-633 1657,-633 1651,-633 1645,-627 1645,-621 1645,-621 1645,-609 1645,-609 1645,-603 1651,-597 1657,-597 1657,-597 1743,-597 1743,-597 1749,-597 1755,-603 1755,-609 1755,-609 1755,-621 1755,-621 1755,-627 1749,-633 1743,-633"/>
<text text-anchor="middle" x="1700" y="-618" font-family="sans" font-size="10.00" fill="#000000">filter_reads</text>
<text text-anchor="middle" x="1700" y="-607" font-family="sans" font-size="10.00" fill="#000000">sample: barcode13</text>
</g>
<!-- 31&#45;&gt;30 -->
<g id="edge52" class="edge">
<title>31&#45;&gt;30</title>
<path fill="none" stroke="#c0c0c0" stroke-width="2" d="M1644.996,-599.0182C1613.3607,-589.5307 1572.726,-576.8467 1529.4816,-561.4226"/>
<polygon fill="#c0c0c0" stroke="#c0c0c0" stroke-width="2" points="1530.5172,-558.0756 1519.9227,-557.9832 1528.1472,-564.6622 1530.5172,-558.0756"/>
</g>
<!-- 31&#45;&gt;71 -->
<g id="edge110" class="edge">
<title>31&#45;&gt;71</title>
<path fill="none" stroke="#c0c0c0" stroke-width="2" d="M1755.0476,-599.0407C1758.067,-598.3146 1761.0655,-597.6283 1764,-597 1870.3293,-574.2342 1909.3474,-610.8244 2006,-561 2020.8076,-553.3667 2096.4572,-462.7018 2110,-453 2129.8252,-438.7976 2153.9772,-426.7902 2175.0204,-417.7311"/>
<polygon fill="#c0c0c0" stroke="#c0c0c0" stroke-width="2" points="2176.5754,-420.8743 2184.4434,-413.7789 2173.868,-414.4191 2176.5754,-420.8743"/>
</g>
<!-- 31&#45;&gt;73 -->
<g id="edge120" class="edge">
<title>31&#45;&gt;73</title>
<path fill="none" stroke="#c0c0c0" stroke-width="2" d="M1755.006,-598.8312C1758.0361,-598.1591 1761.0483,-597.5418 1764,-597 1941.3053,-564.4572 1989.032,-582.6025 2168,-561 2192.9541,-557.9879 2220.7507,-553.7894 2243.0945,-550.2048"/>
<polygon fill="#c0c0c0" stroke="#c0c0c0" stroke-width="2" points="2243.9564,-553.6109 2253.2672,-548.5551 2242.8358,-546.7011 2243.9564,-553.6109"/>
</g>
<!-- 32 -->
<g id="node33" class="node">
<title>32</title>
<path fill="none" stroke="#d89556" stroke-width="2" d="M2090,-270.5C2090,-270.5 2046,-270.5 2046,-270.5 2040,-270.5 2034,-264.5 2034,-258.5 2034,-258.5 2034,-246.5 2034,-246.5 2034,-240.5 2040,-234.5 2046,-234.5 2046,-234.5 2090,-234.5 2090,-234.5 2096,-234.5 2102,-240.5 2102,-246.5 2102,-246.5 2102,-258.5 2102,-258.5 2102,-264.5 2096,-270.5 2090,-270.5"/>
<text text-anchor="middle" x="2068" y="-250" font-family="sans" font-size="10.00" fill="#000000">bam_stats</text>
</g>
<!-- 32&#45;&gt;0 -->
<g id="edge12" class="edge">
<title>32&#45;&gt;0</title>
<path fill="none" stroke="#c0c0c0" stroke-width="2" d="M2067.7183,-234.2059C2066.6595,-214.581 2062.721,-183.122 2049,-160 2018.1003,-107.9291 2000.9916,-95.0459 1945,-72 1884.9874,-47.299 1432.0554,-25.5736 1297.5502,-19.6127"/>
<polygon fill="#c0c0c0" stroke="#c0c0c0" stroke-width="2" points="1297.4814,-16.1063 1287.3372,-19.1633 1297.1736,-23.0996 1297.4814,-16.1063"/>
</g>
<!-- 33 -->
<g id="node34" class="node">
<title>33</title>
<path fill="none" stroke="#5692d8" stroke-width="2" d="M1989,-489C1989,-489 1933,-489 1933,-489 1927,-489 1921,-483 1921,-477 1921,-477 1921,-465 1921,-465 1921,-459 1927,-453 1933,-453 1933,-453 1989,-453 1989,-453 1995,-453 2001,-459 2001,-465 2001,-465 2001,-477 2001,-477 2001,-483 1995,-489 1989,-489"/>
<text text-anchor="middle" x="1961" y="-468.5" font-family="sans" font-size="10.00" fill="#000000">sam_to_bam</text>
</g>
<!-- 33&#45;&gt;32 -->
<g id="edge53" class="edge">
<title>33&#45;&gt;32</title>
<path fill="none" stroke="#c0c0c0" stroke-width="2" d="M2001.1329,-455.1998C2018.5766,-446.415 2037.7779,-433.8106 2050,-417 2079.1667,-376.8834 2077.1808,-316.0621 2072.7949,-280.7062"/>
<polygon fill="#c0c0c0" stroke="#c0c0c0" stroke-width="2" points="2076.2339,-280.0243 2071.3886,-270.6023 2069.3007,-280.9893 2076.2339,-280.0243"/>
</g>
<!-- 54 -->
<g id="node55" class="node">
<title>54</title>
<path fill="none" stroke="#d88556" stroke-width="2" d="M2444,-417C2444,-417 2406,-417 2406,-417 2400,-417 2394,-411 2394,-405 2394,-405 2394,-393 2394,-393 2394,-387 2400,-381 2406,-381 2406,-381 2444,-381 2444,-381 2450,-381 2456,-387 2456,-393 2456,-393 2456,-405 2456,-405 2456,-411 2450,-417 2444,-417"/>
<text text-anchor="middle" x="2425" y="-396.5" font-family="sans" font-size="10.00" fill="#000000">bam_sort</text>
</g>
<!-- 33&#45;&gt;54 -->
<g id="edge75" class="edge">
<title>33&#45;&gt;54</title>
<path fill="none" stroke="#c0c0c0" stroke-width="2" d="M2001.2401,-469.8227C2075.7794,-466.8014 2240.0926,-456.198 2384.0001,-416.8145"/>
<polygon fill="#c0c0c0" stroke="#c0c0c0" stroke-width="2" points="2385.1959,-420.1145 2393.8861,-414.0539 2383.3132,-413.3724 2385.1959,-420.1145"/>
</g>
<!-- 33&#45;&gt;62 -->
<g id="edge87" class="edge">
<title>33&#45;&gt;62</title>
<path fill="none" stroke="#c0c0c0" stroke-width="2" d="M1920.8885,-455.2525C1917.908,-454.3952 1914.9238,-453.6292 1912,-453 1697.3792,-406.8152 1631.4136,-463.65 1413.0322,-416.8343"/>
<polygon fill="#c0c0c0" stroke="#c0c0c0" stroke-width="2" points="1413.7082,-413.3994 1403.1906,-414.677 1412.2093,-420.2371 1413.7082,-413.3994"/>
</g>
<!-- 34&#45;&gt;33 -->
<g id="edge54" class="edge">
<title>34&#45;&gt;33</title>
<path fill="none" stroke="#c0c0c0" stroke-width="2" d="M1961,-524.8314C1961,-517.131 1961,-507.9743 1961,-499.4166"/>
<polygon fill="#c0c0c0" stroke="#c0c0c0" stroke-width="2" points="1964.5001,-499.4132 1961,-489.4133 1957.5001,-499.4133 1964.5001,-499.4132"/>
</g>
<!-- 35 -->
<g id="node36" class="node">
<title>35</title>
<path fill="none" stroke="#80d856" stroke-width="2" d="M2497,-633C2497,-633 2411,-633 2411,-633 2405,-633 2399,-627 2399,-621 2399,-621 2399,-609 2399,-609 2399,-603 2405,-597 2411,-597 2411,-597 2497,-597 2497,-597 2503,-597 2509,-603 2509,-609 2509,-609 2509,-621 2509,-621 2509,-627 2503,-633 2497,-633"/>
<text text-anchor="middle" x="2454" y="-618" font-family="sans" font-size="10.00" fill="#000000">filter_reads</text>
<text text-anchor="middle" x="2454" y="-607" font-family="sans" font-size="10.00" fill="#000000">sample: barcode15</text>
</g>
<!-- 35&#45;&gt;34 -->
<g id="edge56" class="edge">
<title>35&#45;&gt;34</title>
<path fill="none" stroke="#c0c0c0" stroke-width="2" d="M2398.7476,-604.8377C2383.612,-602.1663 2367.1906,-599.3712 2352,-597 2234.5625,-578.6684 2204.7221,-577.4047 2087,-561 2060.4051,-557.294 2030.668,-553.0505 2006.7641,-549.6149"/>
<polygon fill="#c0c0c0" stroke="#c0c0c0" stroke-width="2" points="2006.961,-546.1073 1996.5644,-548.1471 2005.9639,-553.0359 2006.961,-546.1073"/>
</g>
<!-- 35&#45;&gt;71 -->
<g id="edge111" class="edge">
<title>35&#45;&gt;71</title>
<path fill="none" stroke="#c0c0c0" stroke-width="2" d="M2447.472,-596.8765C2434.7539,-563.9328 2403.6585,-493.8705 2356,-453 2349.3219,-447.273 2309.2026,-431.085 2275.1006,-417.9153"/>
<polygon fill="#c0c0c0" stroke="#c0c0c0" stroke-width="2" points="2276.2645,-414.613 2265.6745,-414.292 2273.7528,-421.147 2276.2645,-414.613"/>
</g>
<!-- 35&#45;&gt;73 -->
<g id="edge121" class="edge">
<title>35&#45;&gt;73</title>
<path fill="none" stroke="#c0c0c0" stroke-width="2" d="M2411.6065,-596.8314C2386.0072,-585.8602 2353.5107,-571.9332 2327.9852,-560.9937"/>
<polygon fill="#c0c0c0" stroke="#c0c0c0" stroke-width="2" points="2329.1428,-557.6819 2318.5726,-556.9597 2326.3853,-564.1159 2329.1428,-557.6819"/>
</g>
<!-- 36 -->
<g id="node37" class="node">
<title>36</title>
<path fill="none" stroke="#d89556" stroke-width="2" d="M1702,-270.5C1702,-270.5 1658,-270.5 1658,-270.5 1652,-270.5 1646,-264.5 1646,-258.5 1646,-258.5 1646,-246.5 1646,-246.5 1646,-240.5 1652,-234.5 1658,-234.5 1658,-234.5 1702,-234.5 1702,-234.5 1708,-234.5 1714,-240.5 1714,-246.5 1714,-246.5 1714,-258.5 1714,-258.5 1714,-264.5 1708,-270.5 1702,-270.5"/>
<text text-anchor="middle" x="1680" y="-250" font-family="sans" font-size="10.00" fill="#000000">bam_stats</text>
</g>
<!-- 36&#45;&gt;0 -->
<g id="edge13" class="edge">
<title>36&#45;&gt;0</title>
<path fill="none" stroke="#c0c0c0" stroke-width="2" d="M1645.596,-235.1078C1642.7253,-233.9613 1639.8363,-232.9052 1637,-232 1548.4572,-203.7407 1507.7135,-248.4734 1431,-196 1377.8391,-159.637 1402.2565,-116.8183 1356,-72 1338.8869,-55.4189 1315.6882,-42.1855 1296.3829,-32.9692"/>
<polygon fill="#c0c0c0" stroke="#c0c0c0" stroke-width="2" points="1297.8096,-29.773 1287.2623,-28.7705 1294.8824,-36.1316 1297.8096,-29.773"/>
</g>
<!-- 37 -->
<g id="node38" class="node">
<title>37</title>
<path fill="none" stroke="#5692d8" stroke-width="2" d="M1597,-489C1597,-489 1541,-489 1541,-489 1535,-489 1529,-483 1529,-477 1529,-477 1529,-465 1529,-465 1529,-459 1535,-453 1541,-453 1541,-453 1597,-453 1597,-453 1603,-453 1609,-459 1609,-465 1609,-465 1609,-477 1609,-477 1609,-483 1603,-489 1597,-489"/>
<text text-anchor="middle" x="1569" y="-468.5" font-family="sans" font-size="10.00" fill="#000000">sam_to_bam</text>
</g>
<!-- 37&#45;&gt;36 -->
<g id="edge57" class="edge">
<title>37&#45;&gt;36</title>
<path fill="none" stroke="#c0c0c0" stroke-width="2" d="M1584.7351,-452.8715C1592.9779,-442.7755 1602.8217,-429.7089 1610,-417 1635.4086,-372.0152 1632.2947,-356.3342 1653,-309 1657.2037,-299.3899 1662.074,-288.998 1666.5114,-279.7788"/>
<polygon fill="#c0c0c0" stroke="#c0c0c0" stroke-width="2" points="1669.7111,-281.202 1670.9327,-270.6778 1663.4147,-278.1432 1669.7111,-281.202"/>
</g>
<!-- 57 -->
<g id="node58" class="node">
<title>57</title>
<path fill="none" stroke="#d88556" stroke-width="2" d="M1589,-417C1589,-417 1551,-417 1551,-417 1545,-417 1539,-411 1539,-405 1539,-405 1539,-393 1539,-393 1539,-387 1545,-381 1551,-381 1551,-381 1589,-381 1589,-381 1595,-381 1601,-387 1601,-393 1601,-393 1601,-405 1601,-405 1601,-411 1595,-417 1589,-417"/>
<text text-anchor="middle" x="1570" y="-396.5" font-family="sans" font-size="10.00" fill="#000000">bam_sort</text>
</g>
<!-- 37&#45;&gt;57 -->
<g id="edge78" class="edge">
<title>37&#45;&gt;57</title>
<path fill="none" stroke="#c0c0c0" stroke-width="2" d="M1569.2523,-452.8314C1569.3593,-445.131 1569.4865,-435.9743 1569.6053,-427.4166"/>
<polygon fill="#c0c0c0" stroke="#c0c0c0" stroke-width="2" points="1573.1049,-427.4609 1569.7443,-417.4133 1566.1056,-427.3637 1573.1049,-427.4609"/>
</g>
<!-- 37&#45;&gt;63 -->
<g id="edge89" class="edge">
<title>37&#45;&gt;63</title>
<path fill="none" stroke="#c0c0c0" stroke-width="2" d="M1528.9941,-457.5811C1523.0076,-455.8661 1516.874,-454.2695 1511,-453 1388.5365,-426.5325 1350.6258,-447.1108 1225.2143,-416.9655"/>
<polygon fill="#c0c0c0" stroke="#c0c0c0" stroke-width="2" points="1225.7785,-413.4998 1215.2314,-414.5044 1224.1029,-420.2964 1225.7785,-413.4998"/>
</g>
<!-- 38&#45;&gt;37 -->
<g id="edge58" class="edge">
<title>38&#45;&gt;37</title>
<path fill="none" stroke="#c0c0c0" stroke-width="2" d="M1571.9906,-524.8314C1571.5628,-517.131 1571.0541,-507.9743 1570.5787,-499.4166"/>
<polygon fill="#c0c0c0" stroke="#c0c0c0" stroke-width="2" points="1574.0724,-499.2037 1570.023,-489.4133 1567.0831,-499.592 1574.0724,-499.2037"/>
</g>
<!-- 39 -->
<g id="node40" class="node">
<title>39</title>
<path fill="none" stroke="#80d856" stroke-width="2" d="M1871,-633C1871,-633 1785,-633 1785,-633 1779,-633 1773,-627 1773,-621 1773,-621 1773,-609 1773,-609 1773,-603 1779,-597 1785,-597 1785,-597 1871,-597 1871,-597 1877,-597 1883,-603 1883,-609 1883,-609 1883,-621 1883,-621 1883,-627 1877,-633 1871,-633"/>
<text text-anchor="middle" x="1828" y="-618" font-family="sans" font-size="10.00" fill="#000000">filter_reads</text>
<text text-anchor="middle" x="1828" y="-607" font-family="sans" font-size="10.00" fill="#000000">sample: barcode16</text>
</g>
<!-- 39&#45;&gt;38 -->
<g id="edge60" class="edge">
<title>39&#45;&gt;38</title>
<path fill="none" stroke="#c0c0c0" stroke-width="2" d="M1772.8653,-599.4021C1769.8684,-598.5827 1766.8985,-597.7775 1764,-597 1701.5314,-580.2433 1684.8308,-579.9753 1623,-561 1621.5392,-560.5517 1620.0581,-560.0861 1618.5655,-559.6072"/>
<polygon fill="#c0c0c0" stroke="#c0c0c0" stroke-width="2" points="1619.2337,-556.1406 1608.64,-556.2987 1617.02,-562.7814 1619.2337,-556.1406"/>
</g>
<!-- 39&#45;&gt;71 -->
<g id="edge112" class="edge">
<title>39&#45;&gt;71</title>
<path fill="none" stroke="#c0c0c0" stroke-width="2" d="M1883.3447,-600.4925C1887.9622,-599.3033 1892.56,-598.1265 1897,-597 1961.78,-580.5647 1985.1017,-594.382 2043,-561 2100.729,-527.7156 2096.2443,-496.1782 2147,-453 2159.5547,-442.3196 2174.2139,-431.7372 2187.4134,-422.8083"/>
<polygon fill="#c0c0c0" stroke="#c0c0c0" stroke-width="2" points="2189.4576,-425.6521 2195.8398,-417.1952 2185.5768,-419.8263 2189.4576,-425.6521"/>
</g>
<!-- 39&#45;&gt;73 -->
<g id="edge122" class="edge">
<title>39&#45;&gt;73</title>
<path fill="none" stroke="#c0c0c0" stroke-width="2" d="M1883.0113,-605.0371C1898.2204,-602.3522 1914.739,-599.5004 1930,-597 2035.5734,-579.7028 2062.2323,-577.0663 2168,-561 2193.0515,-557.1946 2221.0917,-552.918 2243.5506,-549.4885"/>
<polygon fill="#c0c0c0" stroke="#c0c0c0" stroke-width="2" points="2244.0892,-552.9469 2253.4461,-547.9771 2243.0322,-546.0271 2244.0892,-552.9469"/>
</g>
<!-- 40 -->
<g id="node41" class="node">
<title>40</title>
<path fill="none" stroke="#d86656" stroke-width="2" d="M1632,-196C1632,-196 1538,-196 1538,-196 1532,-196 1526,-190 1526,-184 1526,-184 1526,-172 1526,-172 1526,-166 1532,-160 1538,-160 1538,-160 1632,-160 1632,-160 1638,-160 1644,-166 1644,-172 1644,-172 1644,-184 1644,-184 1644,-190 1638,-196 1632,-196"/>
<text text-anchor="middle" x="1585" y="-175.5" font-family="sans" font-size="10.00" fill="#000000">alignment_qa_report</text>
</g>
<!-- 40&#45;&gt;0 -->
<g id="edge14" class="edge">
<title>40&#45;&gt;0</title>
<path fill="none" stroke="#c0c0c0" stroke-width="2" d="M1568.1198,-159.8769C1545.1619,-136.2774 1501.796,-95.2984 1457,-72 1405.0479,-44.9797 1338.1536,-30.3499 1297.2081,-23.3682"/>
<polygon fill="#c0c0c0" stroke="#c0c0c0" stroke-width="2" points="1297.5669,-19.8803 1287.1322,-21.7156 1296.4339,-26.788 1297.5669,-19.8803"/>
</g>
<!-- 41 -->
<g id="node42" class="node">
<title>41</title>
<path fill="none" stroke="#d85656" stroke-width="2" d="M1766.5,-345C1766.5,-345 1707.5,-345 1707.5,-345 1701.5,-345 1695.5,-339 1695.5,-333 1695.5,-333 1695.5,-321 1695.5,-321 1695.5,-315 1701.5,-309 1707.5,-309 1707.5,-309 1766.5,-309 1766.5,-309 1772.5,-309 1778.5,-315 1778.5,-321 1778.5,-321 1778.5,-333 1778.5,-333 1778.5,-339 1772.5,-345 1766.5,-345"/>
<text text-anchor="middle" x="1737" y="-324.5" font-family="sans" font-size="10.00" fill="#000000">alignment_qa</text>
</g>
<!-- 41&#45;&gt;40 -->
<g id="edge61" class="edge">
<title>41&#45;&gt;40</title>
<path fill="none" stroke="#c0c0c0" stroke-width="2" d="M1748.3131,-308.7521C1759.4596,-288.1804 1772.6042,-254.6558 1756,-232 1752.7141,-227.5165 1699.8579,-211.2245 1653.7717,-197.6975"/>
<polygon fill="#c0c0c0" stroke="#c0c0c0" stroke-width="2" points="1654.6408,-194.3051 1644.0604,-194.8582 1652.6764,-201.0238 1654.6408,-194.3051"/>
</g>
<!-- 42&#45;&gt;41 -->
<g id="edge62" class="edge">
<title>42&#45;&gt;41</title>
<path fill="none" stroke="#c0c0c0" stroke-width="2" d="M1733.2617,-380.8314C1733.7965,-373.131 1734.4323,-363.9743 1735.0266,-355.4166"/>
<polygon fill="#c0c0c0" stroke="#c0c0c0" stroke-width="2" points="1738.52,-355.6317 1735.7213,-345.4133 1731.5368,-355.1467 1738.52,-355.6317"/>
</g>
<!-- 43 -->
<g id="node44" class="node">
<title>43</title>
<path fill="none" stroke="#d86656" stroke-width="2" d="M1768,-196C1768,-196 1674,-196 1674,-196 1668,-196 1662,-190 1662,-184 1662,-184 1662,-172 1662,-172 1662,-166 1668,-160 1674,-160 1674,-160 1768,-160 1768,-160 1774,-160 1780,-166 1780,-172 1780,-172 1780,-184 1780,-184 1780,-190 1774,-196 1768,-196"/>
<text text-anchor="middle" x="1721" y="-175.5" font-family="sans" font-size="10.00" fill="#000000">alignment_qa_report</text>
</g>
<!-- 43&#45;&gt;0 -->
<g id="edge15" class="edge">
<title>43&#45;&gt;0</title>
<path fill="none" stroke="#c0c0c0" stroke-width="2" d="M1690.4984,-159.8961C1649.8977,-136.508 1575.2657,-95.9616 1507,-72 1434.8438,-46.6728 1346.5048,-30.8088 1297.4264,-23.2577"/>
<polygon fill="#c0c0c0" stroke="#c0c0c0" stroke-width="2" points="1297.6887,-19.7578 1287.279,-21.7293 1296.6461,-26.6797 1297.6887,-19.7578"/>
</g>
<!-- 44 -->
<g id="node45" class="node">
<title>44</title>
<path fill="none" stroke="#d85656" stroke-width="2" d="M1867.5,-345C1867.5,-345 1808.5,-345 1808.5,-345 1802.5,-345 1796.5,-339 1796.5,-333 1796.5,-333 1796.5,-321 1796.5,-321 1796.5,-315 1802.5,-309 1808.5,-309 1808.5,-309 1867.5,-309 1867.5,-309 1873.5,-309 1879.5,-315 1879.5,-321 1879.5,-321 1879.5,-333 1879.5,-333 1879.5,-339 1873.5,-345 1867.5,-345"/>
<text text-anchor="middle" x="1838" y="-324.5" font-family="sans" font-size="10.00" fill="#000000">alignment_qa</text>
</g>
<!-- 44&#45;&gt;43 -->
<g id="edge64" class="edge">
<title>44&#45;&gt;43</title>
<path fill="none" stroke="#c0c0c0" stroke-width="2" d="M1832.5769,-308.7031C1825.9035,-288.3899 1813.0618,-255.3886 1794,-232 1784.7037,-220.5935 1772.4813,-210.3259 1760.7026,-201.883"/>
<polygon fill="#c0c0c0" stroke="#c0c0c0" stroke-width="2" points="1762.4745,-198.8537 1752.2525,-196.0677 1758.506,-204.6201 1762.4745,-198.8537"/>
</g>
<!-- 45&#45;&gt;44 -->
<g id="edge65" class="edge">
<title>45&#45;&gt;44</title>
<path fill="none" stroke="#c0c0c0" stroke-width="2" d="M1826.0375,-380.8314C1827.7487,-373.131 1829.7835,-363.9743 1831.6852,-355.4166"/>
<polygon fill="#c0c0c0" stroke="#c0c0c0" stroke-width="2" points="1835.1554,-355.9344 1833.9082,-345.4133 1828.3221,-354.4159 1835.1554,-355.9344"/>
</g>
<!-- 46 -->
<g id="node47" class="node">
<title>46</title>
<path fill="none" stroke="#d86656" stroke-width="2" d="M2028,-196C2028,-196 1934,-196 1934,-196 1928,-196 1922,-190 1922,-184 1922,-184 1922,-172 1922,-172 1922,-166 1928,-160 1934,-160 1934,-160 2028,-160 2028,-160 2034,-160 2040,-166 2040,-172 2040,-172 2040,-184 2040,-184 2040,-190 2034,-196 2028,-196"/>
<text text-anchor="middle" x="1981" y="-175.5" font-family="sans" font-size="10.00" fill="#000000">alignment_qa_report</text>
</g>
<!-- 46&#45;&gt;0 -->
<g id="edge16" class="edge">
<title>46&#45;&gt;0</title>
<path fill="none" stroke="#c0c0c0" stroke-width="2" d="M1974.2101,-159.6143C1964.0143,-134.916 1942.2151,-91.8375 1908,-72 1855.1014,-41.33 1427.6013,-23.8952 1297.4584,-19.2609"/>
<polygon fill="#c0c0c0" stroke="#c0c0c0" stroke-width="2" points="1297.3192,-15.754 1287.2024,-18.9004 1297.0732,-22.7497 1297.3192,-15.754"/>
</g>
<!-- 47 -->
<g id="node48" class="node">
<title>47</title>
<path fill="none" stroke="#d85656" stroke-width="2" d="M2045.5,-345C2045.5,-345 1986.5,-345 1986.5,-345 1980.5,-345 1974.5,-339 1974.5,-333 1974.5,-333 1974.5,-321 1974.5,-321 1974.5,-315 1980.5,-309 1986.5,-309 1986.5,-309 2045.5,-309 2045.5,-309 2051.5,-309 2057.5,-315 2057.5,-321 2057.5,-321 2057.5,-333 2057.5,-333 2057.5,-339 2051.5,-345 2045.5,-345"/>
<text text-anchor="middle" x="2016" y="-324.5" font-family="sans" font-size="10.00" fill="#000000">alignment_qa</text>
</g>
<!-- 47&#45;&gt;46 -->
<g id="edge67" class="edge">
<title>47&#45;&gt;46</title>
<path fill="none" stroke="#c0c0c0" stroke-width="2" d="M2011.7083,-308.7297C2005.6993,-283.1487 1994.7231,-236.4213 1987.6509,-206.314"/>
<polygon fill="#c0c0c0" stroke="#c0c0c0" stroke-width="2" points="1991.0209,-205.3544 1985.3268,-196.4198 1984.2064,-206.9552 1991.0209,-205.3544"/>
</g>
<!-- 48&#45;&gt;47 -->
<g id="edge68" class="edge">
<title>48&#45;&gt;47</title>
<path fill="none" stroke="#c0c0c0" stroke-width="2" d="M2011.5141,-380.8314C2012.1558,-373.131 2012.9188,-363.9743 2013.6319,-355.4166"/>
<polygon fill="#c0c0c0" stroke="#c0c0c0" stroke-width="2" points="2017.1229,-355.6694 2014.4656,-345.4133 2010.1471,-355.088 2017.1229,-355.6694"/>
</g>
<!-- 49 -->
<g id="node50" class="node">
<title>49</title>
<path fill="none" stroke="#d86656" stroke-width="2" d="M1394,-270.5C1394,-270.5 1300,-270.5 1300,-270.5 1294,-270.5 1288,-264.5 1288,-258.5 1288,-258.5 1288,-246.5 1288,-246.5 1288,-240.5 1294,-234.5 1300,-234.5 1300,-234.5 1394,-234.5 1394,-234.5 1400,-234.5 1406,-240.5 1406,-246.5 1406,-246.5 1406,-258.5 1406,-258.5 1406,-264.5 1400,-270.5 1394,-270.5"/>
<text text-anchor="middle" x="1347" y="-250" font-family="sans" font-size="10.00" fill="#000000">alignment_qa_report</text>
</g>
<!-- 49&#45;&gt;0 -->
<g id="edge17" class="edge">
<title>49&#45;&gt;0</title>
<path fill="none" stroke="#c0c0c0" stroke-width="2" d="M1338.513,-234.3385C1333.4856,-223.338 1327.1188,-208.9708 1322,-196 1301.2815,-143.5002 1280.3378,-80.9455 1268.8768,-45.7148"/>
<polygon fill="#c0c0c0" stroke="#c0c0c0" stroke-width="2" points="1272.1793,-44.5521 1265.7693,-36.1163 1265.5196,-46.7082 1272.1793,-44.5521"/>
</g>
<!-- 50 -->
<g id="node51" class="node">
<title>50</title>
<path fill="none" stroke="#d85656" stroke-width="2" d="M1413.5,-345C1413.5,-345 1354.5,-345 1354.5,-345 1348.5,-345 1342.5,-339 1342.5,-333 1342.5,-333 1342.5,-321 1342.5,-321 1342.5,-315 1348.5,-309 1354.5,-309 1354.5,-309 1413.5,-309 1413.5,-309 1419.5,-309 1425.5,-315 1425.5,-321 1425.5,-321 1425.5,-333 1425.5,-333 1425.5,-339 1419.5,-345 1413.5,-345"/>
<text text-anchor="middle" x="1384" y="-324.5" font-family="sans" font-size="10.00" fill="#000000">alignment_qa</text>
</g>
<!-- 50&#45;&gt;49 -->
<g id="edge70" class="edge">
<title>50&#45;&gt;49</title>
<path fill="none" stroke="#c0c0c0" stroke-width="2" d="M1375.0433,-308.9656C1370.6673,-300.1544 1365.3103,-289.368 1360.4551,-279.5921"/>
<polygon fill="#c0c0c0" stroke="#c0c0c0" stroke-width="2" points="1363.5853,-278.0259 1356.0024,-270.6265 1357.3159,-281.1396 1363.5853,-278.0259"/>
</g>
<!-- 51&#45;&gt;50 -->
<g id="edge71" class="edge">
<title>51&#45;&gt;50</title>
<path fill="none" stroke="#c0c0c0" stroke-width="2" d="M1434.8407,-380.8314C1426.8489,-372.3694 1417.1962,-362.1489 1408.4584,-352.8971"/>
<polygon fill="#c0c0c0" stroke="#c0c0c0" stroke-width="2" points="1410.8011,-350.2802 1401.3903,-345.4133 1405.712,-355.0866 1410.8011,-350.2802"/>
</g>
<!-- 52 -->
<g id="node53" class="node">
<title>52</title>
<path fill="none" stroke="#d86656" stroke-width="2" d="M2457,-196C2457,-196 2363,-196 2363,-196 2357,-196 2351,-190 2351,-184 2351,-184 2351,-172 2351,-172 2351,-166 2357,-160 2363,-160 2363,-160 2457,-160 2457,-160 2463,-160 2469,-166 2469,-172 2469,-172 2469,-184 2469,-184 2469,-190 2463,-196 2457,-196"/>
<text text-anchor="middle" x="2410" y="-175.5" font-family="sans" font-size="10.00" fill="#000000">alignment_qa_report</text>
</g>
<!-- 52&#45;&gt;0 -->
<g id="edge18" class="edge">
<title>52&#45;&gt;0</title>
<path fill="none" stroke="#c0c0c0" stroke-width="2" d="M2399.5025,-159.7441C2383.9986,-134.7752 2352.4013,-90.9186 2312,-72 2218.624,-28.2752 1473.3723,-19.6813 1297.2215,-18.2547"/>
<polygon fill="#c0c0c0" stroke="#c0c0c0" stroke-width="2" points="1297.176,-14.7544 1287.1489,-18.176 1297.1212,-21.7541 1297.176,-14.7544"/>
</g>
<!-- 53 -->
<g id="node54" class="node">
<title>53</title>
<path fill="none" stroke="#d85656" stroke-width="2" d="M2454.5,-345C2454.5,-345 2395.5,-345 2395.5,-345 2389.5,-345 2383.5,-339 2383.5,-333 2383.5,-333 2383.5,-321 2383.5,-321 2383.5,-315 2389.5,-309 2395.5,-309 2395.5,-309 2454.5,-309 2454.5,-309 2460.5,-309 2466.5,-315 2466.5,-321 2466.5,-321 2466.5,-333 2466.5,-333 2466.5,-339 2460.5,-345 2454.5,-345"/>
<text text-anchor="middle" x="2425" y="-324.5" font-family="sans" font-size="10.00" fill="#000000">alignment_qa</text>
</g>
<!-- 53&#45;&gt;52 -->
<g id="edge73" class="edge">
<title>53&#45;&gt;52</title>
<path fill="none" stroke="#c0c0c0" stroke-width="2" d="M2423.1607,-308.7297C2420.5967,-283.2604 2415.9224,-236.829 2412.8902,-206.7094"/>
<polygon fill="#c0c0c0" stroke="#c0c0c0" stroke-width="2" points="2416.3385,-206.0189 2411.8543,-196.4198 2409.3737,-206.7201 2416.3385,-206.0189"/>
</g>
<!-- 54&#45;&gt;53 -->
<g id="edge74" class="edge">
<title>54&#45;&gt;53</title>
<path fill="none" stroke="#c0c0c0" stroke-width="2" d="M2425,-380.8314C2425,-373.131 2425,-363.9743 2425,-355.4166"/>
<polygon fill="#c0c0c0" stroke="#c0c0c0" stroke-width="2" points="2428.5001,-355.4132 2425,-345.4133 2421.5001,-355.4133 2428.5001,-355.4132"/>
</g>
<!-- 55 -->
<g id="node56" class="node">
<title>55</title>
<path fill="none" stroke="#d86656" stroke-width="2" d="M1616,-270.5C1616,-270.5 1522,-270.5 1522,-270.5 1516,-270.5 1510,-264.5 1510,-258.5 1510,-258.5 1510,-246.5 1510,-246.5 1510,-240.5 1516,-234.5 1522,-234.5 1522,-234.5 1616,-234.5 1616,-234.5 1622,-234.5 1628,-240.5 1628,-246.5 1628,-246.5 1628,-258.5 1628,-258.5 1628,-264.5 1622,-270.5 1616,-270.5"/>
<text text-anchor="middle" x="1569" y="-250" font-family="sans" font-size="10.00" fill="#000000">alignment_qa_report</text>
</g>
<!-- 55&#45;&gt;0 -->
<g id="edge19" class="edge">
<title>55&#45;&gt;0</title>
<path fill="none" stroke="#c0c0c0" stroke-width="2" d="M1510.9463,-234.4055C1463.2004,-219.3527 1402.6461,-199.7953 1398,-196 1348.8179,-155.8241 1368.2129,-120.3165 1327,-72 1317.8062,-61.2215 1306.2303,-51.0187 1295.2986,-42.444"/>
<polygon fill="#c0c0c0" stroke="#c0c0c0" stroke-width="2" points="1297.1935,-39.488 1287.1147,-36.2217 1292.9568,-45.0604 1297.1935,-39.488"/>
</g>
<!-- 56 -->
<g id="node57" class="node">
<title>56</title>
<path fill="none" stroke="#d85656" stroke-width="2" d="M1588.5,-345C1588.5,-345 1529.5,-345 1529.5,-345 1523.5,-345 1517.5,-339 1517.5,-333 1517.5,-333 1517.5,-321 1517.5,-321 1517.5,-315 1523.5,-309 1529.5,-309 1529.5,-309 1588.5,-309 1588.5,-309 1594.5,-309 1600.5,-315 1600.5,-321 1600.5,-321 1600.5,-333 1600.5,-333 1600.5,-339 1594.5,-345 1588.5,-345"/>
<text text-anchor="middle" x="1559" y="-324.5" font-family="sans" font-size="10.00" fill="#000000">alignment_qa</text>
</g>
<!-- 56&#45;&gt;55 -->
<g id="edge76" class="edge">
<title>56&#45;&gt;55</title>
<path fill="none" stroke="#c0c0c0" stroke-width="2" d="M1561.4207,-308.9656C1562.5547,-300.5178 1563.9323,-290.2542 1565.2005,-280.8064"/>
<polygon fill="#c0c0c0" stroke="#c0c0c0" stroke-width="2" points="1568.7054,-281.0033 1566.5669,-270.6265 1561.7676,-280.072 1568.7054,-281.0033"/>
</g>
<!-- 57&#45;&gt;56 -->
<g id="edge77" class="edge">
<title>57&#45;&gt;56</title>
<path fill="none" stroke="#c0c0c0" stroke-width="2" d="M1567.2242,-380.8314C1566.0478,-373.131 1564.6489,-363.9743 1563.3414,-355.4166"/>
<polygon fill="#c0c0c0" stroke="#c0c0c0" stroke-width="2" points="1566.7833,-354.7699 1561.8131,-345.4133 1559.8636,-355.8272 1566.7833,-354.7699"/>
</g>
<!-- 58&#45;&gt;0 -->
<g id="edge20" class="edge">
<title>58&#45;&gt;0</title>
<path fill="none" stroke="#c0c0c0" stroke-width="2" d="M891.8859,-380.9952C883.492,-325.9433 866.5067,-158.3698 953,-72 990.4112,-34.6423 1149.5551,-22.8534 1222.8144,-19.3653"/>
<polygon fill="#c0c0c0" stroke="#c0c0c0" stroke-width="2" points="1223.1425,-22.8542 1232.9753,-18.9088 1222.8283,-15.8612 1223.1425,-22.8542"/>
</g>
<!-- 65 -->
<g id="node66" class="node">
<title>65</title>
<path fill="none" stroke="#56b9d8" stroke-width="2" d="M1105.5,-345C1105.5,-345 1016.5,-345 1016.5,-345 1010.5,-345 1004.5,-339 1004.5,-333 1004.5,-333 1004.5,-321 1004.5,-321 1004.5,-315 1010.5,-309 1016.5,-309 1016.5,-309 1105.5,-309 1105.5,-309 1111.5,-309 1117.5,-315 1117.5,-321 1117.5,-321 1117.5,-333 1117.5,-333 1117.5,-339 1111.5,-345 1105.5,-345"/>
<text text-anchor="middle" x="1061" y="-324.5" font-family="sans" font-size="10.00" fill="#000000">merge_read_counts</text>
</g>
<!-- 58&#45;&gt;65 -->
<g id="edge93" class="edge">
<title>58&#45;&gt;65</title>
<path fill="none" stroke="#c0c0c0" stroke-width="2" d="M933.0838,-382.4817C955.9157,-372.5787 985.2368,-359.8612 1010.0453,-349.1008"/>
<polygon fill="#c0c0c0" stroke="#c0c0c0" stroke-width="2" points="1011.5281,-352.2728 1019.3096,-345.0826 1008.7426,-345.8509 1011.5281,-352.2728"/>
</g>
<!-- 59&#45;&gt;0 -->
<g id="edge21" class="edge">
<title>59&#45;&gt;0</title>
<path fill="none" stroke="#c0c0c0" stroke-width="2" d="M985.4065,-380.8664C982.592,-361.4864 981.1627,-330.6353 995,-309 1013.003,-280.8515 1038.2157,-297.4401 1061,-273 1127.9936,-201.1376 1084.8664,-142.7824 1153,-72 1172.2323,-52.02 1200.4406,-38.2076 1223.0661,-29.5563"/>
<polygon fill="#c0c0c0" stroke="#c0c0c0" stroke-width="2" points="1224.4967,-32.7604 1232.6967,-26.0514 1222.1027,-26.1824 1224.4967,-32.7604"/>
</g>
<!-- 59&#45;&gt;65 -->
<g id="edge94" class="edge">
<title>59&#45;&gt;65</title>
<path fill="none" stroke="#c0c0c0" stroke-width="2" d="M1007.1686,-380.8314C1015.7152,-372.2848 1026.0557,-361.9443 1035.3802,-352.6198"/>
<polygon fill="#c0c0c0" stroke="#c0c0c0" stroke-width="2" points="1037.9905,-354.9592 1042.5867,-345.4133 1033.0408,-350.0095 1037.9905,-354.9592"/>
</g>
<!-- 60&#45;&gt;0 -->
<g id="edge22" class="edge">
<title>60&#45;&gt;0</title>
<path fill="none" stroke="#c0c0c0" stroke-width="2" d="M1260.6084,-380.695C1246.2249,-353.5902 1222,-300.7742 1222,-252.5 1222,-252.5 1222,-252.5 1222,-178 1222,-130.5973 1237.9839,-77.3808 1249.2187,-45.8307"/>
<polygon fill="#c0c0c0" stroke="#c0c0c0" stroke-width="2" points="1252.5261,-46.9771 1252.6732,-36.3833 1245.9518,-44.5732 1252.5261,-46.9771"/>
</g>
<!-- 60&#45;&gt;65 -->
<g id="edge95" class="edge">
<title>60&#45;&gt;65</title>
<path fill="none" stroke="#c0c0c0" stroke-width="2" d="M1232.8348,-384.2158C1229.8514,-383.1114 1226.8802,-382.028 1224,-381 1192.469,-369.7459 1157.2334,-357.9737 1127.6118,-348.3037"/>
<polygon fill="#c0c0c0" stroke="#c0c0c0" stroke-width="2" points="1128.3871,-344.8754 1117.7949,-345.1088 1126.2207,-351.5318 1128.3871,-344.8754"/>
</g>
<!-- 61&#45;&gt;0 -->
<g id="edge23" class="edge">
<title>61&#45;&gt;0</title>
<path fill="none" stroke="#c0c0c0" stroke-width="2" d="M1100.8624,-380.962C1109.6773,-371.0945 1119.7367,-358.2112 1126,-345 1144.0185,-306.9938 1146,-294.5611 1146,-252.5 1146,-252.5 1146,-252.5 1146,-178 1146,-126.6441 1160.7346,-112.742 1192,-72 1201.01,-60.2591 1213.1097,-49.5819 1224.6043,-40.8791"/>
<polygon fill="#c0c0c0" stroke="#c0c0c0" stroke-width="2" points="1226.7885,-43.6184 1232.8145,-34.9041 1222.6695,-37.9585 1226.7885,-43.6184"/>
</g>
<!-- 61&#45;&gt;65 -->
<g id="edge96" class="edge">
<title>61&#45;&gt;65</title>
<path fill="none" stroke="#c0c0c0" stroke-width="2" d="M1077.4485,-380.8314C1075.0697,-373.0463 1072.2362,-363.7729 1069.5967,-355.1347"/>
<polygon fill="#c0c0c0" stroke="#c0c0c0" stroke-width="2" points="1072.8958,-353.954 1066.6263,-345.4133 1066.2013,-355.9996 1072.8958,-353.954"/>
</g>
<!-- 62&#45;&gt;0 -->
<g id="edge24" class="edge">
<title>62&#45;&gt;0</title>
<path fill="none" stroke="#c0c0c0" stroke-width="2" d="M1340.3822,-380.9431C1309.3473,-355.8893 1260,-307.4175 1260,-252.5 1260,-252.5 1260,-252.5 1260,-178 1260,-132.031 1260,-78.633 1260,-46.6205"/>
<polygon fill="#c0c0c0" stroke="#c0c0c0" stroke-width="2" points="1263.5001,-46.2363 1260,-36.2363 1256.5001,-46.2364 1263.5001,-46.2363"/>
</g>
<!-- 62&#45;&gt;65 -->
<g id="edge97" class="edge">
<title>62&#45;&gt;65</title>
<path fill="none" stroke="#c0c0c0" stroke-width="2" d="M1326.9542,-383.8491C1323.9436,-382.8282 1320.9336,-381.864 1318,-381 1254.3452,-362.2521 1179.9985,-347.3672 1127.6933,-338.0128"/>
<polygon fill="#c0c0c0" stroke="#c0c0c0" stroke-width="2" points="1127.9926,-334.5115 1117.5359,-336.2161 1126.7734,-341.4045 1127.9926,-334.5115"/>
</g>
<!-- 63&#45;&gt;0 -->
<g id="edge25" class="edge">
<title>63&#45;&gt;0</title>
<path fill="none" stroke="#c0c0c0" stroke-width="2" d="M1178.4166,-380.9703C1180.462,-353.3377 1184,-298.8427 1184,-252.5 1184,-252.5 1184,-252.5 1184,-178 1184,-127.0594 1215.8206,-75.0518 1238.2819,-44.6864"/>
<polygon fill="#c0c0c0" stroke="#c0c0c0" stroke-width="2" points="1241.3547,-46.4276 1244.6203,-36.3486 1235.7821,-42.1913 1241.3547,-46.4276"/>
</g>
<!-- 63&#45;&gt;65 -->
<g id="edge98" class="edge">
<title>63&#45;&gt;65</title>
<path fill="none" stroke="#c0c0c0" stroke-width="2" d="M1147.7283,-380.8314C1132.8912,-371.6221 1114.6985,-360.3301 1098.8138,-350.4706"/>
<polygon fill="#c0c0c0" stroke="#c0c0c0" stroke-width="2" points="1100.6045,-347.4628 1090.2623,-345.1628 1096.913,-353.4102 1100.6045,-347.4628"/>
</g>
<!-- 64&#45;&gt;0 -->
<g id="edge26" class="edge">
<title>64&#45;&gt;0</title>
<path fill="none" stroke="#c0c0c0" stroke-width="2" d="M984.4684,-234.4255C967.1837,-198.8697 935.905,-119.1981 975,-72 1006.0142,-34.5576 1152.3778,-22.8769 1222.4427,-19.397"/>
<polygon fill="#c0c0c0" stroke="#c0c0c0" stroke-width="2" points="1222.7776,-22.8853 1232.6038,-18.9236 1222.4517,-15.8929 1222.7776,-22.8853"/>
</g>
<!-- 67 -->
<g id="node68" class="node">
<title>67</title>
<path fill="none" stroke="#bed856" stroke-width="2" d="M1051.5,-196C1051.5,-196 1002.5,-196 1002.5,-196 996.5,-196 990.5,-190 990.5,-184 990.5,-184 990.5,-172 990.5,-172 990.5,-166 996.5,-160 1002.5,-160 1002.5,-160 1051.5,-160 1051.5,-160 1057.5,-160 1063.5,-166 1063.5,-172 1063.5,-172 1063.5,-184 1063.5,-184 1063.5,-190 1057.5,-196 1051.5,-196"/>
<text text-anchor="middle" x="1027" y="-175.5" font-family="sans" font-size="10.00" fill="#000000">deseq2_init</text>
</g>
<!-- 64&#45;&gt;67 -->
<g id="edge100" class="edge">
<title>64&#45;&gt;67</title>
<path fill="none" stroke="#c0c0c0" stroke-width="2" d="M1001.9884,-234.4656C1005.8511,-225.7453 1010.5708,-215.0901 1014.8654,-205.3948"/>
<polygon fill="#c0c0c0" stroke="#c0c0c0" stroke-width="2" points="1018.1209,-206.6872 1018.9708,-196.1265 1011.7206,-203.8522 1018.1209,-206.6872"/>
</g>
<!-- 65&#45;&gt;64 -->
<g id="edge91" class="edge">
<title>65&#45;&gt;64</title>
<path fill="none" stroke="#c0c0c0" stroke-width="2" d="M1044.7812,-308.9656C1036.4486,-299.7003 1026.1516,-288.2507 1017.0128,-278.0888"/>
<polygon fill="#c0c0c0" stroke="#c0c0c0" stroke-width="2" points="1019.591,-275.7215 1010.3017,-270.6265 1014.3862,-280.4024 1019.591,-275.7215"/>
</g>
<!-- 66 -->
<g id="node67" class="node">
<title>66</title>
<path fill="none" stroke="#c6d856" stroke-width="2" d="M1068,-124C1068,-124 996,-124 996,-124 990,-124 984,-118 984,-112 984,-112 984,-84 984,-84 984,-78 990,-72 996,-72 996,-72 1068,-72 1068,-72 1074,-72 1080,-78 1080,-84 1080,-84 1080,-112 1080,-112 1080,-118 1074,-124 1068,-124"/>
<text text-anchor="middle" x="1032" y="-112" font-family="sans" font-size="10.00" fill="#000000">deseq2</text>
<text text-anchor="middle" x="1032" y="-101" font-family="sans" font-size="10.00" fill="#000000">factor: condition</text>
<text text-anchor="middle" x="1032" y="-90" font-family="sans" font-size="10.00" fill="#000000">prop_a: wt</text>
<text text-anchor="middle" x="1032" y="-79" font-family="sans" font-size="10.00" fill="#000000">prop_b: mt</text>
</g>
<!-- 66&#45;&gt;0 -->
<g id="edge27" class="edge">
<title>66&#45;&gt;0</title>
<path fill="none" stroke="#c0c0c0" stroke-width="2" d="M1080.2464,-77.3144C1084.8749,-75.4669 1089.5142,-73.667 1094,-72 1137.766,-55.7363 1188.9751,-39.4906 1222.8179,-29.1314"/>
<polygon fill="#c0c0c0" stroke="#c0c0c0" stroke-width="2" points="1224.1887,-32.3728 1232.7358,-26.112 1222.1499,-25.6762 1224.1887,-32.3728"/>
</g>
<!-- 67&#45;&gt;66 -->
<g id="edge99" class="edge">
<title>67&#45;&gt;66</title>
<path fill="none" stroke="#c0c0c0" stroke-width="2" d="M1028.1346,-159.8468C1028.6067,-152.2921 1029.1726,-143.2376 1029.7239,-134.4174"/>
<polygon fill="#c0c0c0" stroke="#c0c0c0" stroke-width="2" points="1033.2271,-134.4735 1030.3578,-124.2746 1026.2408,-134.0368 1033.2271,-134.4735"/>
</g>
<!-- 68 -->
<g id="node69" class="node">
<title>68</title>
<path fill="none" stroke="#56d85b" stroke-width="2" d="M2227.5,-273C2227.5,-273 2132.5,-273 2132.5,-273 2126.5,-273 2120.5,-267 2120.5,-261 2120.5,-261 2120.5,-244 2120.5,-244 2120.5,-238 2126.5,-232 2132.5,-232 2132.5,-232 2227.5,-232 2227.5,-232 2233.5,-232 2239.5,-238 2239.5,-244 2239.5,-244 2239.5,-261 2239.5,-261 2239.5,-267 2233.5,-273 2227.5,-273"/>
<text text-anchor="middle" x="2180" y="-261" font-family="sans" font-size="10.00" fill="#000000">flair_diffexp</text>
<text text-anchor="middle" x="2180" y="-250" font-family="sans" font-size="10.00" fill="#000000">condition_value1: wt</text>
<text text-anchor="middle" x="2180" y="-239" font-family="sans" font-size="10.00" fill="#000000">condition_value2: mt</text>
</g>
<!-- 68&#45;&gt;0 -->
<g id="edge28" class="edge">
<title>68&#45;&gt;0</title>
<path fill="none" stroke="#c0c0c0" stroke-width="2" d="M2166.767,-231.8563C2140.2491,-192.5427 2076.3733,-107.6737 1998,-72 1933.971,-42.8555 1439.2108,-24.051 1297.6966,-19.2291"/>
<polygon fill="#c0c0c0" stroke="#c0c0c0" stroke-width="2" points="1297.4818,-15.7199 1287.3695,-18.8807 1297.2458,-22.7159 1297.4818,-15.7199"/>
</g>
<!-- 77 -->
<g id="node78" class="node">
<title>77</title>
<path fill="none" stroke="#56d86b" stroke-width="2" d="M2298.5,-196C2298.5,-196 2215.5,-196 2215.5,-196 2209.5,-196 2203.5,-190 2203.5,-184 2203.5,-184 2203.5,-172 2203.5,-172 2203.5,-166 2209.5,-160 2215.5,-160 2215.5,-160 2298.5,-160 2298.5,-160 2304.5,-160 2310.5,-166 2310.5,-172 2310.5,-172 2310.5,-184 2310.5,-184 2310.5,-190 2304.5,-196 2298.5,-196"/>
<text text-anchor="middle" x="2257" y="-175.5" font-family="sans" font-size="10.00" fill="#000000">flair_plot_isoforms</text>
</g>
<!-- 68&#45;&gt;77 -->
<g id="edge127" class="edge">
<title>68&#45;&gt;77</title>
<path fill="none" stroke="#c0c0c0" stroke-width="2" d="M2201.4488,-231.7476C2210.5781,-222.9147 2221.3104,-212.5308 2230.8953,-203.2571"/>
<polygon fill="#c0c0c0" stroke="#c0c0c0" stroke-width="2" points="2233.5306,-205.5775 2238.2837,-196.1087 2228.6631,-200.5468 2233.5306,-205.5775"/>
</g>
<!-- 69 -->
<g id="node70" class="node">
<title>69</title>
<path fill="none" stroke="#56d873" stroke-width="2" d="M2353.5,-345C2353.5,-345 2296.5,-345 2296.5,-345 2290.5,-345 2284.5,-339 2284.5,-333 2284.5,-333 2284.5,-321 2284.5,-321 2284.5,-315 2290.5,-309 2296.5,-309 2296.5,-309 2353.5,-309 2353.5,-309 2359.5,-309 2365.5,-315 2365.5,-321 2365.5,-321 2365.5,-333 2365.5,-333 2365.5,-339 2359.5,-345 2353.5,-345"/>
<text text-anchor="middle" x="2325" y="-324.5" font-family="sans" font-size="10.00" fill="#000000">flair_quantify</text>
</g>
<!-- 69&#45;&gt;68 -->
<g id="edge101" class="edge">
<title>69&#45;&gt;68</title>
<path fill="none" stroke="#c0c0c0" stroke-width="2" d="M2289.8995,-308.9656C2271.6561,-299.5923 2249.0618,-287.9835 2229.1132,-277.734"/>
<polygon fill="#c0c0c0" stroke="#c0c0c0" stroke-width="2" points="2230.6531,-274.5903 2220.1589,-273.1334 2227.4541,-280.8166 2230.6531,-274.5903"/>
</g>
<!-- 69&#45;&gt;77 -->
<g id="edge129" class="edge">
<title>69&#45;&gt;77</title>
<path fill="none" stroke="#c0c0c0" stroke-width="2" d="M2316.8027,-308.7669C2308.1845,-289.6264 2294.2077,-258.6669 2282,-232 2278.0633,-223.4006 2273.7451,-214.046 2269.8218,-205.576"/>
<polygon fill="#c0c0c0" stroke="#c0c0c0" stroke-width="2" points="2272.984,-204.0755 2265.6013,-196.4764 2266.6338,-207.0208 2272.984,-204.0755"/>
</g>
<!-- 70 -->
<g id="node71" class="node">
<title>70</title>
<path fill="none" stroke="#56a2d8" stroke-width="2" d="M2364,-417C2364,-417 2296,-417 2296,-417 2290,-417 2284,-411 2284,-405 2284,-405 2284,-393 2284,-393 2284,-387 2290,-381 2296,-381 2296,-381 2364,-381 2364,-381 2370,-381 2376,-387 2376,-393 2376,-393 2376,-405 2376,-405 2376,-411 2370,-417 2364,-417"/>
<text text-anchor="middle" x="2330" y="-396.5" font-family="sans" font-size="10.00" fill="#000000">reads_manifest</text>
</g>
<!-- 70&#45;&gt;69 -->
<g id="edge102" class="edge">
<title>70&#45;&gt;69</title>
<path fill="none" stroke="#c0c0c0" stroke-width="2" d="M2328.7383,-380.8314C2328.2035,-373.131 2327.5677,-363.9743 2326.9734,-355.4166"/>
<polygon fill="#c0c0c0" stroke="#c0c0c0" stroke-width="2" points="2330.4632,-355.1467 2326.2787,-345.4133 2323.48,-355.6317 2330.4632,-355.1467"/>
</g>
<!-- 71&#45;&gt;69 -->
<g id="edge103" class="edge">
<title>71&#45;&gt;69</title>
<path fill="none" stroke="#c0c0c0" stroke-width="2" d="M2250.2342,-380.8314C2262.788,-371.7927 2278.1283,-360.7476 2291.6391,-351.0198"/>
<polygon fill="#c0c0c0" stroke="#c0c0c0" stroke-width="2" points="2293.7036,-353.8463 2299.7739,-345.1628 2289.6134,-348.1655 2293.7036,-353.8463"/>
</g>
<!-- 71&#45;&gt;77 -->
<g id="edge128" class="edge">
<title>71&#45;&gt;77</title>
<path fill="none" stroke="#c0c0c0" stroke-width="2" d="M2229.0995,-380.7356C2234.4384,-356.3121 2243.712,-311.6091 2249,-273 2252.0558,-250.6893 2254.1231,-225.2602 2255.3895,-206.329"/>
<polygon fill="#c0c0c0" stroke="#c0c0c0" stroke-width="2" points="2258.8872,-206.4759 2256.028,-196.2742 2251.9012,-206.0323 2258.8872,-206.4759"/>
</g>
<!-- 72&#45;&gt;71 -->
<g id="edge104" class="edge">
<title>72&#45;&gt;71</title>
<path fill="none" stroke="#c0c0c0" stroke-width="2" d="M2273.5978,-452.8314C2265.9585,-444.3694 2256.7317,-434.1489 2248.3793,-424.8971"/>
<polygon fill="#c0c0c0" stroke="#c0c0c0" stroke-width="2" points="2250.9221,-422.4906 2241.6231,-417.4133 2245.7262,-427.1813 2250.9221,-422.4906"/>
</g>
<!-- 73&#45;&gt;72 -->
<g id="edge114" class="edge">
<title>73&#45;&gt;72</title>
<path fill="none" stroke="#c0c0c0" stroke-width="2" d="M2287.0094,-524.8314C2287.4372,-517.131 2287.9459,-507.9743 2288.4213,-499.4166"/>
<polygon fill="#c0c0c0" stroke="#c0c0c0" stroke-width="2" points="2291.9169,-499.592 2288.977,-489.4133 2284.9276,-499.2037 2291.9169,-499.592"/>
</g>
<!-- 74&#45;&gt;73 -->
<g id="edge123" class="edge">
<title>74&#45;&gt;73</title>
<path fill="none" stroke="#c0c0c0" stroke-width="2" d="M2229.4311,-668.9386C2221.8131,-650.163 2213.388,-620.3155 2224,-597 2229.174,-585.6322 2238.0543,-575.7268 2247.5028,-567.6122"/>
<polygon fill="#c0c0c0" stroke="#c0c0c0" stroke-width="2" points="2249.8729,-570.1986 2255.5042,-561.2243 2245.5055,-564.7281 2249.8729,-570.1986"/>
</g>
<!-- 75&#45;&gt;71 -->
<g id="edge106" class="edge">
<title>75&#45;&gt;71</title>
<path fill="none" stroke="#c0c0c0" stroke-width="2" d="M2134.3751,-524.8694C2142.4577,-506.0372 2156.4941,-476.1442 2173,-453 2180.1892,-442.9194 2189.2162,-432.8738 2197.7223,-424.2292"/>
<polygon fill="#c0c0c0" stroke="#c0c0c0" stroke-width="2" points="2200.3552,-426.548 2205.004,-417.0275 2195.4328,-421.571 2200.3552,-426.548"/>
</g>
<!-- 75&#45;&gt;72 -->
<g id="edge115" class="edge">
<title>75&#45;&gt;72</title>
<path fill="none" stroke="#c0c0c0" stroke-width="2" d="M2158.815,-528.9468C2182.9322,-518.2938 2216.4358,-503.4946 2243.5474,-491.5189"/>
<polygon fill="#c0c0c0" stroke="#c0c0c0" stroke-width="2" points="2245.1116,-494.6543 2252.8447,-487.4122 2242.2831,-488.2512 2245.1116,-494.6543"/>
</g>
<!-- 76 -->
<g id="node77" class="node">
<title>76</title>
<path fill="none" stroke="#56d8d8" stroke-width="2" d="M2290.5,-116C2290.5,-116 2203.5,-116 2203.5,-116 2197.5,-116 2191.5,-110 2191.5,-104 2191.5,-104 2191.5,-92 2191.5,-92 2191.5,-86 2197.5,-80 2203.5,-80 2203.5,-80 2290.5,-80 2290.5,-80 2296.5,-80 2302.5,-86 2302.5,-92 2302.5,-92 2302.5,-104 2302.5,-104 2302.5,-110 2296.5,-116 2290.5,-116"/>
<text text-anchor="middle" x="2247" y="-95.5" font-family="sans" font-size="10.00" fill="#000000">iso_analysis_report</text>
</g>
<!-- 76&#45;&gt;0 -->
<g id="edge29" class="edge">
<title>76&#45;&gt;0</title>
<path fill="none" stroke="#c0c0c0" stroke-width="2" d="M2191.7567,-79.9633C2180.3699,-76.8347 2168.3796,-73.9614 2157,-72 1987.698,-42.8196 1445.8048,-23.8805 1297.7109,-19.1586"/>
<polygon fill="#c0c0c0" stroke="#c0c0c0" stroke-width="2" points="1297.4502,-15.6487 1287.3446,-18.8309 1297.229,-22.6452 1297.4502,-15.6487"/>
</g>
<!-- 77&#45;&gt;76 -->
<g id="edge126" class="edge">
<title>77&#45;&gt;76</title>
<path fill="none" stroke="#c0c0c0" stroke-width="2" d="M2254.7308,-159.8468C2253.4906,-149.9251 2251.9271,-137.4167 2250.5312,-126.2492"/>
<polygon fill="#c0c0c0" stroke="#c0c0c0" stroke-width="2" points="2253.9736,-125.57 2249.2602,-116.0814 2247.0276,-126.4383 2253.9736,-125.57"/>
</g>
</g>
</svg>
