<?xml version="1.0" encoding="UTF-8" standalone="no"?>
<!DOCTYPE svg PUBLIC "-//W3C//DTD SVG 1.1//EN"
 "http://www.w3.org/Graphics/SVG/1.1/DTD/svg11.dtd">
<!-- Generated by graphviz version 2.40.1 (0)
 -->
<!-- Title: snakemake_dag Pages: 1 -->
<svg width="1056pt" height="908pt"
 viewBox="0.00 0.00 1055.50 908.00" xmlns="http://www.w3.org/2000/svg" xmlns:xlink="http://www.w3.org/1999/xlink">
<g id="graph0" class="graph" transform="scale(1 1) rotate(0) translate(4 904)">
<title>snakemake_dag</title>
<polygon fill="#ffffff" stroke="transparent" points="-4,4 -4,-904 1051.5,-904 1051.5,4 -4,4"/>
<!-- 0 -->
<g id="node1" class="node">
<title>0</title>
<path fill="none" stroke="#d87556" stroke-width="2" d="M511.5,-36C511.5,-36 481.5,-36 481.5,-36 475.5,-36 469.5,-30 469.5,-24 469.5,-24 469.5,-12 469.5,-12 469.5,-6 475.5,0 481.5,0 481.5,0 511.5,0 511.5,0 517.5,0 523.5,-6 523.5,-12 523.5,-12 523.5,-24 523.5,-24 523.5,-30 517.5,-36 511.5,-36"/>
<text text-anchor="middle" x="496.5" y="-15.5" font-family="sans" font-size="10.00" fill="#000000">all</text>
</g>
<!-- 1 -->
<g id="node2" class="node">
<title>1</title>
<path fill="none" stroke="#afd856" stroke-width="2" d="M79,-108C79,-108 12,-108 12,-108 6,-108 0,-102 0,-96 0,-96 0,-84 0,-84 0,-78 6,-72 12,-72 12,-72 79,-72 79,-72 85,-72 91,-78 91,-84 91,-84 91,-96 91,-96 91,-102 85,-108 79,-108"/>
<text text-anchor="middle" x="45.5" y="-87.5" font-family="sans" font-size="10.00" fill="#000000">dump_versions</text>
</g>
<!-- 1&#45;&gt;0 -->
<g id="edge5" class="edge">
<title>1&#45;&gt;0</title>
<path fill="none" stroke="#c0c0c0" stroke-width="2" d="M91.2414,-74.3446C94.3578,-73.4903 97.4646,-72.6976 100.5,-72 230.4291,-42.1384 388.3931,-26.6828 459.1205,-20.8299"/>
<polygon fill="#c0c0c0" stroke="#c0c0c0" stroke-width="2" points="459.6232,-24.3007 469.3075,-20.0038 459.0573,-17.3236 459.6232,-24.3007"/>
</g>
<!-- 2 -->
<g id="node3" class="node">
<title>2</title>
<path fill="none" stroke="#5682d8" stroke-width="2" d="M191.5,-108C191.5,-108 121.5,-108 121.5,-108 115.5,-108 109.5,-102 109.5,-96 109.5,-96 109.5,-84 109.5,-84 109.5,-78 115.5,-72 121.5,-72 121.5,-72 191.5,-72 191.5,-72 197.5,-72 203.5,-78 203.5,-84 203.5,-84 203.5,-96 203.5,-96 203.5,-102 197.5,-108 191.5,-108"/>
<text text-anchor="middle" x="156.5" y="-87.5" font-family="sans" font-size="10.00" fill="#000000">sample_qa_plot</text>
</g>
<!-- 2&#45;&gt;0 -->
<g id="edge7" class="edge">
<title>2&#45;&gt;0</title>
<path fill="none" stroke="#c0c0c0" stroke-width="2" d="M203.7375,-74.3652C206.6919,-73.5276 209.6301,-72.7311 212.5,-72 299.9979,-49.7096 404.7741,-32.0799 459.3318,-23.5687"/>
<polygon fill="#c0c0c0" stroke="#c0c0c0" stroke-width="2" points="459.8884,-27.0243 469.2365,-22.0379 458.8192,-20.1064 459.8884,-27.0243"/>
</g>
<!-- 3 -->
<g id="node4" class="node">
<title>3</title>
<path fill="none" stroke="#5663d8" stroke-width="2" d="M331.5,-108C331.5,-108 233.5,-108 233.5,-108 227.5,-108 221.5,-102 221.5,-96 221.5,-96 221.5,-84 221.5,-84 221.5,-78 227.5,-72 233.5,-72 233.5,-72 331.5,-72 331.5,-72 337.5,-72 343.5,-78 343.5,-84 343.5,-84 343.5,-96 343.5,-96 343.5,-102 337.5,-108 331.5,-108"/>
<text text-anchor="middle" x="282.5" y="-87.5" font-family="sans" font-size="10.00" fill="#000000">total_sample_qa_plot</text>
</g>
<!-- 3&#45;&gt;0 -->
<g id="edge3" class="edge">
<title>3&#45;&gt;0</title>
<path fill="none" stroke="#c0c0c0" stroke-width="2" d="M336.225,-71.9243C374.7639,-58.9579 425.6822,-41.8265 459.6833,-30.3869"/>
<polygon fill="#c0c0c0" stroke="#c0c0c0" stroke-width="2" points="460.8677,-33.6813 469.2295,-27.1751 458.6355,-27.0467 460.8677,-33.6813"/>
</g>
<!-- 4 -->
<g id="node5" class="node">
<title>4</title>
<path fill="none" stroke="#d89c56" stroke-width="2" d="M629.5,-180C629.5,-180 585.5,-180 585.5,-180 579.5,-180 573.5,-174 573.5,-168 573.5,-168 573.5,-156 573.5,-156 573.5,-150 579.5,-144 585.5,-144 585.5,-144 629.5,-144 629.5,-144 635.5,-144 641.5,-150 641.5,-156 641.5,-156 641.5,-168 641.5,-168 641.5,-174 635.5,-180 629.5,-180"/>
<text text-anchor="middle" x="607.5" y="-159.5" font-family="sans" font-size="10.00" fill="#000000">bam_stats</text>
</g>
<!-- 4&#45;&gt;0 -->
<g id="edge8" class="edge">
<title>4&#45;&gt;0</title>
<path fill="none" stroke="#c0c0c0" stroke-width="2" d="M593.4418,-143.7623C574.0087,-118.5518 538.8267,-72.9103 516.615,-44.0952"/>
<polygon fill="#c0c0c0" stroke="#c0c0c0" stroke-width="2" points="519.3212,-41.8729 510.4441,-36.0896 513.7772,-46.1465 519.3212,-41.8729"/>
</g>
<!-- 5 -->
<g id="node6" class="node">
<title>5</title>
<path fill="none" stroke="#5692d8" stroke-width="2" d="M619.5,-540C619.5,-540 563.5,-540 563.5,-540 557.5,-540 551.5,-534 551.5,-528 551.5,-528 551.5,-516 551.5,-516 551.5,-510 557.5,-504 563.5,-504 563.5,-504 619.5,-504 619.5,-504 625.5,-504 631.5,-510 631.5,-516 631.5,-516 631.5,-528 631.5,-528 631.5,-534 625.5,-540 619.5,-540"/>
<text text-anchor="middle" x="591.5" y="-519.5" font-family="sans" font-size="10.00" fill="#000000">sam_to_bam</text>
</g>
<!-- 5&#45;&gt;4 -->
<g id="edge12" class="edge">
<title>5&#45;&gt;4</title>
<path fill="none" stroke="#c0c0c0" stroke-width="2" d="M593.7792,-503.8486C597.0012,-476.5755 602.5,-423.3818 602.5,-378 602.5,-378 602.5,-378 602.5,-306 602.5,-265.8518 604.4653,-219.4451 605.9316,-190.4076"/>
<polygon fill="#c0c0c0" stroke="#c0c0c0" stroke-width="2" points="609.4394,-190.3468 606.464,-180.1784 602.4489,-189.9829 609.4394,-190.3468"/>
</g>
<!-- 15 -->
<g id="node16" class="node">
<title>15</title>
<path fill="none" stroke="#d88d56" stroke-width="2" d="M549.5,-468C549.5,-468 511.5,-468 511.5,-468 505.5,-468 499.5,-462 499.5,-456 499.5,-456 499.5,-444 499.5,-444 499.5,-438 505.5,-432 511.5,-432 511.5,-432 549.5,-432 549.5,-432 555.5,-432 561.5,-438 561.5,-444 561.5,-444 561.5,-456 561.5,-456 561.5,-462 555.5,-468 549.5,-468"/>
<text text-anchor="middle" x="530.5" y="-447.5" font-family="sans" font-size="10.00" fill="#000000">bam_sort</text>
</g>
<!-- 5&#45;&gt;15 -->
<g id="edge22" class="edge">
<title>5&#45;&gt;15</title>
<path fill="none" stroke="#c0c0c0" stroke-width="2" d="M576.1071,-503.8314C569.0096,-495.454 560.452,-485.3531 552.676,-476.1749"/>
<polygon fill="#c0c0c0" stroke="#c0c0c0" stroke-width="2" points="555.2348,-473.7807 546.1001,-468.4133 549.8939,-478.3056 555.2348,-473.7807"/>
</g>
<!-- 16 -->
<g id="node17" class="node">
<title>16</title>
<path fill="none" stroke="#ced856" stroke-width="2" d="M698.5,-468C698.5,-468 646.5,-468 646.5,-468 640.5,-468 634.5,-462 634.5,-456 634.5,-456 634.5,-444 634.5,-444 634.5,-438 640.5,-432 646.5,-432 646.5,-432 698.5,-432 698.5,-432 704.5,-432 710.5,-438 710.5,-444 710.5,-444 710.5,-456 710.5,-456 710.5,-462 704.5,-468 698.5,-468"/>
<text text-anchor="middle" x="672.5" y="-447.5" font-family="sans" font-size="10.00" fill="#000000">count_reads</text>
</g>
<!-- 5&#45;&gt;16 -->
<g id="edge23" class="edge">
<title>5&#45;&gt;16</title>
<path fill="none" stroke="#c0c0c0" stroke-width="2" d="M611.9397,-503.8314C621.8205,-495.0485 633.8324,-484.3712 644.545,-474.8489"/>
<polygon fill="#c0c0c0" stroke="#c0c0c0" stroke-width="2" points="646.918,-477.4224 652.0668,-468.1628 642.2674,-472.1906 646.918,-477.4224"/>
</g>
<!-- 6 -->
<g id="node7" class="node">
<title>6</title>
<path fill="none" stroke="#56b9d8" stroke-width="2" d="M613,-612C613,-612 566,-612 566,-612 560,-612 554,-606 554,-600 554,-600 554,-588 554,-588 554,-582 560,-576 566,-576 566,-576 613,-576 613,-576 619,-576 625,-582 625,-588 625,-588 625,-600 625,-600 625,-606 619,-612 613,-612"/>
<text text-anchor="middle" x="589.5" y="-591.5" font-family="sans" font-size="10.00" fill="#000000">map_reads</text>
</g>
<!-- 6&#45;&gt;5 -->
<g id="edge13" class="edge">
<title>6&#45;&gt;5</title>
<path fill="none" stroke="#c0c0c0" stroke-width="2" d="M590.0047,-575.8314C590.2186,-568.131 590.4729,-558.9743 590.7106,-550.4166"/>
<polygon fill="#c0c0c0" stroke="#c0c0c0" stroke-width="2" points="594.2094,-550.5066 590.9885,-540.4133 587.2121,-550.3122 594.2094,-550.5066"/>
</g>
<!-- 7 -->
<g id="node8" class="node">
<title>7</title>
<path fill="none" stroke="#d8c356" stroke-width="2" d="M638.5,-684C638.5,-684 540.5,-684 540.5,-684 534.5,-684 528.5,-678 528.5,-672 528.5,-672 528.5,-660 528.5,-660 528.5,-654 534.5,-648 540.5,-648 540.5,-648 638.5,-648 638.5,-648 644.5,-648 650.5,-654 650.5,-660 650.5,-660 650.5,-672 650.5,-672 650.5,-678 644.5,-684 638.5,-684"/>
<text text-anchor="middle" x="589.5" y="-663.5" font-family="sans" font-size="10.00" fill="#000000">build_minimap_index</text>
</g>
<!-- 7&#45;&gt;6 -->
<g id="edge15" class="edge">
<title>7&#45;&gt;6</title>
<path fill="none" stroke="#c0c0c0" stroke-width="2" d="M589.5,-647.8314C589.5,-640.131 589.5,-630.9743 589.5,-622.4166"/>
<polygon fill="#c0c0c0" stroke="#c0c0c0" stroke-width="2" points="593.0001,-622.4132 589.5,-612.4133 586.0001,-622.4133 593.0001,-622.4132"/>
</g>
<!-- 8 -->
<g id="node9" class="node">
<title>8</title>
<path fill="none" stroke="#56d87b" stroke-width="2" d="M708,-756C708,-756 587,-756 587,-756 581,-756 575,-750 575,-744 575,-744 575,-732 575,-732 575,-726 581,-720 587,-720 587,-720 708,-720 708,-720 714,-720 720,-726 720,-732 720,-732 720,-744 720,-744 720,-750 714,-756 708,-756"/>
<text text-anchor="middle" x="647.5" y="-735.5" font-family="sans" font-size="10.00" fill="#000000">genome_to_transcriptome</text>
</g>
<!-- 8&#45;&gt;7 -->
<g id="edge16" class="edge">
<title>8&#45;&gt;7</title>
<path fill="none" stroke="#c0c0c0" stroke-width="2" d="M632.8642,-719.8314C626.1839,-711.5386 618.1432,-701.557 610.8096,-692.4533"/>
<polygon fill="#c0c0c0" stroke="#c0c0c0" stroke-width="2" points="613.3319,-690.0052 604.3329,-684.4133 607.8806,-694.3965 613.3319,-690.0052"/>
</g>
<!-- 8&#45;&gt;16 -->
<g id="edge24" class="edge">
<title>8&#45;&gt;16</title>
<path fill="none" stroke="#c0c0c0" stroke-width="2" d="M652.3613,-719.6407C654.9136,-709.2559 657.8464,-695.9871 659.5,-684 669.6747,-610.2433 671.9458,-522.367 672.4137,-478.2434"/>
<polygon fill="#c0c0c0" stroke="#c0c0c0" stroke-width="2" points="675.9154,-478.0318 672.4975,-468.0034 668.9157,-477.9744 675.9154,-478.0318"/>
</g>
<!-- 32 -->
<g id="node33" class="node">
<title>32</title>
<path fill="none" stroke="#56d86b" stroke-width="2" d="M1035.5,-252C1035.5,-252 937.5,-252 937.5,-252 931.5,-252 925.5,-246 925.5,-240 925.5,-240 925.5,-228 925.5,-228 925.5,-222 931.5,-216 937.5,-216 937.5,-216 1035.5,-216 1035.5,-216 1041.5,-216 1047.5,-222 1047.5,-228 1047.5,-228 1047.5,-240 1047.5,-240 1047.5,-246 1041.5,-252 1035.5,-252"/>
<text text-anchor="middle" x="986.5" y="-231.5" font-family="sans" font-size="10.00" fill="#000000">generate_gene_query</text>
</g>
<!-- 8&#45;&gt;32 -->
<g id="edge50" class="edge">
<title>8&#45;&gt;32</title>
<path fill="none" stroke="#c0c0c0" stroke-width="2" d="M720.1127,-731.1302C801.5872,-718.9578 922.5,-685.4825 922.5,-594 922.5,-594 922.5,-594 922.5,-378 922.5,-334.0584 947.6932,-288.5709 966.4667,-260.7747"/>
<polygon fill="#c0c0c0" stroke="#c0c0c0" stroke-width="2" points="969.458,-262.6035 972.2963,-252.3959 963.712,-258.6056 969.458,-262.6035"/>
</g>
<!-- 9 -->
<g id="node10" class="node">
<title>9</title>
<path fill="none" stroke="#56d892" stroke-width="2" d="M346,-828C346,-828 293,-828 293,-828 287,-828 281,-822 281,-816 281,-816 281,-804 281,-804 281,-798 287,-792 293,-792 293,-792 346,-792 346,-792 352,-792 358,-798 358,-804 358,-804 358,-816 358,-816 358,-822 352,-828 346,-828"/>
<text text-anchor="middle" x="319.5" y="-807.5" font-family="sans" font-size="10.00" fill="#000000">get_genome</text>
</g>
<!-- 9&#45;&gt;8 -->
<g id="edge17" class="edge">
<title>9&#45;&gt;8</title>
<path fill="none" stroke="#c0c0c0" stroke-width="2" d="M358.0903,-801.529C408.6679,-790.4266 498.7186,-770.6593 564.9797,-756.1142"/>
<polygon fill="#c0c0c0" stroke="#c0c0c0" stroke-width="2" points="565.9705,-759.4801 574.9875,-753.9174 564.4696,-752.6429 565.9705,-759.4801"/>
</g>
<!-- 22 -->
<g id="node23" class="node">
<title>22</title>
<path fill="none" stroke="#88d856" stroke-width="2" d="M344,-540C344,-540 287,-540 287,-540 281,-540 275,-534 275,-528 275,-528 275,-516 275,-516 275,-510 281,-504 287,-504 287,-504 344,-504 344,-504 350,-504 356,-510 356,-516 356,-516 356,-528 356,-528 356,-534 350,-540 344,-540"/>
<text text-anchor="middle" x="315.5" y="-519.5" font-family="sans" font-size="10.00" fill="#000000">flair_collapse</text>
</g>
<!-- 9&#45;&gt;22 -->
<g id="edge30" class="edge">
<title>9&#45;&gt;22</title>
<path fill="none" stroke="#c0c0c0" stroke-width="2" d="M280.8583,-797.5239C261.4743,-789.0837 239.7717,-775.7956 228.5,-756 188.2218,-685.2627 253.8678,-592.3726 291.6971,-547.9061"/>
<polygon fill="#c0c0c0" stroke="#c0c0c0" stroke-width="2" points="294.49,-550.0279 298.4051,-540.183 289.2052,-545.4376 294.49,-550.0279"/>
</g>
<!-- 23 -->
<g id="node24" class="node">
<title>23</title>
<path fill="none" stroke="#78d856" stroke-width="2" d="M340.5,-612C340.5,-612 290.5,-612 290.5,-612 284.5,-612 278.5,-606 278.5,-600 278.5,-600 278.5,-588 278.5,-588 278.5,-582 284.5,-576 290.5,-576 290.5,-576 340.5,-576 340.5,-576 346.5,-576 352.5,-582 352.5,-588 352.5,-588 352.5,-600 352.5,-600 352.5,-606 346.5,-612 340.5,-612"/>
<text text-anchor="middle" x="315.5" y="-591.5" font-family="sans" font-size="10.00" fill="#000000">flair_correct</text>
</g>
<!-- 9&#45;&gt;23 -->
<g id="edge34" class="edge">
<title>9&#45;&gt;23</title>
<path fill="none" stroke="#c0c0c0" stroke-width="2" d="M280.8196,-793.9272C265.0153,-785.2011 248.3867,-772.7203 239.5,-756 214.3938,-708.7629 257.4479,-651.7771 288.3271,-619.5294"/>
<polygon fill="#c0c0c0" stroke="#c0c0c0" stroke-width="2" points="290.9547,-621.8493 295.4775,-612.2684 285.9671,-616.9377 290.9547,-621.8493"/>
</g>
<!-- 24 -->
<g id="node25" class="node">
<title>24</title>
<path fill="none" stroke="#97d856" stroke-width="2" d="M340,-684C340,-684 299,-684 299,-684 293,-684 287,-678 287,-672 287,-672 287,-660 287,-660 287,-654 293,-648 299,-648 299,-648 340,-648 340,-648 346,-648 352,-654 352,-660 352,-660 352,-672 352,-672 352,-678 346,-684 340,-684"/>
<text text-anchor="middle" x="319.5" y="-663.5" font-family="sans" font-size="10.00" fill="#000000">flair_align</text>
</g>
<!-- 9&#45;&gt;24 -->
<g id="edge37" class="edge">
<title>9&#45;&gt;24</title>
<path fill="none" stroke="#c0c0c0" stroke-width="2" d="M358.1804,-793.9272C373.9847,-785.2011 390.6133,-772.7203 399.5,-756 407.0092,-741.8716 407.0092,-734.1284 399.5,-720 391.2289,-704.438 376.2514,-692.5485 361.4739,-683.9405"/>
<polygon fill="#c0c0c0" stroke="#c0c0c0" stroke-width="2" points="362.82,-680.6891 352.3604,-679.0014 359.4846,-686.8434 362.82,-680.6891"/>
</g>
<!-- 25 -->
<g id="node26" class="node">
<title>25</title>
<path fill="none" stroke="#d8bc56" stroke-width="2" d="M378.5,-756C378.5,-756 260.5,-756 260.5,-756 254.5,-756 248.5,-750 248.5,-744 248.5,-744 248.5,-732 248.5,-732 248.5,-726 254.5,-720 260.5,-720 260.5,-720 378.5,-720 378.5,-720 384.5,-720 390.5,-726 390.5,-732 390.5,-732 390.5,-744 390.5,-744 390.5,-750 384.5,-756 378.5,-756"/>
<text text-anchor="middle" x="319.5" y="-735.5" font-family="sans" font-size="10.00" fill="#000000">build_flair_genome_index</text>
</g>
<!-- 9&#45;&gt;25 -->
<g id="edge40" class="edge">
<title>9&#45;&gt;25</title>
<path fill="none" stroke="#c0c0c0" stroke-width="2" d="M319.5,-791.8314C319.5,-784.131 319.5,-774.9743 319.5,-766.4166"/>
<polygon fill="#c0c0c0" stroke="#c0c0c0" stroke-width="2" points="323.0001,-766.4132 319.5,-756.4133 316.0001,-766.4133 323.0001,-766.4132"/>
</g>
<!-- 10 -->
<g id="node11" class="node">
<title>10</title>
<path fill="none" stroke="#5673d8" stroke-width="2" d="M630.5,-828C630.5,-828 562.5,-828 562.5,-828 556.5,-828 550.5,-822 550.5,-816 550.5,-816 550.5,-804 550.5,-804 550.5,-798 556.5,-792 562.5,-792 562.5,-792 630.5,-792 630.5,-792 636.5,-792 642.5,-798 642.5,-804 642.5,-804 642.5,-816 642.5,-816 642.5,-822 636.5,-828 630.5,-828"/>
<text text-anchor="middle" x="596.5" y="-807.5" font-family="sans" font-size="10.00" fill="#000000">standardize_gff</text>
</g>
<!-- 10&#45;&gt;8 -->
<g id="edge18" class="edge">
<title>10&#45;&gt;8</title>
<path fill="none" stroke="#c0c0c0" stroke-width="2" d="M609.3695,-791.8314C615.1835,-783.6232 622.1696,-773.7606 628.5646,-764.7323"/>
<polygon fill="#c0c0c0" stroke="#c0c0c0" stroke-width="2" points="631.5331,-766.5966 634.4573,-756.4133 625.821,-762.5505 631.5331,-766.5966"/>
</g>
<!-- 26 -->
<g id="node27" class="node">
<title>26</title>
<path fill="none" stroke="#56d8d0" stroke-width="2" d="M460,-684C460,-684 421,-684 421,-684 415,-684 409,-678 409,-672 409,-672 409,-660 409,-660 409,-654 415,-648 421,-648 421,-648 460,-648 460,-648 466,-648 472,-654 472,-660 472,-660 472,-672 472,-672 472,-678 466,-684 460,-684"/>
<text text-anchor="middle" x="440.5" y="-663.5" font-family="sans" font-size="10.00" fill="#000000">gff_to_gtf</text>
</g>
<!-- 10&#45;&gt;26 -->
<g id="edge41" class="edge">
<title>10&#45;&gt;26</title>
<path fill="none" stroke="#c0c0c0" stroke-width="2" d="M585.2052,-791.9205C572.5337,-772.5867 550.5775,-741.7748 526.5,-720 512.8368,-707.6435 495.9995,-696.3776 480.8556,-687.3705"/>
<polygon fill="#c0c0c0" stroke="#c0c0c0" stroke-width="2" points="482.5785,-684.3237 472.1716,-682.3371 479.0682,-690.38 482.5785,-684.3237"/>
</g>
<!-- 11 -->
<g id="node12" class="node">
<title>11</title>
<path fill="none" stroke="#56d88a" stroke-width="2" d="M629.5,-900C629.5,-900 563.5,-900 563.5,-900 557.5,-900 551.5,-894 551.5,-888 551.5,-888 551.5,-876 551.5,-876 551.5,-870 557.5,-864 563.5,-864 563.5,-864 629.5,-864 629.5,-864 635.5,-864 641.5,-870 641.5,-876 641.5,-876 641.5,-888 641.5,-888 641.5,-894 635.5,-900 629.5,-900"/>
<text text-anchor="middle" x="596.5" y="-879.5" font-family="sans" font-size="10.00" fill="#000000">get_annotation</text>
</g>
<!-- 11&#45;&gt;10 -->
<g id="edge19" class="edge">
<title>11&#45;&gt;10</title>
<path fill="none" stroke="#c0c0c0" stroke-width="2" d="M596.5,-863.8314C596.5,-856.131 596.5,-846.9743 596.5,-838.4166"/>
<polygon fill="#c0c0c0" stroke="#c0c0c0" stroke-width="2" points="600.0001,-838.4132 596.5,-828.4133 593.0001,-838.4133 600.0001,-838.4132"/>
</g>
<!-- 12 -->
<g id="node13" class="node">
<title>12</title>
<path fill="none" stroke="#a7d856" stroke-width="2" d="M506,-756C506,-756 459,-756 459,-756 453,-756 447,-750 447,-744 447,-744 447,-732 447,-732 447,-726 453,-720 459,-720 459,-720 506,-720 506,-720 512,-720 518,-726 518,-732 518,-732 518,-744 518,-744 518,-750 512,-756 506,-756"/>
<text text-anchor="middle" x="482.5" y="-735.5" font-family="sans" font-size="10.00" fill="#000000">filter_reads</text>
</g>
<!-- 12&#45;&gt;6 -->
<g id="edge14" class="edge">
<title>12&#45;&gt;6</title>
<path fill="none" stroke="#c0c0c0" stroke-width="2" d="M486.9869,-719.6639C492.3616,-700.3917 502.7937,-669.8903 519.5,-648 528.1076,-636.7214 539.6258,-626.5473 550.8303,-618.1505"/>
<polygon fill="#c0c0c0" stroke="#c0c0c0" stroke-width="2" points="553.198,-620.7595 559.284,-612.087 549.1182,-615.0714 553.198,-620.7595"/>
</g>
<!-- 12&#45;&gt;22 -->
<g id="edge33" class="edge">
<title>12&#45;&gt;22</title>
<path fill="none" stroke="#c0c0c0" stroke-width="2" d="M446.6568,-721.514C430.3346,-712.4516 411.9296,-699.8132 399.5,-684 368.0548,-643.9946 386.8694,-620.1093 361.5,-576 355.8233,-566.1301 348.2473,-556.3461 340.8841,-547.8733"/>
<polygon fill="#c0c0c0" stroke="#c0c0c0" stroke-width="2" points="343.2544,-545.2753 333.9588,-540.1916 338.0553,-549.9625 343.2544,-545.2753"/>
</g>
<!-- 12&#45;&gt;24 -->
<g id="edge39" class="edge">
<title>12&#45;&gt;24</title>
<path fill="none" stroke="#c0c0c0" stroke-width="2" d="M446.729,-722.1993C421.6062,-711.1021 387.9121,-696.2188 361.5097,-684.5565"/>
<polygon fill="#c0c0c0" stroke="#c0c0c0" stroke-width="2" points="362.7034,-681.2575 352.1418,-680.4185 359.875,-687.6607 362.7034,-681.2575"/>
</g>
<!-- 13 -->
<g id="node14" class="node">
<title>13</title>
<path fill="none" stroke="#d86656" stroke-width="2" d="M543.5,-180C543.5,-180 449.5,-180 449.5,-180 443.5,-180 437.5,-174 437.5,-168 437.5,-168 437.5,-156 437.5,-156 437.5,-150 443.5,-144 449.5,-144 449.5,-144 543.5,-144 543.5,-144 549.5,-144 555.5,-150 555.5,-156 555.5,-156 555.5,-168 555.5,-168 555.5,-174 549.5,-180 543.5,-180"/>
<text text-anchor="middle" x="496.5" y="-159.5" font-family="sans" font-size="10.00" fill="#000000">alignment_qa_report</text>
</g>
<!-- 13&#45;&gt;0 -->
<g id="edge11" class="edge">
<title>13&#45;&gt;0</title>
<path fill="none" stroke="#c0c0c0" stroke-width="2" d="M496.5,-143.7623C496.5,-119.201 496.5,-75.2474 496.5,-46.3541"/>
<polygon fill="#c0c0c0" stroke="#c0c0c0" stroke-width="2" points="500.0001,-46.0896 496.5,-36.0896 493.0001,-46.0897 500.0001,-46.0896"/>
</g>
<!-- 14 -->
<g id="node15" class="node">
<title>14</title>
<path fill="none" stroke="#d85656" stroke-width="2" d="M547,-396C547,-396 488,-396 488,-396 482,-396 476,-390 476,-384 476,-384 476,-372 476,-372 476,-366 482,-360 488,-360 488,-360 547,-360 547,-360 553,-360 559,-366 559,-372 559,-372 559,-384 559,-384 559,-390 553,-396 547,-396"/>
<text text-anchor="middle" x="517.5" y="-375.5" font-family="sans" font-size="10.00" fill="#000000">alignment_qa</text>
</g>
<!-- 14&#45;&gt;13 -->
<g id="edge20" class="edge">
<title>14&#45;&gt;13</title>
<path fill="none" stroke="#c0c0c0" stroke-width="2" d="M515.7457,-359.9555C512.0861,-322.3144 503.6154,-235.1867 499.2343,-190.1246"/>
<polygon fill="#c0c0c0" stroke="#c0c0c0" stroke-width="2" points="502.7154,-189.7594 498.2641,-180.1451 495.7483,-190.4369 502.7154,-189.7594"/>
</g>
<!-- 15&#45;&gt;14 -->
<g id="edge21" class="edge">
<title>15&#45;&gt;14</title>
<path fill="none" stroke="#c0c0c0" stroke-width="2" d="M527.2196,-431.8314C525.8292,-424.131 524.1759,-414.9743 522.6308,-406.4166"/>
<polygon fill="#c0c0c0" stroke="#c0c0c0" stroke-width="2" points="526.0458,-405.6322 520.8246,-396.4133 519.1572,-406.8761 526.0458,-405.6322"/>
</g>
<!-- 16&#45;&gt;0 -->
<g id="edge9" class="edge">
<title>16&#45;&gt;0</title>
<path fill="none" stroke="#c0c0c0" stroke-width="2" d="M671.8784,-431.8172C670.9997,-404.504 669.5,-351.2598 669.5,-306 669.5,-306 669.5,-306 669.5,-162 669.5,-91.6597 583.9714,-49.0441 533.1889,-29.9404"/>
<polygon fill="#c0c0c0" stroke="#c0c0c0" stroke-width="2" points="534.1254,-26.5569 523.5313,-26.4319 531.7351,-33.1362 534.1254,-26.5569"/>
</g>
<!-- 17 -->
<g id="node18" class="node">
<title>17</title>
<path fill="none" stroke="#56a9d8" stroke-width="2" d="M799,-396C799,-396 710,-396 710,-396 704,-396 698,-390 698,-384 698,-384 698,-372 698,-372 698,-366 704,-360 710,-360 710,-360 799,-360 799,-360 805,-360 811,-366 811,-372 811,-372 811,-384 811,-384 811,-390 805,-396 799,-396"/>
<text text-anchor="middle" x="754.5" y="-375.5" font-family="sans" font-size="10.00" fill="#000000">merge_read_counts</text>
</g>
<!-- 16&#45;&gt;17 -->
<g id="edge25" class="edge">
<title>16&#45;&gt;17</title>
<path fill="none" stroke="#c0c0c0" stroke-width="2" d="M693.1921,-431.8314C703.1948,-423.0485 715.355,-412.3712 726.1999,-402.8489"/>
<polygon fill="#c0c0c0" stroke="#c0c0c0" stroke-width="2" points="728.6094,-405.3909 733.8146,-396.1628 723.9908,-400.1308 728.6094,-405.3909"/>
</g>
<!-- 17&#45;&gt;0 -->
<g id="edge4" class="edge">
<title>17&#45;&gt;0</title>
<path fill="none" stroke="#c0c0c0" stroke-width="2" d="M743.3586,-359.5702C737.6135,-349.3859 730.9065,-336.3312 726.5,-324 712.7431,-285.5025 707.5,-274.8816 707.5,-234 707.5,-234 707.5,-234 707.5,-162 707.5,-120.6022 712.4708,-101.5715 683.5,-72 662.6803,-50.7486 582.0335,-33.1845 533.7089,-24.2891"/>
<polygon fill="#c0c0c0" stroke="#c0c0c0" stroke-width="2" points="534.092,-20.8019 523.6298,-22.473 532.8507,-27.6909 534.092,-20.8019"/>
</g>
<!-- 18 -->
<g id="node19" class="node">
<title>18</title>
<path fill="none" stroke="#bed856" stroke-width="2" d="M819.5,-324C819.5,-324 747.5,-324 747.5,-324 741.5,-324 735.5,-318 735.5,-312 735.5,-312 735.5,-300 735.5,-300 735.5,-294 741.5,-288 747.5,-288 747.5,-288 819.5,-288 819.5,-288 825.5,-288 831.5,-294 831.5,-300 831.5,-300 831.5,-312 831.5,-312 831.5,-318 825.5,-324 819.5,-324"/>
<text text-anchor="middle" x="783.5" y="-303.5" font-family="sans" font-size="10.00" fill="#000000">diffexp_analysis</text>
</g>
<!-- 17&#45;&gt;18 -->
<g id="edge26" class="edge">
<title>17&#45;&gt;18</title>
<path fill="none" stroke="#c0c0c0" stroke-width="2" d="M761.8179,-359.8314C764.9876,-351.9617 768.77,-342.5712 772.2813,-333.8533"/>
<polygon fill="#c0c0c0" stroke="#c0c0c0" stroke-width="2" points="775.5939,-334.9968 776.0835,-324.4133 769.1008,-332.3815 775.5939,-334.9968"/>
</g>
<!-- 18&#45;&gt;0 -->
<g id="edge6" class="edge">
<title>18&#45;&gt;0</title>
<path fill="none" stroke="#c0c0c0" stroke-width="2" d="M776.5142,-287.6602C772.6957,-277.2814 768.0377,-264.0123 764.5,-252 741.2633,-173.0995 779.6297,-130.1908 721.5,-72 695.3741,-45.8466 590.5212,-29.3878 533.6423,-22.2017"/>
<polygon fill="#c0c0c0" stroke="#c0c0c0" stroke-width="2" points="533.9624,-18.7148 523.6099,-20.9675 533.1077,-25.6624 533.9624,-18.7148"/>
</g>
<!-- 18&#45;&gt;32 -->
<g id="edge49" class="edge">
<title>18&#45;&gt;32</title>
<path fill="none" stroke="#c0c0c0" stroke-width="2" d="M831.6082,-288.937C859.8557,-278.9182 895.8159,-266.1638 925.9756,-255.4668"/>
<polygon fill="#c0c0c0" stroke="#c0c0c0" stroke-width="2" points="927.292,-258.7136 935.5468,-252.0721 924.952,-252.1162 927.292,-258.7136"/>
</g>
<!-- 19 -->
<g id="node20" class="node">
<title>19</title>
<path fill="none" stroke="#68d856" stroke-width="2" d="M434.5,-396C434.5,-396 384.5,-396 384.5,-396 378.5,-396 372.5,-390 372.5,-384 372.5,-384 372.5,-372 372.5,-372 372.5,-366 378.5,-360 384.5,-360 384.5,-360 434.5,-360 434.5,-360 440.5,-360 446.5,-366 446.5,-372 446.5,-372 446.5,-384 446.5,-384 446.5,-390 440.5,-396 434.5,-396"/>
<text text-anchor="middle" x="409.5" y="-375.5" font-family="sans" font-size="10.00" fill="#000000">flair_diffexp</text>
</g>
<!-- 19&#45;&gt;0 -->
<g id="edge1" class="edge">
<title>19&#45;&gt;0</title>
<path fill="none" stroke="#c0c0c0" stroke-width="2" d="M409.5,-359.8146C409.5,-332.4983 409.5,-279.25 409.5,-234 409.5,-234 409.5,-234 409.5,-162 409.5,-115.2117 443.5641,-70.5954 469.0622,-43.7524"/>
<polygon fill="#c0c0c0" stroke="#c0c0c0" stroke-width="2" points="471.8267,-45.9318 476.3218,-36.3378 466.8249,-41.0346 471.8267,-45.9318"/>
</g>
<!-- 28 -->
<g id="node29" class="node">
<title>28</title>
<path fill="none" stroke="#61d856" stroke-width="2" d="M368,-324C368,-324 285,-324 285,-324 279,-324 273,-318 273,-312 273,-312 273,-300 273,-300 273,-294 279,-288 285,-288 285,-288 368,-288 368,-288 374,-288 380,-294 380,-300 380,-300 380,-312 380,-312 380,-318 374,-324 368,-324"/>
<text text-anchor="middle" x="326.5" y="-303.5" font-family="sans" font-size="10.00" fill="#000000">flair_plot_isoforms</text>
</g>
<!-- 19&#45;&gt;28 -->
<g id="edge43" class="edge">
<title>19&#45;&gt;28</title>
<path fill="none" stroke="#c0c0c0" stroke-width="2" d="M388.5556,-359.8314C378.4309,-351.0485 366.1223,-340.3712 355.1452,-330.8489"/>
<polygon fill="#c0c0c0" stroke="#c0c0c0" stroke-width="2" points="357.2851,-328.0718 347.4377,-324.1628 352.6981,-333.3595 357.2851,-328.0718"/>
</g>
<!-- 20 -->
<g id="node21" class="node">
<title>20</title>
<path fill="none" stroke="#56d85b" stroke-width="2" d="M421,-468C421,-468 364,-468 364,-468 358,-468 352,-462 352,-456 352,-456 352,-444 352,-444 352,-438 358,-432 364,-432 364,-432 421,-432 421,-432 427,-432 433,-438 433,-444 433,-444 433,-456 433,-456 433,-462 427,-468 421,-468"/>
<text text-anchor="middle" x="392.5" y="-447.5" font-family="sans" font-size="10.00" fill="#000000">flair_quantify</text>
</g>
<!-- 20&#45;&gt;19 -->
<g id="edge27" class="edge">
<title>20&#45;&gt;19</title>
<path fill="none" stroke="#c0c0c0" stroke-width="2" d="M396.7898,-431.8314C398.608,-424.131 400.7699,-414.9743 402.7905,-406.4166"/>
<polygon fill="#c0c0c0" stroke="#c0c0c0" stroke-width="2" points="406.2608,-406.95 405.1524,-396.4133 399.4481,-405.3414 406.2608,-406.95"/>
</g>
<!-- 20&#45;&gt;28 -->
<g id="edge45" class="edge">
<title>20&#45;&gt;28</title>
<path fill="none" stroke="#c0c0c0" stroke-width="2" d="M382.0919,-431.7457C376.3433,-421.3936 369.2285,-408.1228 363.5,-396 353.756,-375.3796 343.9995,-351.479 336.9534,-333.4922"/>
<polygon fill="#c0c0c0" stroke="#c0c0c0" stroke-width="2" points="340.2153,-332.2232 333.335,-324.1664 333.6893,-334.7553 340.2153,-332.2232"/>
</g>
<!-- 21 -->
<g id="node22" class="node">
<title>21</title>
<path fill="none" stroke="#569ad8" stroke-width="2" d="M454.5,-540C454.5,-540 386.5,-540 386.5,-540 380.5,-540 374.5,-534 374.5,-528 374.5,-528 374.5,-516 374.5,-516 374.5,-510 380.5,-504 386.5,-504 386.5,-504 454.5,-504 454.5,-504 460.5,-504 466.5,-510 466.5,-516 466.5,-516 466.5,-528 466.5,-528 466.5,-534 460.5,-540 454.5,-540"/>
<text text-anchor="middle" x="420.5" y="-519.5" font-family="sans" font-size="10.00" fill="#000000">reads_manifest</text>
</g>
<!-- 21&#45;&gt;20 -->
<g id="edge29" class="edge">
<title>21&#45;&gt;20</title>
<path fill="none" stroke="#c0c0c0" stroke-width="2" d="M413.4344,-503.8314C410.374,-495.9617 406.7221,-486.5712 403.3318,-477.8533"/>
<polygon fill="#c0c0c0" stroke="#c0c0c0" stroke-width="2" points="406.5473,-476.4647 399.6607,-468.4133 400.0232,-479.0019 406.5473,-476.4647"/>
</g>
<!-- 22&#45;&gt;20 -->
<g id="edge28" class="edge">
<title>22&#45;&gt;20</title>
<path fill="none" stroke="#c0c0c0" stroke-width="2" d="M334.9304,-503.8314C344.232,-495.1337 355.5204,-484.5783 365.6286,-475.1265"/>
<polygon fill="#c0c0c0" stroke="#c0c0c0" stroke-width="2" points="368.1621,-477.5493 373.0759,-468.1628 363.3811,-472.4363 368.1621,-477.5493"/>
</g>
<!-- 22&#45;&gt;28 -->
<g id="edge44" class="edge">
<title>22&#45;&gt;28</title>
<path fill="none" stroke="#c0c0c0" stroke-width="2" d="M316.4189,-503.9555C318.3318,-466.3938 322.7542,-379.5541 325.0532,-334.4103"/>
<polygon fill="#c0c0c0" stroke="#c0c0c0" stroke-width="2" points="328.5627,-334.3102 325.5759,-324.1451 321.5718,-333.9541 328.5627,-334.3102"/>
</g>
<!-- 23&#45;&gt;22 -->
<g id="edge32" class="edge">
<title>23&#45;&gt;22</title>
<path fill="none" stroke="#c0c0c0" stroke-width="2" d="M315.5,-575.8314C315.5,-568.131 315.5,-558.9743 315.5,-550.4166"/>
<polygon fill="#c0c0c0" stroke="#c0c0c0" stroke-width="2" points="319.0001,-550.4132 315.5,-540.4133 312.0001,-550.4133 319.0001,-550.4132"/>
</g>
<!-- 24&#45;&gt;23 -->
<g id="edge35" class="edge">
<title>24&#45;&gt;23</title>
<path fill="none" stroke="#c0c0c0" stroke-width="2" d="M318.4906,-647.8314C318.0628,-640.131 317.5541,-630.9743 317.0787,-622.4166"/>
<polygon fill="#c0c0c0" stroke="#c0c0c0" stroke-width="2" points="320.5724,-622.2037 316.523,-612.4133 313.5831,-622.592 320.5724,-622.2037"/>
</g>
<!-- 25&#45;&gt;24 -->
<g id="edge38" class="edge">
<title>25&#45;&gt;24</title>
<path fill="none" stroke="#c0c0c0" stroke-width="2" d="M319.5,-719.8314C319.5,-712.131 319.5,-702.9743 319.5,-694.4166"/>
<polygon fill="#c0c0c0" stroke="#c0c0c0" stroke-width="2" points="323.0001,-694.4132 319.5,-684.4133 316.0001,-694.4133 323.0001,-694.4132"/>
</g>
<!-- 26&#45;&gt;22 -->
<g id="edge31" class="edge">
<title>26&#45;&gt;22</title>
<path fill="none" stroke="#c0c0c0" stroke-width="2" d="M434.315,-647.8529C427.046,-628.4613 413.5158,-597.6004 394.5,-576 384.2428,-564.3487 370.949,-554.0088 358.2016,-545.5753"/>
<polygon fill="#c0c0c0" stroke="#c0c0c0" stroke-width="2" points="359.8247,-542.4597 349.5078,-540.0485 356.0692,-548.3671 359.8247,-542.4597"/>
</g>
<!-- 26&#45;&gt;23 -->
<g id="edge36" class="edge">
<title>26&#45;&gt;23</title>
<path fill="none" stroke="#c0c0c0" stroke-width="2" d="M408.9572,-647.8314C392.8209,-638.5368 373.0014,-627.1208 355.7728,-617.1971"/>
<polygon fill="#c0c0c0" stroke="#c0c0c0" stroke-width="2" points="357.445,-614.1212 347.0327,-612.1628 353.9511,-620.187 357.445,-614.1212"/>
</g>
<!-- 27 -->
<g id="node28" class="node">
<title>27</title>
<path fill="none" stroke="#56d8d8" stroke-width="2" d="M369,-252C369,-252 282,-252 282,-252 276,-252 270,-246 270,-240 270,-240 270,-228 270,-228 270,-222 276,-216 282,-216 282,-216 369,-216 369,-216 375,-216 381,-222 381,-228 381,-228 381,-240 381,-240 381,-246 375,-252 369,-252"/>
<text text-anchor="middle" x="325.5" y="-231.5" font-family="sans" font-size="10.00" fill="#000000">iso_analysis_report</text>
</g>
<!-- 27&#45;&gt;0 -->
<g id="edge10" class="edge">
<title>27&#45;&gt;0</title>
<path fill="none" stroke="#c0c0c0" stroke-width="2" d="M329.1993,-215.7908C336.6167,-183.3244 356.083,-114.8373 395.5,-72 413.0131,-52.9672 438.8053,-39.3343 459.9415,-30.5277"/>
<polygon fill="#c0c0c0" stroke="#c0c0c0" stroke-width="2" points="461.277,-33.7633 469.2787,-26.8189 458.6929,-27.2577 461.277,-33.7633"/>
</g>
<!-- 28&#45;&gt;27 -->
<g id="edge42" class="edge">
<title>28&#45;&gt;27</title>
<path fill="none" stroke="#c0c0c0" stroke-width="2" d="M326.2477,-287.8314C326.1407,-280.131 326.0135,-270.9743 325.8947,-262.4166"/>
<polygon fill="#c0c0c0" stroke="#c0c0c0" stroke-width="2" points="329.3944,-262.3637 325.7557,-252.4133 322.3951,-262.4609 329.3944,-262.3637"/>
</g>
<!-- 29 -->
<g id="node30" class="node">
<title>29</title>
<path fill="none" stroke="#56d8b1" stroke-width="2" d="M878.5,-108C878.5,-108 792.5,-108 792.5,-108 786.5,-108 780.5,-102 780.5,-96 780.5,-96 780.5,-84 780.5,-84 780.5,-78 786.5,-72 792.5,-72 792.5,-72 878.5,-72 878.5,-72 884.5,-72 890.5,-78 890.5,-84 890.5,-84 890.5,-96 890.5,-96 890.5,-102 884.5,-108 878.5,-108"/>
<text text-anchor="middle" x="835.5" y="-87.5" font-family="sans" font-size="10.00" fill="#000000">get_protein_names</text>
</g>
<!-- 29&#45;&gt;0 -->
<g id="edge2" class="edge">
<title>29&#45;&gt;0</title>
<path fill="none" stroke="#c0c0c0" stroke-width="2" d="M780.3369,-76.7297C773.3306,-75.1047 766.2524,-73.4925 759.5,-72 679.2363,-54.2593 584.7507,-35.3354 533.7257,-25.2772"/>
<polygon fill="#c0c0c0" stroke="#c0c0c0" stroke-width="2" points="534.3051,-21.8241 523.8175,-23.3279 532.9538,-28.6925 534.3051,-21.8241"/>
</g>
<!-- 30 -->
<g id="node31" class="node">
<title>30</title>
<path fill="none" stroke="#56c9d8" stroke-width="2" d="M901.5,-180C901.5,-180 785.5,-180 785.5,-180 779.5,-180 773.5,-174 773.5,-168 773.5,-168 773.5,-156 773.5,-156 773.5,-150 779.5,-144 785.5,-144 785.5,-144 901.5,-144 901.5,-144 907.5,-144 913.5,-150 913.5,-156 913.5,-156 913.5,-168 913.5,-168 913.5,-174 907.5,-180 901.5,-180"/>
<text text-anchor="middle" x="843.5" y="-159.5" font-family="sans" font-size="10.00" fill="#000000">lambda_gene_annotation</text>
</g>
<!-- 30&#45;&gt;29 -->
<g id="edge46" class="edge">
<title>30&#45;&gt;29</title>
<path fill="none" stroke="#c0c0c0" stroke-width="2" d="M841.4813,-143.8314C840.6257,-136.131 839.6083,-126.9743 838.6574,-118.4166"/>
<polygon fill="#c0c0c0" stroke="#c0c0c0" stroke-width="2" points="842.1289,-117.9656 837.5459,-108.4133 835.1717,-118.7386 842.1289,-117.9656"/>
</g>
<!-- 31 -->
<g id="node32" class="node">
<title>31</title>
<path fill="none" stroke="#56d8a2" stroke-width="2" d="M895.5,-252C895.5,-252 785.5,-252 785.5,-252 779.5,-252 773.5,-246 773.5,-240 773.5,-240 773.5,-228 773.5,-228 773.5,-222 779.5,-216 785.5,-216 785.5,-216 895.5,-216 895.5,-216 901.5,-216 907.5,-222 907.5,-228 907.5,-228 907.5,-240 907.5,-240 907.5,-246 901.5,-252 895.5,-252"/>
<text text-anchor="middle" x="840.5" y="-231.5" font-family="sans" font-size="10.00" fill="#000000">get_indexed_protein_db</text>
</g>
<!-- 31&#45;&gt;30 -->
<g id="edge48" class="edge">
<title>31&#45;&gt;30</title>
<path fill="none" stroke="#c0c0c0" stroke-width="2" d="M841.257,-215.8314C841.5779,-208.131 841.9594,-198.9743 842.316,-190.4166"/>
<polygon fill="#c0c0c0" stroke="#c0c0c0" stroke-width="2" points="845.8133,-190.5503 842.7328,-180.4133 838.8194,-190.2589 845.8133,-190.5503"/>
</g>
<!-- 32&#45;&gt;30 -->
<g id="edge47" class="edge">
<title>32&#45;&gt;30</title>
<path fill="none" stroke="#c0c0c0" stroke-width="2" d="M950.4151,-215.8314C931.7011,-206.4089 908.6568,-194.8062 888.76,-184.7883"/>
<polygon fill="#c0c0c0" stroke="#c0c0c0" stroke-width="2" points="890.0792,-181.5339 879.5734,-180.1628 886.9311,-187.7861 890.0792,-181.5339"/>
</g>
</g>
</svg>
