<?xml version="1.0" encoding="UTF-8" standalone="no"?>
<!DOCTYPE svg PUBLIC "-//W3C//DTD SVG 1.1//EN"
 "http://www.w3.org/Graphics/SVG/1.1/DTD/svg11.dtd">
<!-- Generated by graphviz version 2.40.1 (0)
 -->
<!-- Title: snakemake_dag Pages: 1 -->
<svg width="826pt" height="980pt"
 viewBox="0.00 0.00 826.21 980.00" xmlns="http://www.w3.org/2000/svg" xmlns:xlink="http://www.w3.org/1999/xlink">
<g id="graph0" class="graph" transform="scale(1 1) rotate(0) translate(4 976)">
<title>snakemake_dag</title>
<polygon fill="#ffffff" stroke="transparent" points="-4,4 -4,-976 822.2055,-976 822.2055,4 -4,4"/>
<!-- 0 -->
<g id="node1" class="node">
<title>0</title>
<path fill="none" stroke="#d86e56" stroke-width="2" d="M407,-36C407,-36 377,-36 377,-36 371,-36 365,-30 365,-24 365,-24 365,-12 365,-12 365,-6 371,0 377,0 377,0 407,0 407,0 413,0 419,-6 419,-12 419,-12 419,-24 419,-24 419,-30 413,-36 407,-36"/>
<text text-anchor="middle" x="392" y="-15.5" font-family="sans" font-size="10.00" fill="#000000">all</text>
</g>
<!-- 1 -->
<g id="node2" class="node">
<title>1</title>
<path fill="none" stroke="#568ad8" stroke-width="2" d="M82,-108C82,-108 12,-108 12,-108 6,-108 0,-102 0,-96 0,-96 0,-84 0,-84 0,-78 6,-72 12,-72 12,-72 82,-72 82,-72 88,-72 94,-78 94,-84 94,-84 94,-96 94,-96 94,-102 88,-108 82,-108"/>
<text text-anchor="middle" x="47" y="-87.5" font-family="sans" font-size="10.00" fill="#000000">sample_qa_plot</text>
</g>
<!-- 1&#45;&gt;0 -->
<g id="edge9" class="edge">
<title>1&#45;&gt;0</title>
<path fill="none" stroke="#c0c0c0" stroke-width="2" d="M94.2348,-74.3544C97.1898,-73.5195 100.129,-72.7265 103,-72 192.2533,-49.4133 299.2058,-31.8472 354.6066,-23.4398"/>
<polygon fill="#c0c0c0" stroke="#c0c0c0" stroke-width="2" points="355.2885,-26.8768 364.6573,-21.9295 354.2482,-19.9545 355.2885,-26.8768"/>
</g>
<!-- 2 -->
<g id="node3" class="node">
<title>2</title>
<path fill="none" stroke="#566bd8" stroke-width="2" d="M222,-108C222,-108 124,-108 124,-108 118,-108 112,-102 112,-96 112,-96 112,-84 112,-84 112,-78 118,-72 124,-72 124,-72 222,-72 222,-72 228,-72 234,-78 234,-84 234,-84 234,-96 234,-96 234,-102 228,-108 222,-108"/>
<text text-anchor="middle" x="173" y="-87.5" font-family="sans" font-size="10.00" fill="#000000">total_sample_qa_plot</text>
</g>
<!-- 2&#45;&gt;0 -->
<g id="edge8" class="edge">
<title>2&#45;&gt;0</title>
<path fill="none" stroke="#c0c0c0" stroke-width="2" d="M227.9803,-71.9243C267.7656,-58.8442 320.4427,-41.5257 355.2347,-30.0872"/>
<polygon fill="#c0c0c0" stroke="#c0c0c0" stroke-width="2" points="356.5789,-33.3297 364.9855,-26.8815 354.3926,-26.6798 356.5789,-33.3297"/>
</g>
<!-- 3 -->
<g id="node4" class="node">
<title>3</title>
<path fill="none" stroke="#d89556" stroke-width="2" d="M476,-180C476,-180 432,-180 432,-180 426,-180 420,-174 420,-168 420,-168 420,-156 420,-156 420,-150 426,-144 432,-144 432,-144 476,-144 476,-144 482,-144 488,-150 488,-156 488,-156 488,-168 488,-168 488,-174 482,-180 476,-180"/>
<text text-anchor="middle" x="454" y="-159.5" font-family="sans" font-size="10.00" fill="#000000">bam_stats</text>
</g>
<!-- 3&#45;&gt;0 -->
<g id="edge7" class="edge">
<title>3&#45;&gt;0</title>
<path fill="none" stroke="#c0c0c0" stroke-width="2" d="M446.1477,-143.7623C435.4795,-118.9846 416.3141,-74.4714 403.8807,-45.5939"/>
<polygon fill="#c0c0c0" stroke="#c0c0c0" stroke-width="2" points="406.9579,-43.8903 399.7886,-36.0896 400.5285,-46.6586 406.9579,-43.8903"/>
</g>
<!-- 4 -->
<g id="node5" class="node">
<title>4</title>
<path fill="none" stroke="#5692d8" stroke-width="2" d="M482,-468C482,-468 426,-468 426,-468 420,-468 414,-462 414,-456 414,-456 414,-444 414,-444 414,-438 420,-432 426,-432 426,-432 482,-432 482,-432 488,-432 494,-438 494,-444 494,-444 494,-456 494,-456 494,-462 488,-468 482,-468"/>
<text text-anchor="middle" x="454" y="-447.5" font-family="sans" font-size="10.00" fill="#000000">sam_to_bam</text>
</g>
<!-- 4&#45;&gt;3 -->
<g id="edge10" class="edge">
<title>4&#45;&gt;3</title>
<path fill="none" stroke="#c0c0c0" stroke-width="2" d="M454,-431.9843C454,-383.2939 454,-248.7961 454,-190.0573"/>
<polygon fill="#c0c0c0" stroke="#c0c0c0" stroke-width="2" points="457.5001,-190.0088 454,-180.0089 450.5001,-190.0089 457.5001,-190.0088"/>
</g>
<!-- 17 -->
<g id="node18" class="node">
<title>17</title>
<path fill="none" stroke="#d88556" stroke-width="2" d="M540,-396C540,-396 502,-396 502,-396 496,-396 490,-390 490,-384 490,-384 490,-372 490,-372 490,-366 496,-360 502,-360 502,-360 540,-360 540,-360 546,-360 552,-366 552,-372 552,-372 552,-384 552,-384 552,-390 546,-396 540,-396"/>
<text text-anchor="middle" x="521" y="-375.5" font-family="sans" font-size="10.00" fill="#000000">bam_sort</text>
</g>
<!-- 4&#45;&gt;17 -->
<g id="edge23" class="edge">
<title>4&#45;&gt;17</title>
<path fill="none" stroke="#c0c0c0" stroke-width="2" d="M470.9069,-431.8314C478.7813,-423.3694 488.292,-413.1489 496.9013,-403.8971"/>
<polygon fill="#c0c0c0" stroke="#c0c0c0" stroke-width="2" points="499.6153,-406.1183 503.8654,-396.4133 494.4908,-401.3497 499.6153,-406.1183"/>
</g>
<!-- 18 -->
<g id="node19" class="node">
<title>18</title>
<path fill="none" stroke="#d6d856" stroke-width="2" d="M403,-396C403,-396 351,-396 351,-396 345,-396 339,-390 339,-384 339,-384 339,-372 339,-372 339,-366 345,-360 351,-360 351,-360 403,-360 403,-360 409,-360 415,-366 415,-372 415,-372 415,-384 415,-384 415,-390 409,-396 403,-396"/>
<text text-anchor="middle" x="377" y="-375.5" font-family="sans" font-size="10.00" fill="#000000">count_reads</text>
</g>
<!-- 4&#45;&gt;18 -->
<g id="edge25" class="edge">
<title>4&#45;&gt;18</title>
<path fill="none" stroke="#c0c0c0" stroke-width="2" d="M434.5696,-431.8314C425.268,-423.1337 413.9796,-412.5783 403.8714,-403.1265"/>
<polygon fill="#c0c0c0" stroke="#c0c0c0" stroke-width="2" points="406.1189,-400.4363 396.4241,-396.1628 401.3379,-405.5493 406.1189,-400.4363"/>
</g>
<!-- 5 -->
<g id="node6" class="node">
<title>5</title>
<path fill="none" stroke="#56c1d8" stroke-width="2" d="M477.5,-540C477.5,-540 430.5,-540 430.5,-540 424.5,-540 418.5,-534 418.5,-528 418.5,-528 418.5,-516 418.5,-516 418.5,-510 424.5,-504 430.5,-504 430.5,-504 477.5,-504 477.5,-504 483.5,-504 489.5,-510 489.5,-516 489.5,-516 489.5,-528 489.5,-528 489.5,-534 483.5,-540 477.5,-540"/>
<text text-anchor="middle" x="454" y="-519.5" font-family="sans" font-size="10.00" fill="#000000">map_reads</text>
</g>
<!-- 5&#45;&gt;4 -->
<g id="edge11" class="edge">
<title>5&#45;&gt;4</title>
<path fill="none" stroke="#c0c0c0" stroke-width="2" d="M454,-503.8314C454,-496.131 454,-486.9743 454,-478.4166"/>
<polygon fill="#c0c0c0" stroke="#c0c0c0" stroke-width="2" points="457.5001,-478.4132 454,-468.4133 450.5001,-478.4133 457.5001,-478.4132"/>
</g>
<!-- 6 -->
<g id="node7" class="node">
<title>6</title>
<path fill="none" stroke="#d8b456" stroke-width="2" d="M496,-612C496,-612 398,-612 398,-612 392,-612 386,-606 386,-600 386,-600 386,-588 386,-588 386,-582 392,-576 398,-576 398,-576 496,-576 496,-576 502,-576 508,-582 508,-588 508,-588 508,-600 508,-600 508,-606 502,-612 496,-612"/>
<text text-anchor="middle" x="447" y="-591.5" font-family="sans" font-size="10.00" fill="#000000">build_minimap_index</text>
</g>
<!-- 6&#45;&gt;5 -->
<g id="edge12" class="edge">
<title>6&#45;&gt;5</title>
<path fill="none" stroke="#c0c0c0" stroke-width="2" d="M448.7664,-575.8314C449.515,-568.131 450.4053,-558.9743 451.2373,-550.4166"/>
<polygon fill="#c0c0c0" stroke="#c0c0c0" stroke-width="2" points="454.7256,-550.7051 452.2098,-540.4133 447.7585,-550.0276 454.7256,-550.7051"/>
</g>
<!-- 7 -->
<g id="node8" class="node">
<title>7</title>
<path fill="none" stroke="#d8d356" stroke-width="2" d="M478,-684C478,-684 378,-684 378,-684 372,-684 366,-678 366,-672 366,-672 366,-660 366,-660 366,-654 372,-648 378,-648 378,-648 478,-648 478,-648 484,-648 490,-654 490,-660 490,-660 490,-672 490,-672 490,-678 484,-684 478,-684"/>
<text text-anchor="middle" x="428" y="-663.5" font-family="sans" font-size="10.00" fill="#000000">correct_transcriptome</text>
</g>
<!-- 7&#45;&gt;6 -->
<g id="edge14" class="edge">
<title>7&#45;&gt;6</title>
<path fill="none" stroke="#c0c0c0" stroke-width="2" d="M432.7945,-647.8314C434.8489,-640.0463 437.296,-630.7729 439.5756,-622.1347"/>
<polygon fill="#c0c0c0" stroke="#c0c0c0" stroke-width="2" points="442.9735,-622.9753 442.1409,-612.4133 436.2052,-621.1892 442.9735,-622.9753"/>
</g>
<!-- 7&#45;&gt;18 -->
<g id="edge24" class="edge">
<title>7&#45;&gt;18</title>
<path fill="none" stroke="#c0c0c0" stroke-width="2" d="M404.1509,-647.928C393.7058,-638.5042 382.574,-626.02 377,-612 349.2795,-542.2768 361.5574,-451.3608 370.5479,-406.1226"/>
<polygon fill="#c0c0c0" stroke="#c0c0c0" stroke-width="2" points="374.0107,-406.6614 372.6245,-396.1577 367.1579,-405.2333 374.0107,-406.6614"/>
</g>
<!-- 8 -->
<g id="node9" class="node">
<title>8</title>
<path fill="none" stroke="#56d88a" stroke-width="2" d="M488.5,-756C488.5,-756 367.5,-756 367.5,-756 361.5,-756 355.5,-750 355.5,-744 355.5,-744 355.5,-732 355.5,-732 355.5,-726 361.5,-720 367.5,-720 367.5,-720 488.5,-720 488.5,-720 494.5,-720 500.5,-726 500.5,-732 500.5,-732 500.5,-744 500.5,-744 500.5,-750 494.5,-756 488.5,-756"/>
<text text-anchor="middle" x="428" y="-735.5" font-family="sans" font-size="10.00" fill="#000000">genome_to_transcriptome</text>
</g>
<!-- 8&#45;&gt;7 -->
<g id="edge15" class="edge">
<title>8&#45;&gt;7</title>
<path fill="none" stroke="#c0c0c0" stroke-width="2" d="M428,-719.8314C428,-712.131 428,-702.9743 428,-694.4166"/>
<polygon fill="#c0c0c0" stroke="#c0c0c0" stroke-width="2" points="431.5001,-694.4132 428,-684.4133 424.5001,-694.4133 431.5001,-694.4132"/>
</g>
<!-- 9 -->
<g id="node10" class="node">
<title>9</title>
<path fill="none" stroke="#56d8a2" stroke-width="2" d="M743.5,-828C743.5,-828 690.5,-828 690.5,-828 684.5,-828 678.5,-822 678.5,-816 678.5,-816 678.5,-804 678.5,-804 678.5,-798 684.5,-792 690.5,-792 690.5,-792 743.5,-792 743.5,-792 749.5,-792 755.5,-798 755.5,-804 755.5,-804 755.5,-816 755.5,-816 755.5,-822 749.5,-828 743.5,-828"/>
<text text-anchor="middle" x="717" y="-807.5" font-family="sans" font-size="10.00" fill="#000000">get_genome</text>
</g>
<!-- 9&#45;&gt;8 -->
<g id="edge17" class="edge">
<title>9&#45;&gt;8</title>
<path fill="none" stroke="#c0c0c0" stroke-width="2" d="M678.3241,-800.3645C635.5206,-789.7006 565.2938,-772.2047 510.1004,-758.4541"/>
<polygon fill="#c0c0c0" stroke="#c0c0c0" stroke-width="2" points="510.88,-755.0414 500.3305,-756.02 509.1877,-761.8338 510.88,-755.0414"/>
</g>
<!-- 26 -->
<g id="node27" class="node">
<title>26</title>
<path fill="none" stroke="#68d856" stroke-width="2" d="M742.5,-540C742.5,-540 685.5,-540 685.5,-540 679.5,-540 673.5,-534 673.5,-528 673.5,-528 673.5,-516 673.5,-516 673.5,-510 679.5,-504 685.5,-504 685.5,-504 742.5,-504 742.5,-504 748.5,-504 754.5,-510 754.5,-516 754.5,-516 754.5,-528 754.5,-528 754.5,-534 748.5,-540 742.5,-540"/>
<text text-anchor="middle" x="714" y="-519.5" font-family="sans" font-size="10.00" fill="#000000">flair_collapse</text>
</g>
<!-- 9&#45;&gt;26 -->
<g id="edge37" class="edge">
<title>9&#45;&gt;26</title>
<path fill="none" stroke="#c0c0c0" stroke-width="2" d="M755.6291,-799.1421C776.8685,-790.9789 801.4005,-777.4346 814,-756 822.108,-742.2065 815.8508,-735.8926 814,-720 806.2126,-653.1292 804.1992,-632.1121 767,-576 760.2072,-565.7536 751.2979,-555.7821 742.7273,-547.2539"/>
<polygon fill="#c0c0c0" stroke="#c0c0c0" stroke-width="2" points="744.9804,-544.5649 735.3446,-540.1603 740.1305,-549.6126 744.9804,-544.5649"/>
</g>
<!-- 27 -->
<g id="node28" class="node">
<title>27</title>
<path fill="none" stroke="#59d856" stroke-width="2" d="M746,-612C746,-612 696,-612 696,-612 690,-612 684,-606 684,-600 684,-600 684,-588 684,-588 684,-582 690,-576 696,-576 696,-576 746,-576 746,-576 752,-576 758,-582 758,-588 758,-588 758,-600 758,-600 758,-606 752,-612 746,-612"/>
<text text-anchor="middle" x="721" y="-591.5" font-family="sans" font-size="10.00" fill="#000000">flair_correct</text>
</g>
<!-- 9&#45;&gt;27 -->
<g id="edge40" class="edge">
<title>9&#45;&gt;27</title>
<path fill="none" stroke="#c0c0c0" stroke-width="2" d="M755.6804,-793.9272C771.4847,-785.2011 788.1133,-772.7203 797,-756 822.1062,-708.7629 779.0521,-651.7771 748.1729,-619.5294"/>
<polygon fill="#c0c0c0" stroke="#c0c0c0" stroke-width="2" points="750.5329,-616.9377 741.0225,-612.2684 745.5453,-621.8493 750.5329,-616.9377"/>
</g>
<!-- 28 -->
<g id="node29" class="node">
<title>28</title>
<path fill="none" stroke="#78d856" stroke-width="2" d="M737.5,-684C737.5,-684 696.5,-684 696.5,-684 690.5,-684 684.5,-678 684.5,-672 684.5,-672 684.5,-660 684.5,-660 684.5,-654 690.5,-648 696.5,-648 696.5,-648 737.5,-648 737.5,-648 743.5,-648 749.5,-654 749.5,-660 749.5,-660 749.5,-672 749.5,-672 749.5,-678 743.5,-684 737.5,-684"/>
<text text-anchor="middle" x="717" y="-663.5" font-family="sans" font-size="10.00" fill="#000000">flair_align</text>
</g>
<!-- 9&#45;&gt;28 -->
<g id="edge43" class="edge">
<title>9&#45;&gt;28</title>
<path fill="none" stroke="#c0c0c0" stroke-width="2" d="M678.3196,-793.9272C662.5153,-785.2011 645.8867,-772.7203 637,-756 629.4908,-741.8716 629.4908,-734.1284 637,-720 645.2711,-704.438 660.2486,-692.5485 675.0261,-683.9405"/>
<polygon fill="#c0c0c0" stroke="#c0c0c0" stroke-width="2" points="677.0154,-686.8434 684.1396,-679.0014 673.68,-680.6891 677.0154,-686.8434"/>
</g>
<!-- 29 -->
<g id="node30" class="node">
<title>29</title>
<path fill="none" stroke="#d8ac56" stroke-width="2" d="M776,-756C776,-756 658,-756 658,-756 652,-756 646,-750 646,-744 646,-744 646,-732 646,-732 646,-726 652,-720 658,-720 658,-720 776,-720 776,-720 782,-720 788,-726 788,-732 788,-732 788,-744 788,-744 788,-750 782,-756 776,-756"/>
<text text-anchor="middle" x="717" y="-735.5" font-family="sans" font-size="10.00" fill="#000000">build_flair_genome_index</text>
</g>
<!-- 9&#45;&gt;29 -->
<g id="edge44" class="edge">
<title>9&#45;&gt;29</title>
<path fill="none" stroke="#c0c0c0" stroke-width="2" d="M717,-791.8314C717,-784.131 717,-774.9743 717,-766.4166"/>
<polygon fill="#c0c0c0" stroke="#c0c0c0" stroke-width="2" points="720.5001,-766.4132 717,-756.4133 713.5001,-766.4133 720.5001,-766.4132"/>
</g>
<!-- 10 -->
<g id="node11" class="node">
<title>10</title>
<path fill="none" stroke="#8fd856" stroke-width="2" d="M772,-900C772,-900 662,-900 662,-900 656,-900 650,-894 650,-888 650,-888 650,-876 650,-876 650,-870 656,-864 662,-864 662,-864 772,-864 772,-864 778,-864 784,-870 784,-876 784,-876 784,-888 784,-888 784,-894 778,-900 772,-900"/>
<text text-anchor="middle" x="717" y="-879.5" font-family="sans" font-size="10.00" fill="#000000">download_ncbi_genome</text>
</g>
<!-- 10&#45;&gt;9 -->
<g id="edge18" class="edge">
<title>10&#45;&gt;9</title>
<path fill="none" stroke="#c0c0c0" stroke-width="2" d="M717,-863.8314C717,-856.131 717,-846.9743 717,-838.4166"/>
<polygon fill="#c0c0c0" stroke="#c0c0c0" stroke-width="2" points="720.5001,-838.4132 717,-828.4133 713.5001,-838.4133 720.5001,-838.4132"/>
</g>
<!-- 11 -->
<g id="node12" class="node">
<title>11</title>
<path fill="none" stroke="#567bd8" stroke-width="2" d="M361,-828C361,-828 293,-828 293,-828 287,-828 281,-822 281,-816 281,-816 281,-804 281,-804 281,-798 287,-792 293,-792 293,-792 361,-792 361,-792 367,-792 373,-798 373,-804 373,-804 373,-816 373,-816 373,-822 367,-828 361,-828"/>
<text text-anchor="middle" x="327" y="-807.5" font-family="sans" font-size="10.00" fill="#000000">standardize_gff</text>
</g>
<!-- 11&#45;&gt;8 -->
<g id="edge16" class="edge">
<title>11&#45;&gt;8</title>
<path fill="none" stroke="#c0c0c0" stroke-width="2" d="M352.4866,-791.8314C365.1659,-782.7927 380.6596,-771.7476 394.3055,-762.0198"/>
<polygon fill="#c0c0c0" stroke="#c0c0c0" stroke-width="2" points="396.4105,-764.8176 402.5216,-756.1628 392.3471,-759.1176 396.4105,-764.8176"/>
</g>
<!-- 19 -->
<g id="node20" class="node">
<title>19</title>
<path fill="none" stroke="#5663d8" stroke-width="2" d="M330,-252C330,-252 238,-252 238,-252 232,-252 226,-246 226,-240 226,-240 226,-228 226,-228 226,-222 232,-216 238,-216 238,-216 330,-216 330,-216 336,-216 342,-222 342,-228 342,-228 342,-240 342,-240 342,-246 336,-252 330,-252"/>
<text text-anchor="middle" x="284" y="-231.5" font-family="sans" font-size="10.00" fill="#000000">transcriptid_to_gene</text>
</g>
<!-- 11&#45;&gt;19 -->
<g id="edge27" class="edge">
<title>11&#45;&gt;19</title>
<path fill="none" stroke="#c0c0c0" stroke-width="2" d="M301.8499,-791.9248C270.7866,-767.2843 222,-719.9908 222,-666 222,-666 222,-666 222,-378 222,-337.1184 223.577,-324.9831 241,-288 245.722,-277.9768 252.6416,-268.1503 259.5557,-259.6857"/>
<polygon fill="#c0c0c0" stroke="#c0c0c0" stroke-width="2" points="262.2684,-261.8989 266.1111,-252.0254 256.95,-257.3475 262.2684,-261.8989"/>
</g>
<!-- 30 -->
<g id="node31" class="node">
<title>30</title>
<path fill="none" stroke="#56d8c9" stroke-width="2" d="M615.5,-684C615.5,-684 576.5,-684 576.5,-684 570.5,-684 564.5,-678 564.5,-672 564.5,-672 564.5,-660 564.5,-660 564.5,-654 570.5,-648 576.5,-648 576.5,-648 615.5,-648 615.5,-648 621.5,-648 627.5,-654 627.5,-660 627.5,-660 627.5,-672 627.5,-672 627.5,-678 621.5,-684 615.5,-684"/>
<text text-anchor="middle" x="596" y="-663.5" font-family="sans" font-size="10.00" fill="#000000">gff_to_gtf</text>
</g>
<!-- 11&#45;&gt;30 -->
<g id="edge45" class="edge">
<title>11&#45;&gt;30</title>
<path fill="none" stroke="#c0c0c0" stroke-width="2" d="M325.4708,-791.7837C324.8332,-771.4424 327.1864,-738.9018 346,-720 353.365,-712.6005 484.8691,-686.9227 554.1156,-673.8209"/>
<polygon fill="#c0c0c0" stroke="#c0c0c0" stroke-width="2" points="555.0846,-677.1999 564.2625,-671.9068 553.7869,-670.3213 555.0846,-677.1999"/>
</g>
<!-- 12 -->
<g id="node13" class="node">
<title>12</title>
<path fill="none" stroke="#56d89a" stroke-width="2" d="M360,-900C360,-900 294,-900 294,-900 288,-900 282,-894 282,-888 282,-888 282,-876 282,-876 282,-870 288,-864 294,-864 294,-864 360,-864 360,-864 366,-864 372,-870 372,-876 372,-876 372,-888 372,-888 372,-894 366,-900 360,-900"/>
<text text-anchor="middle" x="327" y="-879.5" font-family="sans" font-size="10.00" fill="#000000">get_annotation</text>
</g>
<!-- 12&#45;&gt;11 -->
<g id="edge19" class="edge">
<title>12&#45;&gt;11</title>
<path fill="none" stroke="#c0c0c0" stroke-width="2" d="M327,-863.8314C327,-856.131 327,-846.9743 327,-838.4166"/>
<polygon fill="#c0c0c0" stroke="#c0c0c0" stroke-width="2" points="330.5001,-838.4132 327,-828.4133 323.5001,-838.4133 330.5001,-838.4132"/>
</g>
<!-- 13 -->
<g id="node14" class="node">
<title>13</title>
<path fill="none" stroke="#97d856" stroke-width="2" d="M388.5,-972C388.5,-972 265.5,-972 265.5,-972 259.5,-972 253.5,-966 253.5,-960 253.5,-960 253.5,-948 253.5,-948 253.5,-942 259.5,-936 265.5,-936 265.5,-936 388.5,-936 388.5,-936 394.5,-936 400.5,-942 400.5,-948 400.5,-948 400.5,-960 400.5,-960 400.5,-966 394.5,-972 388.5,-972"/>
<text text-anchor="middle" x="327" y="-951.5" font-family="sans" font-size="10.00" fill="#000000">download_ncbi_annotation</text>
</g>
<!-- 13&#45;&gt;12 -->
<g id="edge20" class="edge">
<title>13&#45;&gt;12</title>
<path fill="none" stroke="#c0c0c0" stroke-width="2" d="M327,-935.8314C327,-928.131 327,-918.9743 327,-910.4166"/>
<polygon fill="#c0c0c0" stroke="#c0c0c0" stroke-width="2" points="330.5001,-910.4132 327,-900.4133 323.5001,-910.4133 330.5001,-910.4132"/>
</g>
<!-- 14 -->
<g id="node15" class="node">
<title>14</title>
<path fill="none" stroke="#80d856" stroke-width="2" d="M577.5,-756C577.5,-756 530.5,-756 530.5,-756 524.5,-756 518.5,-750 518.5,-744 518.5,-744 518.5,-732 518.5,-732 518.5,-726 524.5,-720 530.5,-720 530.5,-720 577.5,-720 577.5,-720 583.5,-720 589.5,-726 589.5,-732 589.5,-732 589.5,-744 589.5,-744 589.5,-750 583.5,-756 577.5,-756"/>
<text text-anchor="middle" x="554" y="-735.5" font-family="sans" font-size="10.00" fill="#000000">filter_reads</text>
</g>
<!-- 14&#45;&gt;5 -->
<g id="edge13" class="edge">
<title>14&#45;&gt;5</title>
<path fill="none" stroke="#c0c0c0" stroke-width="2" d="M553.4905,-719.6086C551.8511,-688.0311 545.041,-622.4253 517,-576 510.2417,-564.8107 500.359,-554.7691 490.416,-546.4673"/>
<polygon fill="#c0c0c0" stroke="#c0c0c0" stroke-width="2" points="492.5013,-543.6542 482.4875,-540.1938 488.1577,-549.1436 492.5013,-543.6542"/>
</g>
<!-- 14&#45;&gt;26 -->
<g id="edge36" class="edge">
<title>14&#45;&gt;26</title>
<path fill="none" stroke="#c0c0c0" stroke-width="2" d="M589.8432,-721.514C606.1654,-712.4516 624.5704,-699.8132 637,-684 668.4452,-643.9946 651.4167,-621.0895 675,-576 679.9845,-566.47 686.4944,-556.7375 692.7636,-548.2075"/>
<polygon fill="#c0c0c0" stroke="#c0c0c0" stroke-width="2" points="695.6349,-550.2136 698.8872,-540.1302 690.0567,-545.9846 695.6349,-550.2136"/>
</g>
<!-- 14&#45;&gt;28 -->
<g id="edge42" class="edge">
<title>14&#45;&gt;28</title>
<path fill="none" stroke="#c0c0c0" stroke-width="2" d="M589.771,-722.1993C614.8938,-711.1021 648.5879,-696.2188 674.9903,-684.5565"/>
<polygon fill="#c0c0c0" stroke="#c0c0c0" stroke-width="2" points="676.625,-687.6607 684.3582,-680.4185 673.7966,-681.2575 676.625,-687.6607"/>
</g>
<!-- 15 -->
<g id="node16" class="node">
<title>15</title>
<path fill="none" stroke="#d86656" stroke-width="2" d="M612,-180C612,-180 518,-180 518,-180 512,-180 506,-174 506,-168 506,-168 506,-156 506,-156 506,-150 512,-144 518,-144 518,-144 612,-144 612,-144 618,-144 624,-150 624,-156 624,-156 624,-168 624,-168 624,-174 618,-180 612,-180"/>
<text text-anchor="middle" x="565" y="-159.5" font-family="sans" font-size="10.00" fill="#000000">alignment_qa_report</text>
</g>
<!-- 15&#45;&gt;0 -->
<g id="edge4" class="edge">
<title>15&#45;&gt;0</title>
<path fill="none" stroke="#c0c0c0" stroke-width="2" d="M543.0894,-143.7623C512.2819,-118.119 456.0787,-71.3372 421.5856,-42.6262"/>
<polygon fill="#c0c0c0" stroke="#c0c0c0" stroke-width="2" points="423.6577,-39.7971 413.7327,-36.0896 419.1794,-45.1772 423.6577,-39.7971"/>
</g>
<!-- 16 -->
<g id="node17" class="node">
<title>16</title>
<path fill="none" stroke="#d85656" stroke-width="2" d="M559.5,-324C559.5,-324 500.5,-324 500.5,-324 494.5,-324 488.5,-318 488.5,-312 488.5,-312 488.5,-300 488.5,-300 488.5,-294 494.5,-288 500.5,-288 500.5,-288 559.5,-288 559.5,-288 565.5,-288 571.5,-294 571.5,-300 571.5,-300 571.5,-312 571.5,-312 571.5,-318 565.5,-324 559.5,-324"/>
<text text-anchor="middle" x="530" y="-303.5" font-family="sans" font-size="10.00" fill="#000000">alignment_qa</text>
</g>
<!-- 16&#45;&gt;15 -->
<g id="edge21" class="edge">
<title>16&#45;&gt;15</title>
<path fill="none" stroke="#c0c0c0" stroke-width="2" d="M534.4328,-287.7623C540.4288,-263.0928 551.1799,-218.8598 558.201,-189.9731"/>
<polygon fill="#c0c0c0" stroke="#c0c0c0" stroke-width="2" points="561.6423,-190.6334 560.6032,-180.0896 554.8404,-188.9801 561.6423,-190.6334"/>
</g>
<!-- 17&#45;&gt;16 -->
<g id="edge22" class="edge">
<title>17&#45;&gt;16</title>
<path fill="none" stroke="#c0c0c0" stroke-width="2" d="M523.2711,-359.8314C524.2336,-352.131 525.3782,-342.9743 526.4479,-334.4166"/>
<polygon fill="#c0c0c0" stroke="#c0c0c0" stroke-width="2" points="529.9309,-334.7702 527.6983,-324.4133 522.9849,-333.9019 529.9309,-334.7702"/>
</g>
<!-- 18&#45;&gt;0 -->
<g id="edge1" class="edge">
<title>18&#45;&gt;0</title>
<path fill="none" stroke="#c0c0c0" stroke-width="2" d="M380.108,-359.8777C384.5016,-332.6417 392,-279.4948 392,-234 392,-234 392,-234 392,-162 392,-121.876 392,-75.4631 392,-46.4177"/>
<polygon fill="#c0c0c0" stroke="#c0c0c0" stroke-width="2" points="395.5001,-46.1853 392,-36.1854 388.5001,-46.1854 395.5001,-46.1853"/>
</g>
<!-- 20 -->
<g id="node21" class="node">
<title>20</title>
<path fill="none" stroke="#56b9d8" stroke-width="2" d="M351.5,-324C351.5,-324 262.5,-324 262.5,-324 256.5,-324 250.5,-318 250.5,-312 250.5,-312 250.5,-300 250.5,-300 250.5,-294 256.5,-288 262.5,-288 262.5,-288 351.5,-288 351.5,-288 357.5,-288 363.5,-294 363.5,-300 363.5,-300 363.5,-312 363.5,-312 363.5,-318 357.5,-324 351.5,-324"/>
<text text-anchor="middle" x="307" y="-303.5" font-family="sans" font-size="10.00" fill="#000000">merge_read_counts</text>
</g>
<!-- 18&#45;&gt;20 -->
<g id="edge28" class="edge">
<title>18&#45;&gt;20</title>
<path fill="none" stroke="#c0c0c0" stroke-width="2" d="M359.336,-359.8314C351.0268,-351.2848 340.9736,-340.9443 331.9082,-331.6198"/>
<polygon fill="#c0c0c0" stroke="#c0c0c0" stroke-width="2" points="334.3821,-329.1435 324.9018,-324.4133 329.3631,-334.023 334.3821,-329.1435"/>
</g>
<!-- 19&#45;&gt;0 -->
<g id="edge5" class="edge">
<title>19&#45;&gt;0</title>
<path fill="none" stroke="#c0c0c0" stroke-width="2" d="M279.6703,-215.8706C273.0699,-183.5306 264.3491,-115.2372 296,-72 310.6265,-52.0193 335.0188,-38.4357 355.5549,-29.8897"/>
<polygon fill="#c0c0c0" stroke="#c0c0c0" stroke-width="2" points="356.9327,-33.109 364.9676,-26.2031 354.3799,-26.5911 356.9327,-33.109"/>
</g>
<!-- 22 -->
<g id="node23" class="node">
<title>22</title>
<path fill="none" stroke="#bed856" stroke-width="2" d="M351.5,-180C351.5,-180 302.5,-180 302.5,-180 296.5,-180 290.5,-174 290.5,-168 290.5,-168 290.5,-156 290.5,-156 290.5,-150 296.5,-144 302.5,-144 302.5,-144 351.5,-144 351.5,-144 357.5,-144 363.5,-150 363.5,-156 363.5,-156 363.5,-168 363.5,-168 363.5,-174 357.5,-180 351.5,-180"/>
<text text-anchor="middle" x="327" y="-159.5" font-family="sans" font-size="10.00" fill="#000000">deseq2_init</text>
</g>
<!-- 19&#45;&gt;22 -->
<g id="edge30" class="edge">
<title>19&#45;&gt;22</title>
<path fill="none" stroke="#c0c0c0" stroke-width="2" d="M294.8507,-215.8314C299.7023,-207.7079 305.5217,-197.9637 310.868,-189.0118"/>
<polygon fill="#c0c0c0" stroke="#c0c0c0" stroke-width="2" points="313.8806,-190.7933 316.0032,-180.4133 307.8708,-187.2041 313.8806,-190.7933"/>
</g>
<!-- 20&#45;&gt;19 -->
<g id="edge26" class="edge">
<title>20&#45;&gt;19</title>
<path fill="none" stroke="#c0c0c0" stroke-width="2" d="M301.1961,-287.8314C298.7092,-280.0463 295.7469,-270.7729 292.9875,-262.1347"/>
<polygon fill="#c0c0c0" stroke="#c0c0c0" stroke-width="2" points="296.2591,-260.874 289.882,-252.4133 289.591,-263.0041 296.2591,-260.874"/>
</g>
<!-- 21 -->
<g id="node22" class="node">
<title>21</title>
<path fill="none" stroke="#c6d856" stroke-width="2" d="M347,-108C347,-108 317,-108 317,-108 311,-108 305,-102 305,-96 305,-96 305,-84 305,-84 305,-78 311,-72 317,-72 317,-72 347,-72 347,-72 353,-72 359,-78 359,-84 359,-84 359,-96 359,-96 359,-102 353,-108 347,-108"/>
<text text-anchor="middle" x="332" y="-87.5" font-family="sans" font-size="10.00" fill="#000000">deseq2</text>
</g>
<!-- 21&#45;&gt;0 -->
<g id="edge3" class="edge">
<title>21&#45;&gt;0</title>
<path fill="none" stroke="#c0c0c0" stroke-width="2" d="M347.1405,-71.8314C354.1217,-63.454 362.5391,-53.3531 370.1876,-44.1749"/>
<polygon fill="#c0c0c0" stroke="#c0c0c0" stroke-width="2" points="372.9425,-46.3362 376.6556,-36.4133 367.5649,-41.8548 372.9425,-46.3362"/>
</g>
<!-- 22&#45;&gt;21 -->
<g id="edge29" class="edge">
<title>22&#45;&gt;21</title>
<path fill="none" stroke="#c0c0c0" stroke-width="2" d="M328.2617,-143.8314C328.7965,-136.131 329.4323,-126.9743 330.0266,-118.4166"/>
<polygon fill="#c0c0c0" stroke="#c0c0c0" stroke-width="2" points="333.52,-118.6317 330.7213,-108.4133 326.5368,-118.1467 333.52,-118.6317"/>
</g>
<!-- 23 -->
<g id="node24" class="node">
<title>23</title>
<path fill="none" stroke="#56d85b" stroke-width="2" d="M674,-396C674,-396 624,-396 624,-396 618,-396 612,-390 612,-384 612,-384 612,-372 612,-372 612,-366 618,-360 624,-360 624,-360 674,-360 674,-360 680,-360 686,-366 686,-372 686,-372 686,-384 686,-384 686,-390 680,-396 674,-396"/>
<text text-anchor="middle" x="649" y="-375.5" font-family="sans" font-size="10.00" fill="#000000">flair_diffexp</text>
</g>
<!-- 23&#45;&gt;0 -->
<g id="edge6" class="edge">
<title>23&#45;&gt;0</title>
<path fill="none" stroke="#c0c0c0" stroke-width="2" d="M674.2105,-359.8006C685.5553,-350.3478 698.1371,-337.8759 706,-324 726.2014,-288.3501 726,-274.9758 726,-234 726,-234 726,-234 726,-162 726,-97.9077 515.985,-44.9154 429.0225,-25.7198"/>
<polygon fill="#c0c0c0" stroke="#c0c0c0" stroke-width="2" points="429.5655,-22.2561 419.0497,-23.548 428.0759,-29.0958 429.5655,-22.2561"/>
</g>
<!-- 32 -->
<g id="node33" class="node">
<title>32</title>
<path fill="none" stroke="#56d86b" stroke-width="2" d="M684.5,-324C684.5,-324 601.5,-324 601.5,-324 595.5,-324 589.5,-318 589.5,-312 589.5,-312 589.5,-300 589.5,-300 589.5,-294 595.5,-288 601.5,-288 601.5,-288 684.5,-288 684.5,-288 690.5,-288 696.5,-294 696.5,-300 696.5,-300 696.5,-312 696.5,-312 696.5,-318 690.5,-324 684.5,-324"/>
<text text-anchor="middle" x="643" y="-303.5" font-family="sans" font-size="10.00" fill="#000000">flair_plot_isoforms</text>
</g>
<!-- 23&#45;&gt;32 -->
<g id="edge47" class="edge">
<title>23&#45;&gt;32</title>
<path fill="none" stroke="#c0c0c0" stroke-width="2" d="M647.4859,-359.8314C646.8442,-352.131 646.0812,-342.9743 645.3681,-334.4166"/>
<polygon fill="#c0c0c0" stroke="#c0c0c0" stroke-width="2" points="648.8529,-334.088 644.5344,-324.4133 641.8771,-334.6694 648.8529,-334.088"/>
</g>
<!-- 24 -->
<g id="node25" class="node">
<title>24</title>
<path fill="none" stroke="#56d873" stroke-width="2" d="M655.5,-468C655.5,-468 598.5,-468 598.5,-468 592.5,-468 586.5,-462 586.5,-456 586.5,-456 586.5,-444 586.5,-444 586.5,-438 592.5,-432 598.5,-432 598.5,-432 655.5,-432 655.5,-432 661.5,-432 667.5,-438 667.5,-444 667.5,-444 667.5,-456 667.5,-456 667.5,-462 661.5,-468 655.5,-468"/>
<text text-anchor="middle" x="627" y="-447.5" font-family="sans" font-size="10.00" fill="#000000">flair_quantify</text>
</g>
<!-- 24&#45;&gt;23 -->
<g id="edge31" class="edge">
<title>24&#45;&gt;23</title>
<path fill="none" stroke="#c0c0c0" stroke-width="2" d="M632.5515,-431.8314C634.9303,-424.0463 637.7638,-414.7729 640.4033,-406.1347"/>
<polygon fill="#c0c0c0" stroke="#c0c0c0" stroke-width="2" points="643.7987,-406.9996 643.3737,-396.4133 637.1042,-404.954 643.7987,-406.9996"/>
</g>
<!-- 24&#45;&gt;32 -->
<g id="edge49" class="edge">
<title>24&#45;&gt;32</title>
<path fill="none" stroke="#c0c0c0" stroke-width="2" d="M615.9853,-431.889C606.2933,-413.5838 594.8911,-384.5701 603,-360 606.2908,-350.0288 612.2116,-340.3944 618.5064,-332.0924"/>
<polygon fill="#c0c0c0" stroke="#c0c0c0" stroke-width="2" points="621.2672,-334.2448 624.8424,-324.2714 615.828,-329.8384 621.2672,-334.2448"/>
</g>
<!-- 25 -->
<g id="node26" class="node">
<title>25</title>
<path fill="none" stroke="#56a2d8" stroke-width="2" d="M643,-540C643,-540 575,-540 575,-540 569,-540 563,-534 563,-528 563,-528 563,-516 563,-516 563,-510 569,-504 575,-504 575,-504 643,-504 643,-504 649,-504 655,-510 655,-516 655,-516 655,-528 655,-528 655,-534 649,-540 643,-540"/>
<text text-anchor="middle" x="609" y="-519.5" font-family="sans" font-size="10.00" fill="#000000">reads_manifest</text>
</g>
<!-- 25&#45;&gt;24 -->
<g id="edge33" class="edge">
<title>25&#45;&gt;24</title>
<path fill="none" stroke="#c0c0c0" stroke-width="2" d="M613.5422,-503.8314C615.4884,-496.0463 617.8068,-486.7729 619.9663,-478.1347"/>
<polygon fill="#c0c0c0" stroke="#c0c0c0" stroke-width="2" points="623.3668,-478.9636 622.3967,-468.4133 616.5758,-477.2658 623.3668,-478.9636"/>
</g>
<!-- 26&#45;&gt;24 -->
<g id="edge32" class="edge">
<title>26&#45;&gt;24</title>
<path fill="none" stroke="#c0c0c0" stroke-width="2" d="M692.0462,-503.8314C681.3305,-494.9632 668.2811,-484.1637 656.691,-474.5718"/>
<polygon fill="#c0c0c0" stroke="#c0c0c0" stroke-width="2" points="658.8822,-471.8422 648.9467,-468.1628 654.4192,-477.2349 658.8822,-471.8422"/>
</g>
<!-- 26&#45;&gt;32 -->
<g id="edge48" class="edge">
<title>26&#45;&gt;32</title>
<path fill="none" stroke="#c0c0c0" stroke-width="2" d="M715.507,-503.9693C717.3354,-472.9364 717.755,-408.1294 695,-360 689.9229,-349.2614 681.8569,-339.3164 673.5782,-330.9639"/>
<polygon fill="#c0c0c0" stroke="#c0c0c0" stroke-width="2" points="675.9747,-328.4129 666.3182,-324.0539 671.1487,-333.4834 675.9747,-328.4129"/>
</g>
<!-- 27&#45;&gt;26 -->
<g id="edge35" class="edge">
<title>27&#45;&gt;26</title>
<path fill="none" stroke="#c0c0c0" stroke-width="2" d="M719.2336,-575.8314C718.485,-568.131 717.5947,-558.9743 716.7627,-550.4166"/>
<polygon fill="#c0c0c0" stroke="#c0c0c0" stroke-width="2" points="720.2415,-550.0276 715.7902,-540.4133 713.2744,-550.7051 720.2415,-550.0276"/>
</g>
<!-- 28&#45;&gt;27 -->
<g id="edge39" class="edge">
<title>28&#45;&gt;27</title>
<path fill="none" stroke="#c0c0c0" stroke-width="2" d="M718.0094,-647.8314C718.4372,-640.131 718.9459,-630.9743 719.4213,-622.4166"/>
<polygon fill="#c0c0c0" stroke="#c0c0c0" stroke-width="2" points="722.9169,-622.592 719.977,-612.4133 715.9276,-622.2037 722.9169,-622.592"/>
</g>
<!-- 29&#45;&gt;28 -->
<g id="edge41" class="edge">
<title>29&#45;&gt;28</title>
<path fill="none" stroke="#c0c0c0" stroke-width="2" d="M717,-719.8314C717,-712.131 717,-702.9743 717,-694.4166"/>
<polygon fill="#c0c0c0" stroke="#c0c0c0" stroke-width="2" points="720.5001,-694.4132 717,-684.4133 713.5001,-694.4133 720.5001,-694.4132"/>
</g>
<!-- 30&#45;&gt;26 -->
<g id="edge34" class="edge">
<title>30&#45;&gt;26</title>
<path fill="none" stroke="#c0c0c0" stroke-width="2" d="M602.5071,-647.6591C609.9649,-628.383 623.576,-597.8784 642,-576 651.4757,-564.7477 663.7199,-554.4681 675.4147,-545.9678"/>
<polygon fill="#c0c0c0" stroke="#c0c0c0" stroke-width="2" points="677.6032,-548.7082 683.7857,-540.1043 673.5871,-542.9748 677.6032,-548.7082"/>
</g>
<!-- 30&#45;&gt;27 -->
<g id="edge38" class="edge">
<title>30&#45;&gt;27</title>
<path fill="none" stroke="#c0c0c0" stroke-width="2" d="M627.5428,-647.8314C643.6791,-638.5368 663.4986,-627.1208 680.7272,-617.1971"/>
<polygon fill="#c0c0c0" stroke="#c0c0c0" stroke-width="2" points="682.5489,-620.187 689.4673,-612.1628 679.055,-614.1212 682.5489,-620.187"/>
</g>
<!-- 31 -->
<g id="node32" class="node">
<title>31</title>
<path fill="none" stroke="#56d8d8" stroke-width="2" d="M685.5,-252C685.5,-252 598.5,-252 598.5,-252 592.5,-252 586.5,-246 586.5,-240 586.5,-240 586.5,-228 586.5,-228 586.5,-222 592.5,-216 598.5,-216 598.5,-216 685.5,-216 685.5,-216 691.5,-216 697.5,-222 697.5,-228 697.5,-228 697.5,-240 697.5,-240 697.5,-246 691.5,-252 685.5,-252"/>
<text text-anchor="middle" x="642" y="-231.5" font-family="sans" font-size="10.00" fill="#000000">iso_analysis_report</text>
</g>
<!-- 31&#45;&gt;0 -->
<g id="edge2" class="edge">
<title>31&#45;&gt;0</title>
<path fill="none" stroke="#c0c0c0" stroke-width="2" d="M644.9359,-215.7506C647.0588,-196.2715 647.4211,-165.3363 633,-144 585.0627,-73.0758 484.1363,-39.4115 429.3277,-25.8056"/>
<polygon fill="#c0c0c0" stroke="#c0c0c0" stroke-width="2" points="429.8712,-22.337 419.3318,-23.4202 428.2463,-29.1458 429.8712,-22.337"/>
</g>
<!-- 32&#45;&gt;31 -->
<g id="edge46" class="edge">
<title>32&#45;&gt;31</title>
<path fill="none" stroke="#c0c0c0" stroke-width="2" d="M642.7477,-287.8314C642.6407,-280.131 642.5135,-270.9743 642.3947,-262.4166"/>
<polygon fill="#c0c0c0" stroke="#c0c0c0" stroke-width="2" points="645.8944,-262.3637 642.2557,-252.4133 638.8951,-262.4609 645.8944,-262.3637"/>
</g>
</g>
</svg>
